<svg width="24" height="24" viewBox="0 0 24 24" fill="none" xmlns="http://www.w3.org/2000/svg">
<path fill-rule="evenodd" clip-rule="evenodd" d="M10.9644 2.12734C11.4172 1.95755 11.9161 1.95755 12.3689 2.12734L19.0356 4.62734C19.8162 4.92007 20.3333 5.66631 20.3333 6.5V12.5153C20.3333 15.3619 18.7165 17.7113 17.0349 19.3963C15.3385 21.0962 13.4425 22.256 12.5936 22.7344C12.0146 23.0606 11.3187 23.0606 10.7397 22.7344C9.89086 22.256 7.99479 21.0962 6.29841 19.3963C4.61681 17.7113 3 15.3619 3 12.5153V6.5C3 5.66631 3.51715 4.92007 4.29775 4.62734L10.9644 2.12734ZM11.6667 4L5 6.5L5 12.5153C5 14.5858 6.1864 16.4528 7.71407 17.9835C9.19219 19.4647 10.8673 20.5063 11.6667 20.9609C12.466 20.5063 14.1411 19.4647 15.6193 17.9835C17.1469 16.4528 18.3333 14.5858 18.3333 12.5153V6.5L11.6667 4Z" fill="currentColor"/>
<path fill-rule="evenodd" clip-rule="evenodd" d="M0.292893 0.292893C0.683417 -0.0976311 1.31658 -0.0976311 1.70711 0.292893L23.7071 22.2929C24.0976 22.6834 24.0976 23.3166 23.7071 23.7071C23.3166 24.0976 22.6834 24.0976 22.2929 23.7071L0.292893 1.70711C-0.0976311 1.31658 -0.0976311 0.683417 0.292893 0.292893Z" fill="#FF6157"/>
</svg>
