<svg width="24" height="24" viewBox="0 0 24 24" fill="none" xmlns="http://www.w3.org/2000/svg">
<path fill-rule="evenodd" clip-rule="evenodd" d="M11.7892 1.43859C11.9251 1.38766 12.0747 1.38766 12.2106 1.43859L20.2106 4.43859C20.4448 4.52641 20.5999 4.75028 20.5999 5.00039V12.0004C20.5999 15.2683 18.4309 17.9206 16.395 19.7019C15.3645 20.6037 14.3368 21.3099 13.5679 21.7904C13.1828 22.0311 12.8611 22.2162 12.6342 22.3417C12.5208 22.4045 12.4309 22.4525 12.3686 22.4852C12.3375 22.5016 12.3132 22.5141 12.2963 22.5228L12.2766 22.5328L12.271 22.5357L12.2692 22.5365C12.269 22.5367 12.2682 22.537 11.9999 22.0004C11.7316 22.537 11.7314 22.537 11.7312 22.5368L11.7289 22.5357L11.7232 22.5328L11.7035 22.5228C11.6866 22.5141 11.6623 22.5016 11.6312 22.4852C11.5689 22.4525 11.479 22.4045 11.3656 22.3417C11.1387 22.2162 10.817 22.0311 10.4319 21.7904C9.66303 21.3099 8.63533 20.6037 7.6048 19.7019C5.56895 17.9206 3.3999 15.2683 3.3999 12.0004V5.00039C3.3999 4.75028 3.55505 4.52641 3.78923 4.43859L11.7892 1.43859ZM11.9999 22.0004L11.7312 22.5368C11.9001 22.6213 12.0993 22.6215 12.2682 22.537L11.9999 22.0004ZM11.9999 21.3211C12.0169 21.3118 12.0346 21.3021 12.0531 21.2919C12.2637 21.1753 12.567 21.0009 12.9319 20.7728C13.663 20.3159 14.6353 19.6471 15.6048 18.7988C17.569 17.0802 19.3999 14.7325 19.3999 12.0004V5.41619L11.9999 2.64119L4.5999 5.41619V12.0004C4.5999 14.7325 6.43085 17.0802 8.39501 18.7988C9.36447 19.6471 10.3368 20.3159 11.0679 20.7728C11.4328 21.0009 11.7361 21.1753 11.9467 21.2919C11.9652 21.3021 11.9829 21.3118 11.9999 21.3211Z" fill="currentColor"/>
</svg>
