<svg width="60" height="60" viewBox="0 0 60 60" fill="none" xmlns="http://www.w3.org/2000/svg">
<path d="M43.8077 38.4019C43.3135 38.402 42.8304 38.2547 42.4194 37.9787C42.0085 37.7026 41.6881 37.3102 41.4989 36.8511C41.3097 36.3919 41.2602 35.8867 41.3565 35.3992C41.4528 34.9117 41.6907 34.4639 42.0401 34.1124C42.3894 33.7609 42.8346 33.5215 43.3193 33.4244C43.8039 33.3274 44.3063 33.377 44.7629 33.5671C45.2195 33.7573 45.6098 34.0793 45.8845 34.4925C46.1591 34.9057 46.3057 35.3915 46.3058 35.8885C46.3051 36.5547 46.0417 37.1934 45.5734 37.6646C45.105 38.1358 44.4701 38.4009 43.8077 38.4019ZM16.1923 38.4019C15.6982 38.402 15.2151 38.2547 14.8041 37.9787C14.3932 37.7026 14.0728 37.3102 13.8836 36.8511C13.6944 36.3919 13.6448 35.8867 13.7412 35.3992C13.8375 34.9117 14.0754 34.4639 14.4247 34.1124C14.7741 33.7609 15.2193 33.5215 15.704 33.4244C16.1886 33.3274 16.691 33.377 17.1476 33.5671C17.6042 33.7573 17.9945 34.0793 18.2691 34.4925C18.5438 34.9057 18.6904 35.3915 18.6905 35.8885C18.6899 36.5547 18.4265 37.1935 17.9582 37.6647C17.4898 38.1359 16.8548 38.401 16.1923 38.4019ZM44.7036 23.266L49.6966 14.5685C49.7649 14.4497 49.8093 14.3185 49.8272 14.1825C49.8451 14.0465 49.8361 13.9082 49.8009 13.7756C49.7657 13.6431 49.7048 13.5188 49.6218 13.4099C49.5388 13.3009 49.4353 13.2095 49.3172 13.1409C49.199 13.0722 49.0686 13.0276 48.9334 13.0096C48.7981 12.9916 48.6606 13.0006 48.5288 13.036C48.397 13.0714 48.2734 13.1327 48.1651 13.2161C48.0568 13.2996 47.9659 13.4037 47.8977 13.5225L42.8415 22.3299C38.9752 20.5552 34.6328 19.5669 29.9995 19.5669C25.3662 19.5669 21.0243 20.5566 17.158 22.3299L12.1024 13.5225C12.0342 13.4037 11.9434 13.2995 11.8351 13.216C11.7269 13.1324 11.6034 13.0712 11.4716 13.0356C11.3399 13.0001 11.2024 12.991 11.0672 13.0089C10.9319 13.0268 10.8015 13.0713 10.6833 13.1399C10.5652 13.2085 10.4616 13.2998 10.3785 13.4087C10.2955 13.5175 10.2345 13.6417 10.1992 13.7743C10.1639 13.9068 10.1549 14.045 10.1726 14.181C10.1904 14.3171 10.2347 14.4483 10.3029 14.5671L15.2964 23.266C6.72233 27.9562 0.857829 36.6859 0 47H60C59.1412 36.6859 53.2772 27.9562 44.7036 23.266Z" fill="#3DDC84"/>
</svg>
