<svg width="60" height="60" viewBox="0 0 60 60" fill="none" xmlns="http://www.w3.org/2000/svg">
<g clip-path="url(#clip0)">
<path d="M54 44.0189C52.0743 49.7191 46.3095 59.8119 40.3707 59.9219C36.4311 59.9994 35.1644 57.5394 30.6613 57.5394C26.1607 57.5394 24.7519 59.8469 21.0279 59.9969C14.7265 60.2444 5 45.429 5 32.5086C5 20.6407 13.1046 14.758 20.1851 14.6505C23.9826 14.5805 27.5694 17.2631 29.8847 17.2631C32.2097 17.2631 36.5658 14.038 41.1449 14.5105C43.0608 14.593 48.4434 15.298 51.8979 20.4532C42.7325 26.5584 44.1608 39.3263 54 44.0189ZM41.2061 0C34.2824 0.285009 28.6327 7.69775 29.4216 13.8279C35.821 14.3355 41.9607 7.01523 41.2061 0Z" fill="white"/>
</g>
<defs>
<clipPath id="clip0">
<rect width="60" height="60" fill="white"/>
</clipPath>
</defs>
</svg>
