<svg width="24" height="24" viewBox="0 0 24 24" fill="none" xmlns="http://www.w3.org/2000/svg">
    <path d="M12.2672 6.07692C13.2656 6.07692 14.5172 5.40559 15.2625 4.51049C15.9375 3.6993 16.4297 2.56643 16.4297 1.43357C16.4297 1.27972 16.4156 1.12587 16.3875 1C15.2766 1.04196 13.9406 1.74126 13.1391 2.67832C12.5063 3.39161 11.9297 4.51049 11.9297 5.65734C11.9297 5.82518 11.9578 5.99301 11.9719 6.04895C12.0422 6.06294 12.1547 6.07692 12.2672 6.07692ZM8.75156 23C10.1156 23 10.7203 22.0909 12.4219 22.0909C14.1516 22.0909 14.5312 22.972 16.05 22.972C17.5406 22.972 18.5391 21.6014 19.4813 20.2587C20.5359 18.7203 20.9719 17.2098 21 17.1399C20.9016 17.1119 18.0469 15.951 18.0469 12.6923C18.0469 9.86713 20.2969 8.59441 20.4234 8.4965C18.9328 6.37063 16.6687 6.31469 16.05 6.31469C14.3766 6.31469 13.0125 7.32168 12.1547 7.32168C11.2266 7.32168 10.0031 6.37063 8.55469 6.37063C5.79844 6.37063 3 8.63636 3 12.9161C3 15.5734 4.04062 18.3846 5.32031 20.2028C6.41719 21.7413 7.37344 23 8.75156 23Z" fill="black"/>
</svg>
