<svg width="24" height="24" viewBox="0 0 24 24" fill="none" xmlns="http://www.w3.org/2000/svg">
<path d="M11.9981 2.99805C10.5938 2.99828 9.20907 3.32708 7.95454 3.95814C6.70002 4.5892 5.61054 5.50503 4.77322 6.63239C3.93589 7.75976 3.37395 9.0674 3.13231 10.4508C2.89067 11.8341 2.97604 13.2548 3.3816 14.5993C3.78716 15.9438 4.50165 17.1747 5.46795 18.1937C6.43426 19.2127 7.62556 19.9914 8.94663 20.4677C10.2677 20.944 11.6819 21.1046 13.0761 20.9367C14.4703 20.7687 15.8059 20.2769 16.9761 19.5006C17.0862 19.4282 17.181 19.3348 17.2549 19.2256C17.3287 19.1165 17.3804 18.9939 17.4067 18.8648C17.433 18.7356 17.4336 18.6026 17.4084 18.4733C17.3831 18.3439 17.3326 18.2208 17.2596 18.1111C17.1867 18.0013 17.0927 17.9071 16.9832 17.8338C16.8737 17.7605 16.7508 17.7095 16.6216 17.6838C16.4923 17.6581 16.3593 17.6583 16.2301 17.6842C16.1008 17.7101 15.978 17.7613 15.8687 17.8348C14.5688 18.6973 13.0181 19.101 11.4627 18.9818C9.90726 18.8627 8.43617 18.2275 7.28282 17.1771C6.12947 16.1267 5.35992 14.7212 5.09627 13.1837C4.83263 11.6462 5.08999 10.0646 5.82752 8.68997C6.56505 7.31534 7.74051 6.22638 9.16739 5.59585C10.5943 4.96533 12.1908 4.82936 13.7038 5.20951C15.2168 5.58967 16.5594 6.46419 17.5188 7.6943C18.4782 8.92442 18.9992 10.4397 18.9994 11.9997C18.9994 12.7738 18.8605 13.4235 18.6084 13.8292C18.3886 14.1826 18.1067 14.3334 17.6658 14.3334C17.2249 14.3334 16.943 14.1826 16.7233 13.8292C16.4711 13.4235 16.3323 12.7738 16.3323 11.9997V8.66573C16.3322 8.42574 16.2458 8.19378 16.089 8.01217C15.9321 7.83057 15.7151 7.71143 15.4777 7.67651C15.2403 7.64158 14.9982 7.6932 14.7957 7.82194C14.5931 7.95068 14.4436 8.14796 14.3745 8.37776C13.6868 7.92572 12.8847 7.67878 12.0619 7.66583C11.239 7.65287 10.4295 7.87443 9.72798 8.3046C9.02643 8.73477 8.46184 9.35577 8.10023 10.095C7.73862 10.8342 7.59492 11.6611 7.68595 12.479C7.77697 13.2969 8.09896 14.0719 8.61425 14.7136C9.12954 15.3552 9.81685 15.8369 10.5958 16.1023C11.3748 16.3677 12.2132 16.4058 13.013 16.2123C13.8129 16.0187 14.5411 15.6015 15.1125 15.0093C15.6906 15.8591 16.5668 16.3338 17.6658 16.3338C19.7223 16.3338 20.9998 14.6731 20.9998 11.9997C20.9971 9.61311 20.0478 7.32508 18.3603 5.63753C16.6727 3.94998 14.3847 3.00074 11.9981 2.99805ZM11.9981 14.3334C11.5366 14.3334 11.0854 14.1965 10.7016 13.9401C10.3178 13.6837 10.0187 13.3192 9.84204 12.8927C9.6654 12.4663 9.61919 11.9971 9.70923 11.5444C9.79928 11.0917 10.0216 10.6758 10.3479 10.3494C10.6743 10.0231 11.0901 9.8008 11.5429 9.71075C11.9956 9.6207 12.4648 9.66692 12.8912 9.84355C13.3177 10.0202 13.6822 10.3193 13.9386 10.7031C14.195 11.0869 14.3319 11.5381 14.3319 11.9997C14.3312 12.6184 14.0851 13.2116 13.6476 13.6491C13.2101 14.0866 12.6169 14.3327 11.9981 14.3334Z" fill="currentColor"/>
</svg>
