<svg width="24" height="24" viewBox="0 0 24 24" fill="none" xmlns="http://www.w3.org/2000/svg">
<path d="M9.65155 22.0533C8.77963 22.0491 7.91724 21.8715 7.11459 21.5309C6.31194 21.1902 5.58506 20.6934 4.97626 20.0692C4.37202 19.4965 3.88664 18.8103 3.5479 18.0498C3.20915 17.2893 3.02369 16.4695 3.00213 15.6373C2.98056 14.805 3.12331 13.9767 3.42222 13.1997C3.72112 12.4227 4.17031 11.7123 4.74408 11.1091L12.5116 3.26764C12.9264 2.85359 13.4208 2.52791 13.965 2.31024C14.5092 2.09257 15.0918 1.98744 15.6777 2.00119C16.3054 2.00333 16.9263 2.13041 17.5043 2.37503C18.0823 2.61964 18.6059 2.97689 19.0444 3.42595C19.9172 4.26628 20.4233 5.41692 20.4529 6.62813C20.4826 7.83934 20.0333 9.01337 19.2027 9.89538L11.3929 17.7368C11.1428 17.9886 10.8451 18.1883 10.5172 18.3242C10.1893 18.46 9.83765 18.5294 9.4827 18.5283C9.09925 18.5288 8.71959 18.4525 8.36613 18.3039C8.01267 18.1552 7.69257 17.9373 7.42472 17.6629C6.88936 17.1446 6.58018 16.4359 6.56437 15.6909C6.54856 14.9459 6.8274 14.2247 7.34029 13.6842L14.5485 6.44431C14.7536 6.30807 15 6.24785 15.2448 6.2741C15.4897 6.30034 15.7177 6.41139 15.8893 6.58801C16.0609 6.76464 16.1653 6.99571 16.1845 7.24123C16.2037 7.48675 16.1364 7.73125 15.9943 7.93239L8.78615 15.1722C8.66595 15.317 8.60745 15.5033 8.62324 15.6908C8.63903 15.8783 8.72786 16.0522 8.87058 16.1748C9.01908 16.3244 9.21928 16.4112 9.42993 16.4176C9.50796 16.4187 9.58543 16.4043 9.65789 16.3754C9.73034 16.3464 9.79634 16.3033 9.85207 16.2487L17.6513 8.4073C18.0891 7.92097 18.3179 7.28189 18.2882 6.62821C18.2586 5.97453 17.9729 5.35877 17.493 4.91402C17.0472 4.45118 16.4409 4.1768 15.799 4.14736C15.157 4.11791 14.5282 4.33563 14.0419 4.75572L6.2427 12.5549C5.86345 12.9623 5.56849 13.4406 5.37479 13.9624C5.1811 14.4841 5.09249 15.039 5.11407 15.5952C5.13565 16.1513 5.26699 16.6977 5.50053 17.2029C5.73407 17.7081 6.06521 18.1621 6.47489 18.5389C6.88572 18.9648 7.3773 19.3045 7.92092 19.5383C8.46453 19.772 9.04928 19.8951 9.641 19.9003C10.1512 19.9044 10.6572 19.8078 11.1299 19.6158C11.6026 19.4238 12.0327 19.1403 12.3955 18.7816L20.1947 10.9402C20.2924 10.8418 20.4086 10.7636 20.5365 10.7101C20.6644 10.6566 20.8016 10.6288 20.9403 10.6283C21.079 10.6278 21.2164 10.6546 21.3447 10.7072C21.473 10.7598 21.5897 10.8372 21.6881 10.9349C21.7865 11.0326 21.8647 11.1488 21.9182 11.2767C21.9717 11.4046 21.9995 11.5418 22 11.6805C22.0005 11.8192 21.9737 11.9566 21.921 12.0849C21.8684 12.2132 21.7911 12.3299 21.6933 12.4283L13.8941 20.2697C13.3404 20.8332 12.6802 21.2811 11.9519 21.5873C11.2235 21.8935 10.4416 22.0519 9.65155 22.0533Z" fill="currentColor"/>
</svg>
