<svg width="24" height="24" viewBox="0 0 24 24" fill="none" xmlns="http://www.w3.org/2000/svg">
<path fill-rule="evenodd" clip-rule="evenodd" d="M16.1764 2.60039C15.2324 2.60039 14.3337 2.95438 13.6763 3.57438L4.22072 12.4921C3.17839 13.4752 2.5999 14.8007 2.5999 16.1749C2.5999 17.5491 3.17839 18.8746 4.22072 19.8576C5.26423 20.8418 6.68668 21.4004 8.1767 21.4004C9.66673 21.4004 11.0892 20.8418 12.1327 19.8576L21.5882 10.9399C21.8293 10.7125 22.209 10.7236 22.4364 10.9647C22.6638 11.2058 22.6526 11.5855 22.4116 11.8129L12.956 20.7306C11.6828 21.9315 9.96305 22.6004 8.1767 22.6004C6.39035 22.6004 4.67061 21.9315 3.39738 20.7306C2.12295 19.5287 1.3999 17.8908 1.3999 16.1749C1.3999 14.459 2.12295 12.8211 3.39738 11.6192L12.8529 2.70139C13.74 1.86474 14.9361 1.40039 16.1764 1.40039C17.4166 1.40039 18.6127 1.86474 19.4998 2.70139C20.3881 3.53917 20.8942 4.6832 20.8942 5.88405C20.8942 7.08491 20.3881 8.22894 19.4998 9.06671L10.034 17.9845C9.53299 18.457 8.86064 18.7167 8.16641 18.7167C7.47219 18.7167 6.79984 18.457 6.29886 17.9845C5.79669 17.5109 5.50748 16.8607 5.50748 16.1749C5.50748 15.489 5.79669 14.8389 6.29886 14.3653L15.0344 6.13628C15.2756 5.90907 15.6554 5.9204 15.8826 6.16161C16.1098 6.40281 16.0985 6.78254 15.8573 7.00976L7.1222 15.2383C6.85212 15.493 6.70748 15.8307 6.70748 16.1749C6.70748 16.5191 6.85212 16.8568 7.1222 17.1115C7.39347 17.3673 7.76851 17.5167 8.16641 17.5167C8.56431 17.5167 8.93936 17.3673 9.21063 17.1115L18.6765 8.19372C19.3327 7.57484 19.6942 6.74322 19.6942 5.88405C19.6942 5.02489 19.3327 4.19327 18.6765 3.57438C18.0191 2.95438 17.1203 2.60039 16.1764 2.60039Z" fill="currentColor"/>
</svg>
