<svg width="24" height="24" viewBox="0 0 24 24" fill="none" xmlns="http://www.w3.org/2000/svg">
<path fill-rule="evenodd" clip-rule="evenodd" d="M3.90478 5.60039C3.21143 5.60039 2.60002 6.19927 2.60002 7.00039V8.00039C2.60002 8.33176 2.33139 8.60039 2.00002 8.60039C1.66865 8.60039 1.40002 8.33176 1.40002 8.00039V7.00039C1.40002 5.59237 2.49419 4.40039 3.90478 4.40039H14.381C15.7916 4.40039 16.8857 5.59237 16.8857 7.00039V10.6548L21.599 6.42071C21.7752 6.26243 22.0281 6.22261 22.2444 6.31907C22.4607 6.41553 22.6 6.63021 22.6 6.86706V17.1337C22.6 17.3706 22.4607 17.5853 22.2444 17.6817C22.0281 17.7782 21.7752 17.7383 21.599 17.5801L16.8857 13.3459V17.0004C16.8857 18.4084 15.7916 19.6004 14.381 19.6004H10.0953C10.0014 19.6004 9.91251 19.5788 9.83337 19.5404C9.77387 19.5692 9.70855 19.5887 9.63911 19.5966C9.30985 19.6339 9.01264 19.3973 8.97527 19.068C8.77588 17.3111 7.97217 15.6708 6.6935 14.4177C5.41461 13.1644 3.73671 12.3732 1.93501 12.1768C1.60559 12.1409 1.36765 11.8448 1.40355 11.5154C1.43946 11.1859 1.73561 10.948 2.06503 10.9839C4.13149 11.2091 6.06023 12.117 7.53342 13.5607C8.87745 14.8778 9.76929 16.5697 10.0908 18.4004C10.0923 18.4004 10.0938 18.4004 10.0953 18.4004H14.381C15.0743 18.4004 15.6857 17.8015 15.6857 17.0004V12.0036C15.6857 12.0025 15.6857 12.0015 15.6857 12.0004C15.6857 11.9993 15.6857 11.9982 15.6857 11.9972V7.00039C15.6857 6.19927 15.0743 5.60039 14.381 5.60039H3.90478ZM17.1836 12.0004L21.4 15.7882V8.2126L17.1836 12.0004ZM1.41165 15.2428C1.4766 14.9178 1.79267 14.7071 2.11761 14.772C3.14578 14.9775 4.0912 15.4751 4.83558 16.2046C5.58008 16.9342 6.09061 17.8637 6.30172 18.8781C6.36923 19.2026 6.16097 19.5203 5.83655 19.5878C5.51213 19.6553 5.1944 19.447 5.12689 19.1226C4.96473 18.3434 4.57199 17.6264 3.99566 17.0616C3.4192 16.4967 2.68452 16.1091 1.88242 15.9487C1.55748 15.8838 1.34671 15.5677 1.41165 15.2428Z" fill="currentColor"/>
</svg>
