<svg width="24" height="24" viewBox="0 0 24 24" fill="none" xmlns="http://www.w3.org/2000/svg">
<path fill-rule="evenodd" clip-rule="evenodd" d="M10.6671 3.35196C11.0245 3.77303 10.9729 4.40409 10.5518 4.76146C8.25194 6.71339 7 9.32175 7 11.999C7 14.6763 8.25194 17.2847 10.5518 19.2366C10.9729 19.594 11.0245 20.2251 10.6671 20.6461C10.3097 21.0672 9.67869 21.1188 9.25761 20.7615C6.5571 18.4695 5 15.3226 5 11.999C5 8.67545 6.5571 5.52861 9.25761 3.23662C9.67869 2.87925 10.3097 2.93089 10.6671 3.35196ZM18.7979 9.13106C19.1311 9.56972 19.0467 10.195 18.6099 10.5298L18.607 10.532C18.6026 10.5355 18.5939 10.5425 18.5815 10.5527C18.5566 10.5733 18.5174 10.6067 18.4687 10.6513C18.37 10.7416 18.2391 10.872 18.1103 11.0302C17.8305 11.3738 17.668 11.7163 17.668 11.9991C17.668 12.2819 17.8305 12.6244 18.1103 12.968C18.2391 13.1262 18.37 13.2566 18.4687 13.3469C18.5174 13.3915 18.5566 13.4249 18.5815 13.4455C18.5939 13.4557 18.6026 13.4627 18.607 13.4662L18.6099 13.4684C19.0467 13.8032 19.1311 14.4285 18.7979 14.8671C18.4638 15.3069 17.8364 15.3926 17.3967 15.0584L17.9856 14.2832C17.3966 15.0584 17.3957 15.0577 17.3957 15.0577L17.3945 15.0568L17.3919 15.0549L17.3853 15.0497L17.3663 15.0348C17.3511 15.0229 17.3312 15.0068 17.3071 14.9869C17.2591 14.9472 17.1941 14.8917 17.1178 14.8218C16.9664 14.6831 16.7639 14.482 16.5593 14.2307C16.1722 13.7552 15.668 12.9661 15.668 11.9991C15.668 11.0321 16.1722 10.243 16.5593 9.76751C16.7639 9.51615 16.9664 9.31511 17.1178 9.17644C17.1941 9.10653 17.2591 9.05097 17.3071 9.01126C17.3312 8.99137 17.3511 8.97535 17.3663 8.96339L17.3853 8.94849L17.3919 8.94335L17.3945 8.94135L17.3967 8.93975C17.8364 8.60565 18.4638 8.6913 18.7979 9.13106ZM14.3274 8.15657C14.7487 7.79949 14.8008 7.16847 14.4437 6.74715C14.0866 6.32583 13.4556 6.27375 13.0343 6.63083C12.1916 7.34501 11.5126 8.20208 11.0454 9.15823C10.5779 10.1152 10.334 11.1484 10.334 12.1971C10.334 13.2458 10.5779 14.279 11.0454 15.236C11.5126 16.1921 12.1916 17.0492 13.0343 17.7634C13.4556 18.1204 14.0866 18.0684 14.4437 17.647C14.8008 17.2257 14.7487 16.5947 14.3274 16.2376C13.6821 15.6907 13.1807 15.0502 12.8424 14.358C12.5046 13.6665 12.334 12.9328 12.334 12.1971C12.334 11.4614 12.5046 10.7277 12.8424 10.0362C13.1807 9.34395 13.6821 8.70346 14.3274 8.15657Z" fill="currentColor"/>
</svg>
