<svg width="24" height="24" viewBox="0 0 24 24" fill="none" xmlns="http://www.w3.org/2000/svg">
    <path d="M16.5898 8.08247H7.41012C6.94007 8.08247 6.58063 8.43986 6.58063 8.90721C6.58063 9.37457 6.94007 9.73196 7.41012 9.73196H16.5898C17.0599 9.73196 17.4193 9.37457 17.4193 8.90721C17.4193 8.43986 17.0322 8.08247 16.5898 8.08247Z" fill="currentColor"/>
    <path d="M16.5898 11.134H7.41012C6.94007 11.134 6.58063 11.4914 6.58063 11.9588C6.58063 12.4261 6.94007 12.7835 7.41012 12.7835H16.5898C17.0599 12.7835 17.4193 12.4261 17.4193 11.9588C17.4193 11.4914 17.0322 11.134 16.5898 11.134Z" fill="currentColor"/>
    <path d="M16.5898 14.5154H7.41012C6.94007 14.5154 6.58063 14.8728 6.58063 15.3402C6.58063 15.8075 6.94007 16.1649 7.41012 16.1649H16.5898C17.0599 16.1649 17.4193 15.8075 17.4193 15.3402C17.4193 14.8728 17.0322 14.5154 16.5898 14.5154Z" fill="currentColor"/>
    <path d="M24 11.9038C24 5.33333 18.6083 0 12 0C5.39171 0 0 5.33333 0 11.9038C0 18.4742 5.39171 23.8351 12 23.8351C13.3548 23.8351 14.682 23.6151 15.9539 23.1753L21.4009 24C21.4562 24 21.4839 24 21.5392 24C21.7604 24 22.0092 23.89 22.1475 23.7251C22.341 23.5326 22.3963 23.2302 22.341 22.9828L21.4009 19.299C22.1475 18.3643 22.7281 17.3471 23.1705 16.2474C23.7235 14.8729 24 13.4158 24 11.9038ZM19.8525 18.5567L19.8249 18.5842C19.6866 18.7766 19.6313 19.0515 19.6866 19.2715L20.4055 22.1581L15.9816 21.4983C15.8433 21.4708 15.7051 21.4983 15.5668 21.5533C14.4055 21.9931 13.1889 22.1856 11.9724 22.1856C6.2765 22.1856 1.63134 17.567 1.63134 11.9038C1.63134 6.24055 6.30415 1.64948 12 1.64948C17.6959 1.64948 22.341 6.26804 22.341 11.9313C22.341 13.2234 22.0922 14.488 21.6221 15.6701C21.2074 16.6873 20.6267 17.677 19.8525 18.5567Z" fill="currentColor"/>
</svg>
