<svg width="16" height="16" viewBox="0 0 16 16" fill="none" xmlns="http://www.w3.org/2000/svg">
<path fill-rule="evenodd" clip-rule="evenodd" d="M2 8C2 4.68629 4.68629 2 8 2C11.3137 2 14 4.68629 14 8C14 11.3137 11.3137 14 8 14C4.68629 14 2 11.3137 2 8ZM8 3.33333C5.42267 3.33333 3.33333 5.42267 3.33333 8C3.33333 10.5773 5.42267 12.6667 8 12.6667C10.5773 12.6667 12.6667 10.5773 12.6667 8C12.6667 5.42267 10.5773 3.33333 8 3.33333Z" fill="currentColor"/>
<path fill-rule="evenodd" clip-rule="evenodd" d="M2 8C2 4.68629 4.68629 2 8 2C11.3137 2 14 4.68629 14 8C14 11.3137 11.3137 14 8 14C4.68629 14 2 11.3137 2 8ZM8 3.33333C5.42267 3.33333 3.33333 5.42267 3.33333 8C3.33333 10.5773 5.42267 12.6667 8 12.6667C10.5773 12.6667 12.6667 10.5773 12.6667 8C12.6667 5.42267 10.5773 3.33333 8 3.33333Z" fill="black" fill-opacity="0.1"/>
<path fill-rule="evenodd" clip-rule="evenodd" d="M8.00004 4.66663C8.36823 4.66663 8.66671 4.9651 8.66671 5.33329V7.33329H10.6667C11.0349 7.33329 11.3334 7.63177 11.3334 7.99996C11.3334 8.36815 11.0349 8.66663 10.6667 8.66663H8.00004C7.63185 8.66663 7.33337 8.36815 7.33337 7.99996V5.33329C7.33337 4.9651 7.63185 4.66663 8.00004 4.66663Z" fill="currentColor"/>
<path fill-rule="evenodd" clip-rule="evenodd" d="M8.00004 4.66663C8.36823 4.66663 8.66671 4.9651 8.66671 5.33329V7.33329H10.6667C11.0349 7.33329 11.3334 7.63177 11.3334 7.99996C11.3334 8.36815 11.0349 8.66663 10.6667 8.66663H8.00004C7.63185 8.66663 7.33337 8.36815 7.33337 7.99996V5.33329C7.33337 4.9651 7.63185 4.66663 8.00004 4.66663Z" fill="black" fill-opacity="0.1"/>
</svg>
