<svg width="24" height="24" viewBox="0 0 24 24" fill="none" xmlns="http://www.w3.org/2000/svg">
<path fill-rule="evenodd" clip-rule="evenodd" d="M18.2929 19.7071C18.6834 20.0976 19.3166 20.0976 19.7071 19.7071C20.0976 19.3166 20.0976 18.6834 19.7071 18.2929L13.4144 12.0002L19.7073 5.70726C20.0978 5.31674 20.0978 4.68358 19.7073 4.29305C19.3167 3.90253 18.6836 3.90253 18.293 4.29305L12.0002 10.5859L5.70711 4.29289C5.31658 3.90237 4.68342 3.90237 4.29289 4.29289C3.90237 4.68342 3.90237 5.31658 4.29289 5.70711L10.5859 12.0002L4.29304 18.2931C3.90252 18.6836 3.90252 19.3167 4.29304 19.7073C4.68357 20.0978 5.31673 20.0978 5.70726 19.7073L12.0002 13.4144L18.2929 19.7071Z" fill="currentColor"/>
</svg>
