<svg width="24" height="24" viewBox="0 0 24 24" fill="none" xmlns="http://www.w3.org/2000/svg">
<path fill-rule="evenodd" clip-rule="evenodd" d="M18.9999 3.60039C19.3712 3.60039 19.7273 3.74789 19.9899 4.01044C20.2524 4.27299 20.3999 4.62909 20.3999 5.00039V19.0004C20.3999 19.3717 20.2524 19.7278 19.9899 19.9903C19.7273 20.2529 19.3712 20.4004 18.9999 20.4004H14.9999C14.6685 20.4004 14.3999 20.669 14.3999 21.0004C14.3999 21.3318 14.6685 21.6004 14.9999 21.6004H18.9999C19.6895 21.6004 20.3508 21.3265 20.8384 20.8389C21.326 20.3513 21.5999 19.69 21.5999 19.0004V5.00039C21.5999 4.31083 21.326 3.64951 20.8384 3.16191C20.3508 2.67432 19.6895 2.40039 18.9999 2.40039H14.9999C14.6685 2.40039 14.3999 2.66902 14.3999 3.00039C14.3999 3.33176 14.6685 3.60039 14.9999 3.60039H18.9999Z" fill="currentColor"/>
<path fill-rule="evenodd" clip-rule="evenodd" d="M9.57564 6.57613C9.80995 6.34181 10.1899 6.34181 10.4242 6.57613L15.4242 11.5761C15.6585 11.8104 15.6585 12.1903 15.4242 12.4247L10.4242 17.4247C10.1899 17.659 9.80995 17.659 9.57564 17.4247C9.34132 17.1903 9.34132 16.8104 9.57564 16.5761L14.1514 12.0004L9.57564 7.42465C9.34132 7.19034 9.34132 6.81044 9.57564 6.57613Z" fill="currentColor"/>
<path fill-rule="evenodd" clip-rule="evenodd" d="M2.3999 12.0004C2.3999 11.669 2.66853 11.4004 2.9999 11.4004H14.9999C15.3313 11.4004 15.5999 11.669 15.5999 12.0004C15.5999 12.3318 15.3313 12.6004 14.9999 12.6004H2.9999C2.66853 12.6004 2.3999 12.3318 2.3999 12.0004Z" fill="currentColor"/>
</svg>
