<svg width="24" height="24" viewBox="0 0 24 24" fill="none" xmlns="http://www.w3.org/2000/svg">
<path fill-rule="evenodd" clip-rule="evenodd" d="M9 2C8.44772 2 8 2.44772 8 3V4C8 4.55228 7.55228 5 7 5C6.44772 5 6 4.55228 6 4V3C6 1.34315 7.34315 0 9 0H16.1716C16.9672 0 17.7303 0.316071 18.2929 0.878679L23.1213 5.70711C23.6839 6.26972 24 7.03278 24 7.82843V15C24 16.6569 22.6569 18 21 18H20C19.4477 18 19 17.5523 19 17C19 16.4477 19.4477 16 20 16H21C21.5523 16 22 15.5523 22 15V9H18C16.3431 9 15 7.65685 15 6V2H9ZM17 2.41421V6C17 6.55228 17.4477 7 18 7H21.5858L17 2.41421ZM3 8C2.44772 8 2 8.44772 2 9V21C2 21.5523 2.44772 22 3 22H15C15.5523 22 16 21.5523 16 21V15H12C10.3431 15 9 13.6569 9 12V8H3ZM11 8.41421V12C11 12.5523 11.4477 13 12 13H15.5858L11 8.41421ZM0 9C0 7.34315 1.34315 6 3 6H10.1716C10.9672 6 11.7303 6.31607 12.2929 6.87868L17.1213 11.7071C17.6839 12.2697 18 13.0328 18 13.8284V21C18 22.6569 16.6569 24 15 24H3C1.34315 24 0 22.6569 0 21V9Z" fill="currentColor"/>
</svg>
