<svg width="24" height="24" viewBox="0 0 24 24" fill="none" xmlns="http://www.w3.org/2000/svg">
<path fill-rule="evenodd" clip-rule="evenodd" d="M4.9999 3.60039C4.6286 3.60039 4.2725 3.74789 4.00995 4.01044C3.7474 4.27299 3.5999 4.62909 3.5999 5.00039V19.0004C3.5999 19.3717 3.7474 19.7278 4.00995 19.9903C4.2725 20.2529 4.6286 20.4004 4.9999 20.4004H8.9999C9.33127 20.4004 9.5999 20.669 9.5999 21.0004C9.5999 21.3318 9.33127 21.6004 8.9999 21.6004H4.9999C4.31034 21.6004 3.64902 21.3265 3.16142 20.8389C2.67383 20.3513 2.3999 19.69 2.3999 19.0004V5.00039C2.3999 4.31083 2.67383 3.64951 3.16142 3.16191C3.64902 2.67432 4.31034 2.40039 4.9999 2.40039H8.9999C9.33127 2.40039 9.5999 2.66902 9.5999 3.00039C9.5999 3.33176 9.33127 3.60039 8.9999 3.60039H4.9999Z" fill="currentColor"/>
<path fill-rule="evenodd" clip-rule="evenodd" d="M15.5756 6.57613C15.81 6.34181 16.1899 6.34181 16.4242 6.57613L21.4242 11.5761C21.6585 11.8104 21.6585 12.1903 21.4242 12.4247L16.4242 17.4247C16.1899 17.659 15.81 17.659 15.5756 17.4247C15.3413 17.1903 15.3413 16.8104 15.5756 16.5761L20.1514 12.0004L15.5756 7.42465C15.3413 7.19034 15.3413 6.81044 15.5756 6.57613Z" fill="currentColor"/>
<path fill-rule="evenodd" clip-rule="evenodd" d="M8.3999 12.0004C8.3999 11.669 8.66853 11.4004 8.9999 11.4004H20.9999C21.3313 11.4004 21.5999 11.669 21.5999 12.0004C21.5999 12.3318 21.3313 12.6004 20.9999 12.6004H8.9999C8.66853 12.6004 8.3999 12.3318 8.3999 12.0004Z" fill="currentColor"/>
</svg>
