<svg width="583" height="470" viewBox="0 0 583 470" fill="none" xmlns="http://www.w3.org/2000/svg">
<g clip-path="url(#clip0)">
<path d="M367.53 272.23C364.843 270.491 362.687 268.045 361.3 265.16C360.891 264.287 360.207 263.572 359.352 263.126C358.498 262.68 357.52 262.527 356.57 262.69H356.31C355.648 262.81 355.023 263.081 354.483 263.482C353.944 263.884 353.504 264.404 353.198 265.003C352.892 265.602 352.729 266.263 352.72 266.936C352.712 267.608 352.859 268.274 353.15 268.88C355.204 273.232 358.41 276.939 362.42 279.6C367.54 282.99 373.83 284.69 381.2 284.69C384.401 284.672 387.596 284.388 390.75 283.84C391.338 283.742 391.9 283.525 392.401 283.201C392.902 282.878 393.331 282.455 393.663 281.96C393.995 281.464 394.221 280.906 394.329 280.32C394.437 279.733 394.424 279.131 394.29 278.55L394.23 278.28C393.983 277.2 393.333 276.256 392.413 275.639C391.493 275.022 390.373 274.779 389.28 274.96C380.08 276.57 372.78 275.64 367.53 272.23Z" fill="currentColor"/>
<path d="M513.47 252.87C509.47 220.02 489.84 170.22 446.54 128.96C422.84 106.517 394.985 88.9177 364.54 77.15C328.68 63.09 288.06 55.96 243.79 55.96C162.4 55.96 98.7899 78.87 54.7899 124.05C-6.54006 186.97 -17.58 284.68 27.93 361.74C56.93 410.92 112.5 469.49 212.09 469.49H212.17H212.25C213.25 469.49 237.12 468.59 249.32 461.41C256.97 456.91 261.12 448.48 259.63 440.41C258.3 433.18 252.69 427.88 244.99 426.58C215.88 421.66 173.66 410.22 137.84 383.69C123.148 372.928 110.313 359.839 99.84 344.94C134.47 360.85 190.04 360.31 206.07 359.78C206.719 359.762 207.364 359.887 207.96 360.144C208.556 360.401 209.088 360.786 209.52 361.27C223.82 377.1 238.89 381.43 251.1 381.43C254.025 381.426 256.945 381.182 259.83 380.7C267.932 379.291 275.687 376.334 282.67 371.99C291.1 377.77 302.24 380.69 315.95 380.69C321.863 380.65 327.765 380.179 333.61 379.28C338.502 380.431 343.514 380.995 348.54 380.96C355.83 380.96 366.54 379.77 376.03 374.12C381.94 375.25 388.15 381.04 394.7 387.12C403.31 395.12 413.96 405.12 427.11 405.12C434.52 405.12 442.72 401.97 451.8 393.55C461.12 384.91 465.32 375.23 464.3 364.78C464.25 364.24 464.16 363.7 464.08 363.17C472.28 363.17 480.42 359.32 488.8 351.55C497.18 343.78 501.51 334.98 501.44 325.55C501.36 313.75 494.36 303.06 486.84 294.96C495.464 292.072 502.828 286.296 507.687 278.607C512.546 270.919 514.603 261.789 513.51 252.76L513.47 252.87ZM285.68 363.12C281.785 359.982 278.833 355.83 277.15 351.12C282.845 351.58 288.56 350.506 293.7 348.01C294.592 347.59 295.562 347.363 296.547 347.344C297.532 347.325 298.511 347.514 299.418 347.899C300.325 348.285 301.141 348.857 301.811 349.579C302.482 350.301 302.993 351.157 303.31 352.09C305.29 358.017 308.566 363.428 312.9 367.93C314.251 369.315 315.701 370.598 317.24 371.77C303.57 371.95 292.99 369.08 285.68 363.12ZM297.16 311.88C297.105 311.46 297.139 311.034 297.261 310.629C297.382 310.223 297.588 309.848 297.865 309.528C298.141 309.208 298.483 308.95 298.866 308.771C299.25 308.592 299.667 308.496 300.09 308.49C308.084 308.387 315.959 310.435 322.89 314.42C323.229 314.622 323.525 314.888 323.76 315.204C323.996 315.52 324.168 315.879 324.265 316.261C324.362 316.643 324.383 317.041 324.326 317.431C324.269 317.821 324.137 318.196 323.935 318.535C323.733 318.874 323.467 319.17 323.151 319.405C322.835 319.641 322.476 319.813 322.094 319.91C321.712 320.007 321.314 320.028 320.924 319.971C320.534 319.914 320.159 319.782 319.82 319.58C313.826 316.182 307.039 314.433 300.15 314.51C299.416 314.513 298.707 314.247 298.156 313.763C297.605 313.278 297.25 312.608 297.16 311.88ZM453.89 375.69C452.401 371.216 449.919 367.138 446.63 363.76C445.803 362.899 444.667 362.403 443.473 362.379C442.28 362.356 441.126 362.808 440.265 363.635C439.404 364.463 438.908 365.598 438.884 366.792C438.861 367.985 439.313 369.139 440.14 370C443.889 373.793 446.123 378.825 446.42 384.15C446.443 384.737 446.341 385.323 446.12 385.868C445.9 386.413 445.566 386.904 445.14 387.31C443.291 389.176 441.235 390.823 439.01 392.22C437.959 386.038 435.058 380.319 430.69 375.82C430.244 375.347 429.702 374.975 429.1 374.731C428.498 374.486 427.85 374.375 427.201 374.403C426.552 374.432 425.917 374.6 425.338 374.896C424.76 375.192 424.252 375.61 423.85 376.12C423.185 376.973 422.85 378.036 422.905 379.116C422.96 380.196 423.402 381.219 424.15 382C427.309 385.236 429.403 389.36 430.15 393.82C430.188 394.083 430.173 394.351 430.106 394.608C430.04 394.865 429.922 395.107 429.761 395.318C429.6 395.529 429.399 395.706 429.168 395.839C428.938 395.972 428.684 396.057 428.42 396.09C427.9 396.137 427.38 396.16 426.86 396.16C417.42 396.16 409.47 388.74 400.77 380.62C395.26 375.48 389.95 370.54 384.2 367.62C387.742 363.889 390.554 359.527 392.49 354.76C392.77 354.09 393.01 353.41 393.26 352.76C405.806 346.789 417.518 339.205 428.1 330.2C435.23 335.2 453.69 349.6 455.27 365.73C455.623 369.113 455.15 372.531 453.89 375.69ZM492.4 325.69C492.407 328.404 491.887 331.094 490.87 333.61C489.381 329.153 486.907 325.089 483.63 321.72C482.803 320.859 481.667 320.363 480.473 320.339C479.28 320.316 478.126 320.768 477.265 321.595C476.404 322.422 475.908 323.558 475.884 324.752C475.861 325.945 476.313 327.099 477.14 327.96C480.552 331.429 482.721 335.93 483.31 340.76C483.423 341.721 483.312 342.695 482.986 343.605C482.66 344.516 482.127 345.339 481.43 346.01C479.826 347.651 478.002 349.061 476.01 350.2C474.961 344.014 472.06 338.292 467.69 333.79C467.284 333.36 466.798 333.014 466.258 332.772C465.719 332.53 465.137 332.396 464.546 332.379C463.955 332.362 463.366 332.461 462.813 332.672C462.261 332.882 461.755 333.199 461.325 333.605C460.895 334.011 460.549 334.497 460.307 335.037C460.065 335.576 459.931 336.158 459.914 336.749C459.897 337.34 459.996 337.929 460.207 338.482C460.417 339.034 460.734 339.54 461.14 339.97C464.186 343.08 466.252 347.016 467.08 351.29C467.148 351.629 467.142 351.979 467.063 352.316C466.984 352.653 466.834 352.969 466.623 353.243C466.411 353.517 466.144 353.742 465.838 353.904C465.532 354.065 465.195 354.16 464.85 354.18C463.68 354.24 462.507 354.18 461.35 354C455.35 340.2 442.1 329.16 434.89 323.92C443.47 315.44 451.39 305.15 456.55 293.04C459.104 294.188 461.75 295.117 464.46 295.82C468.25 296.806 472.167 297.218 476.08 297.04C483.76 304.24 492.33 314.7 492.41 325.72L492.4 325.69ZM494.27 280.59C490.579 283.87 486.132 286.182 481.327 287.32C476.522 288.458 471.51 288.386 466.74 287.11C448.38 282.32 440.63 268.69 443.05 245.44C444.89 227.81 441.99 214.44 434.45 205.76C432.316 203.266 429.739 201.188 426.85 199.63C426.329 199.354 425.758 199.184 425.171 199.129C424.584 199.073 423.991 199.134 423.428 199.308C422.864 199.482 422.34 199.764 421.886 200.141C421.431 200.517 421.056 200.979 420.78 201.5C420.504 202.021 420.334 202.592 420.279 203.179C420.223 203.766 420.284 204.359 420.458 204.922C420.631 205.486 420.914 206.01 421.291 206.464C421.667 206.918 422.129 207.294 422.65 207.57C427.65 210.21 436.8 218.65 434.1 244.5C431.68 267.77 438.93 280.96 448.73 288.41C437.63 315.72 409.79 333.69 395.96 341.23C396.96 332.38 395.87 323.74 393.32 317.96C392.99 317.214 392.876 316.39 392.991 315.582C393.106 314.774 393.445 314.015 393.97 313.39L394.52 312.77C395.264 311.874 395.633 310.725 395.547 309.563C395.462 308.402 394.929 307.318 394.061 306.541C393.194 305.764 392.059 305.354 390.895 305.397C389.731 305.439 388.628 305.932 387.82 306.77C385.624 309.088 383.889 311.803 382.71 314.77C382.433 315.567 382.386 316.425 382.573 317.247C382.761 318.069 383.175 318.822 383.77 319.42C386.77 322.42 389.94 337.51 384.2 351.33C377.09 368.43 360.86 372.02 348.49 372.02C335.85 372.02 326.05 368.52 319.35 361.63C313.35 355.47 310.61 347.24 309.86 340.27C309.723 338.854 310.029 337.43 310.736 336.195C311.444 334.961 312.518 333.977 313.81 333.38L328.11 326.65C329.723 325.902 331.104 324.734 332.11 323.268C333.115 321.802 333.707 320.092 333.824 318.318C333.94 316.544 333.577 314.772 332.772 313.187C331.968 311.602 330.751 310.263 329.25 309.31C319.89 303.48 308.63 301.73 299.7 301.43C298.007 301.367 296.327 301.739 294.819 302.51C293.311 303.281 292.026 304.426 291.086 305.835C290.146 307.244 289.583 308.87 289.451 310.559C289.319 312.247 289.621 313.942 290.33 315.48L296.8 328.72C297.35 329.846 297.534 331.116 297.326 332.351C297.118 333.587 296.529 334.727 295.64 335.61C289.48 341.74 280.78 343.73 271.53 340.9C260.32 337.47 248.26 326.32 248.26 309.9C248.26 292.49 259.45 280.64 268.84 273.76C275.697 268.733 281.022 261.899 284.22 254.02C285.743 255.761 287.492 257.291 289.42 258.57C294.54 261.96 300.83 263.66 308.2 263.66C311.354 263.645 314.501 263.371 317.61 262.84C318.775 262.633 319.811 261.975 320.495 261.009C321.178 260.043 321.454 258.847 321.262 257.68C321.07 256.512 320.426 255.467 319.469 254.771C318.512 254.075 317.32 253.783 316.15 253.96C307.01 255.49 299.75 254.55 294.53 251.16C292.786 250.031 291.258 248.598 290.02 246.93C289.073 245.631 288.392 244.157 288.016 242.593C287.641 241.03 287.577 239.408 287.83 237.82C292.96 204.07 309.29 193.96 316.14 191.16C316.984 190.807 317.681 190.176 318.116 189.372C318.55 188.568 318.697 187.639 318.53 186.74L318.34 185.74C318.234 185.157 318 184.604 317.654 184.122C317.309 183.641 316.86 183.242 316.341 182.955C315.823 182.668 315.247 182.499 314.655 182.462C314.063 182.425 313.471 182.52 312.92 182.74C303.59 186.52 283.1 199.49 278.28 241.22C277.235 250.217 272.887 258.506 266.08 264.48C261.57 253.66 260.68 240.39 263.43 224.94C269.43 191.54 293.51 176.2 309.59 169.57C310.526 169.174 311.276 168.437 311.688 167.509C312.101 166.58 312.144 165.53 311.81 164.57L311.46 163.57C311.275 163.068 310.992 162.609 310.626 162.219C310.26 161.829 309.821 161.516 309.332 161.298C308.844 161.081 308.316 160.964 307.782 160.954C307.247 160.944 306.716 161.041 306.22 161.24C288.29 168.61 261.28 185.78 254.57 223.38C251.31 241.66 252.75 257.38 258.82 270.3C252.05 276.14 245.3 284.15 241.77 294.58C234.265 290.706 226.393 287.591 218.27 285.28C217.622 285.093 217.024 284.762 216.522 284.312C216.019 283.861 215.624 283.304 215.367 282.68C215.109 282.057 214.996 281.383 215.034 280.71C215.073 280.036 215.263 279.38 215.59 278.79C227.59 257.54 231.32 237.08 226.7 217.79C220.19 190.73 199.09 174.17 190.03 168.13C189.035 167.519 187.843 167.317 186.702 167.567C185.562 167.817 184.563 168.499 183.916 169.47C183.268 170.442 183.022 171.626 183.23 172.775C183.438 173.924 184.083 174.947 185.03 175.63C192.97 180.95 212.21 195.98 217.96 219.89C222.72 239.7 217.23 261.31 201.64 284.13C201.209 284.749 200.941 285.466 200.859 286.215C200.777 286.965 200.885 287.723 201.173 288.419C201.461 289.116 201.919 289.73 202.505 290.203C203.092 290.677 203.788 290.996 204.53 291.13C204.74 291.13 224.36 294.89 239.68 303.68C239.413 305.759 239.279 307.854 239.28 309.95C239.28 327.35 250.72 343.17 267.28 348.95C268.505 355.167 271.347 360.951 275.52 365.72C271.016 368.218 266.186 370.076 261.17 371.24C260.292 364.609 257.289 358.441 252.61 353.66C252.161 353.201 251.62 352.844 251.021 352.612C250.423 352.381 249.782 352.28 249.141 352.317C248.501 352.354 247.875 352.528 247.308 352.826C246.74 353.125 246.243 353.543 245.85 354.05C245.186 354.895 244.847 355.951 244.897 357.025C244.946 358.099 245.381 359.12 246.12 359.9C249.465 363.294 251.622 367.679 252.27 372.4C237.88 372.85 224.9 366.1 213.6 352.25C213.152 351.701 212.581 351.265 211.933 350.978C211.284 350.691 210.578 350.562 209.87 350.6C193.336 351.276 176.776 350.898 160.29 349.47C139.98 347.66 123.07 344.26 110.09 339.47C103.745 337.085 97.9727 333.392 93.1487 328.63C88.3247 323.868 84.5568 318.144 82.09 311.83C75.0206 293.517 70.7951 274.231 69.56 254.64C69.4698 253.446 68.9092 252.338 68.0015 251.558C67.0938 250.777 65.9135 250.39 64.72 250.48C63.5265 250.57 62.4178 251.131 61.6376 252.038C60.8574 252.946 60.4698 254.127 60.56 255.32C64.69 313.05 88.85 358.65 132.43 390.93C169.68 418.52 213.35 430.37 243.43 435.46C248.88 436.38 250.34 439.99 250.72 442.05C251.39 445.67 249.78 450.67 244.72 453.66C236.26 458.66 218.3 460.3 211.98 460.52C169.61 460.52 131.98 449.46 99.98 427.69C74.82 410.55 53.1799 386.81 35.6499 357.14C-7.80007 283.58 2.70999 190.28 61.21 130.26C103.48 86.89 164.91 64.89 243.78 64.89C286.92 64.89 326.44 71.81 361.25 85.46C390.616 96.8243 417.479 113.816 440.33 135.48C481.9 175.1 500.76 222.66 504.54 253.96C505.133 258.904 504.509 263.917 502.72 268.564C500.932 273.211 498.034 277.35 494.28 280.62L494.27 280.59Z" fill="currentColor"/>
<path d="M533.64 31.11L558.92 19.96C559.271 19.8048 559.585 19.5751 559.839 19.2867C560.093 18.9984 560.281 18.6583 560.39 18.29L543.33 13.23C542.479 12.9778 541.687 12.5604 540.998 12.0015C540.308 11.4427 539.736 10.7535 539.313 9.97335C538.891 9.19317 538.626 8.33734 538.535 7.4548C538.443 6.57225 538.527 5.68031 538.78 4.83001C539.032 3.97933 539.45 3.18672 540.009 2.49752C540.567 1.80832 541.257 1.23603 542.037 0.813438C542.817 0.390842 543.673 0.126225 544.555 0.0346905C545.438 -0.0568435 546.33 0.0265009 547.18 0.279991L575.91 8.80001C578.16 9.46995 580.053 11.0025 581.177 13.0633C582.301 15.1241 582.565 17.5458 581.91 19.8C581.539 21.0471 580.899 22.1977 580.036 23.1705C579.172 24.1433 578.105 24.9146 576.91 25.43L551.33 36.55C550.977 36.7018 550.662 36.9291 550.406 37.2159C550.15 37.5027 549.961 37.842 549.85 38.21L567.48 43.44C568.331 43.6922 569.123 44.1097 569.813 44.6685C570.502 45.2273 571.074 45.9165 571.497 46.6966C571.919 47.4768 572.184 48.3327 572.275 49.2152C572.367 50.0978 572.284 50.9897 572.03 51.84C571.778 52.6907 571.36 53.4833 570.802 54.1725C570.243 54.8617 569.554 55.434 568.773 55.8566C567.993 56.2792 567.137 56.5438 566.255 56.6353C565.372 56.7268 564.48 56.6435 563.63 56.39L534.7 47.81C532.435 47.1363 530.531 45.5905 529.405 43.5126C528.28 41.4347 528.026 38.995 528.7 36.73C529.067 35.4911 529.698 34.3467 530.552 33.3763C531.405 32.4059 532.458 31.6326 533.64 31.11Z" fill="currentColor"/>
<path d="M455.72 83.02L474.53 67.81C474.792 67.5982 475.004 67.3319 475.153 67.0297C475.301 66.7275 475.382 66.3966 475.39 66.06L459.81 65.69C459.034 65.6718 458.269 65.5009 457.559 65.187C456.849 64.8731 456.207 64.4223 455.672 63.8605C455.136 63.2986 454.716 62.6367 454.436 61.9125C454.156 61.1884 454.021 60.4162 454.04 59.64C454.058 58.8638 454.229 58.0988 454.543 57.3887C454.857 56.6786 455.308 56.0373 455.87 55.5015C456.431 54.9657 457.093 54.5458 457.817 54.2658C458.542 53.9859 459.314 53.8514 460.09 53.87L486.33 54.48C487.355 54.5033 488.366 54.7291 489.303 55.1443C490.241 55.5595 491.087 56.156 491.794 56.8995C492.5 57.643 493.052 58.5188 493.419 59.4765C493.786 60.4342 493.959 61.4549 493.93 62.48C493.903 63.6179 493.627 64.736 493.12 65.7554C492.614 66.7748 491.89 67.6707 491 68.38L471.92 83.6C471.657 83.8088 471.442 84.0729 471.292 84.3735C471.142 84.6741 471.059 85.004 471.05 85.34L487.15 85.72C487.926 85.7381 488.691 85.9091 489.401 86.223C490.111 86.5369 490.753 86.9877 491.289 87.5495C491.824 88.1113 492.244 88.7732 492.524 89.4974C492.804 90.2216 492.939 90.9938 492.92 91.77C492.902 92.5462 492.731 93.3111 492.417 94.0212C492.103 94.7313 491.652 95.3726 491.091 95.9085C490.529 96.4443 489.867 96.8642 489.143 97.1441C488.418 97.4241 487.646 97.5586 486.87 97.54L460.46 96.91C459.434 96.8866 458.422 96.661 457.484 96.246C456.545 95.8311 455.697 95.2349 454.989 94.4917C454.282 93.7485 453.727 92.8729 453.358 91.915C452.99 90.9572 452.813 89.936 452.84 88.91C452.864 87.778 453.134 86.6648 453.631 85.6477C454.128 84.6306 454.841 83.7339 455.72 83.02Z" fill="currentColor"/>
<path d="M516.07 131.55L537.53 123.36C537.828 123.245 538.098 123.066 538.321 122.837C538.544 122.607 538.714 122.332 538.82 122.03L524.82 117.1C523.417 116.604 522.267 115.572 521.624 114.229C520.981 112.887 520.897 111.344 521.39 109.94C521.886 108.537 522.918 107.387 524.261 106.744C525.603 106.101 527.146 106.017 528.55 106.51L552.05 114.8C552.965 115.123 553.808 115.623 554.53 116.272C555.252 116.92 555.84 117.705 556.259 118.581C556.677 119.456 556.92 120.406 556.971 121.375C557.023 122.345 556.883 123.315 556.56 124.23C556.2 125.248 555.622 126.175 554.865 126.946C554.108 127.716 553.192 128.312 552.18 128.69L530.47 136.81C530.17 136.922 529.898 137.098 529.674 137.326C529.449 137.554 529.277 137.828 529.17 138.13L543.59 143.22C544.993 143.716 546.143 144.748 546.786 146.091C547.429 147.433 547.513 148.976 547.02 150.38C546.524 151.783 545.492 152.933 544.149 153.576C542.807 154.219 541.264 154.303 539.86 153.81L516.25 145.48C514.398 144.826 512.881 143.463 512.034 141.691C511.186 139.919 511.077 137.883 511.73 136.03C512.084 135.013 512.656 134.085 513.406 133.311C514.155 132.537 515.064 131.936 516.07 131.55Z" fill="currentColor"/>
</g>
<defs>
<clipPath id="clip0">
<rect width="582.26" height="469.53" fill="white"/>
</clipPath>
</defs>
</svg>
