<svg width="136" height="123" viewBox="0 0 136 123" fill="none" xmlns="http://www.w3.org/2000/svg">
    <path d="M97.1085 71.1877C96.4058 70.7329 95.8421 70.0932 95.4793 69.3389C95.3724 69.1106 95.1935 68.9238 94.97 68.8071C94.7465 68.6904 94.4909 68.6503 94.2425 68.693H94.1745C94.0014 68.7244 93.838 68.7953 93.6968 68.9002C93.5557 69.0051 93.4406 69.1412 93.3607 69.2978C93.2807 69.4545 93.238 69.6274 93.2358 69.8033C93.2336 69.9791 93.2721 70.1531 93.3481 70.3117C93.8853 71.4497 94.7236 72.4191 95.7722 73.1149C97.1111 74.0014 98.7559 74.446 100.683 74.446C101.52 74.4413 102.356 74.3669 103.18 74.2237C103.334 74.198 103.481 74.1412 103.612 74.0567C103.743 73.9721 103.856 73.8616 103.942 73.7321C104.029 73.6025 104.088 73.4565 104.116 73.3032C104.145 73.1498 104.141 72.9923 104.106 72.8404L104.091 72.7698C104.026 72.4875 103.856 72.2405 103.615 72.0792C103.375 71.9178 103.082 71.8543 102.796 71.9016C100.39 72.3226 98.4813 72.0794 97.1085 71.1877Z" fill="currentColor"/>
    <path d="M135.272 66.1252C134.226 57.535 129.092 44.5123 117.769 33.7229C111.572 27.8541 104.288 23.2519 96.3266 20.1747C86.9492 16.498 76.3272 14.6335 64.7506 14.6335C43.4673 14.6335 26.8334 20.6245 15.3275 32.439C-0.71023 48.8924 -3.59717 74.4434 8.30362 94.5945C15.8871 107.455 30.4185 122.771 56.4612 122.771H56.4821H56.503C56.7645 122.771 63.0065 122.536 66.1967 120.658C68.1972 119.481 69.2824 117.277 68.8928 115.167C68.545 113.276 67.078 111.89 65.0645 111.55C57.4522 110.263 46.4118 107.272 37.0449 100.334C33.2031 97.5201 29.8466 94.0974 27.108 90.2013C36.1637 94.3618 50.6951 94.2206 54.8869 94.082C55.0566 94.0773 55.2253 94.1098 55.3811 94.1771C55.5369 94.2444 55.6761 94.3449 55.7891 94.4716C59.5285 98.6111 63.4693 99.7434 66.6622 99.7434C67.4271 99.7424 68.1906 99.6786 68.9451 99.5525C71.0638 99.1841 73.0917 98.4108 74.9177 97.2749C77.1221 98.7863 80.0352 99.5499 83.6204 99.5499C85.1666 99.5395 86.7101 99.4162 88.2384 99.1812C89.5177 99.4823 90.8284 99.6298 92.1426 99.6205C94.0489 99.6205 96.8496 99.3093 99.3312 97.8318C100.877 98.1273 102.501 99.6414 104.213 101.231C106.465 103.323 109.25 105.938 112.689 105.938C114.626 105.938 116.771 105.115 119.145 102.913C121.582 100.653 122.68 98.1221 122.414 95.3894C122.401 95.2482 122.377 95.107 122.356 94.9684C124.5 94.9684 126.629 93.9617 128.82 91.9298C131.012 89.898 132.144 87.5968 132.126 85.1309C132.105 82.0452 130.274 79.2498 128.308 77.1316C130.563 76.3763 132.489 74.8659 133.759 72.8554C135.03 70.8449 135.568 68.4576 135.282 66.0964L135.272 66.1252ZM75.7048 94.9554C74.6864 94.1349 73.9144 93.0489 73.4742 91.8174C74.9636 91.9375 76.4579 91.6567 77.802 91.0041C78.0352 90.8943 78.2889 90.835 78.5466 90.83C78.8042 90.825 79.0601 90.8745 79.2973 90.9752C79.5345 91.0759 79.7478 91.2256 79.9232 91.4145C80.0985 91.6033 80.2321 91.827 80.315 92.071C80.8328 93.6209 81.6895 95.0359 82.8228 96.2132C83.176 96.5752 83.5553 96.9108 83.9577 97.2173C80.383 97.2644 77.6164 96.5139 75.7048 94.9554ZM78.7068 81.5562C78.6924 81.4465 78.7014 81.3349 78.7332 81.2289C78.7649 81.1229 78.8188 81.0248 78.8911 80.9411C78.9635 80.8574 79.0527 80.7899 79.153 80.7432C79.2533 80.6964 79.3624 80.6713 79.473 80.6697C81.5635 80.6428 83.6228 81.1783 85.4352 82.2204C85.5238 82.2731 85.6011 82.3428 85.6628 82.4254C85.7245 82.508 85.7693 82.6019 85.7947 82.7018C85.82 82.8018 85.8255 82.9057 85.8107 83.0077C85.7959 83.1097 85.7611 83.2079 85.7084 83.2965C85.6557 83.3851 85.5861 83.4624 85.5035 83.5241C85.4209 83.5858 85.3269 83.6306 85.227 83.656C85.1271 83.6813 85.0231 83.6868 84.9211 83.672C84.8191 83.6572 84.721 83.6224 84.6324 83.5697C83.065 82.6812 81.2903 82.2238 79.4887 82.2439C79.2968 82.2448 79.1113 82.1752 78.9672 82.0485C78.8231 81.9217 78.7305 81.7466 78.7068 81.5562ZM119.691 98.2424C119.302 97.0726 118.653 96.006 117.793 95.1227C117.577 94.8977 117.28 94.7678 116.968 94.7617C116.655 94.7555 116.354 94.8737 116.129 95.09C115.904 95.3064 115.774 95.6033 115.767 95.9155C115.761 96.2276 115.879 96.5294 116.096 96.7545C117.076 97.7463 117.66 99.0622 117.738 100.455C117.744 100.608 117.717 100.761 117.66 100.904C117.602 101.046 117.515 101.175 117.403 101.281C116.92 101.769 116.382 102.2 115.8 102.565C115.526 100.948 114.767 99.453 113.625 98.2764C113.508 98.1527 113.366 98.0555 113.209 97.9916C113.052 97.9277 112.882 97.8984 112.712 97.9059C112.543 97.9133 112.376 97.9573 112.225 98.0347C112.074 98.1122 111.941 98.2214 111.836 98.3548C111.662 98.5778 111.575 98.8559 111.589 99.1383C111.603 99.4206 111.719 99.6883 111.914 99.8925C112.741 100.739 113.288 101.817 113.483 102.983C113.493 103.052 113.49 103.122 113.472 103.189C113.455 103.257 113.424 103.32 113.382 103.375C113.34 103.43 113.287 103.477 113.227 103.511C113.167 103.546 113.1 103.568 113.031 103.577C112.895 103.589 112.759 103.595 112.623 103.595C110.155 103.595 108.076 101.655 105.801 99.5316C104.36 98.1875 102.971 96.8957 101.468 96.1321C102.394 95.1564 103.129 94.0158 103.635 92.7692C103.709 92.594 103.771 92.4162 103.837 92.2462C107.118 90.6848 110.18 88.7016 112.947 86.3468C114.812 87.6543 119.639 91.4199 120.052 95.6379C120.145 96.5225 120.021 97.4163 119.691 98.2424ZM129.762 85.1675C129.763 85.8772 129.628 86.5805 129.362 87.2385C128.972 86.073 128.325 85.0102 127.468 84.1293C127.252 83.9043 126.955 83.7744 126.643 83.7683C126.331 83.7621 126.029 83.8803 125.804 84.0966C125.579 84.313 125.449 84.6099 125.443 84.9221C125.437 85.2342 125.555 85.536 125.771 85.7611C126.664 86.6683 127.231 87.8451 127.385 89.1083C127.414 89.3595 127.385 89.6142 127.3 89.8523C127.215 90.0905 127.075 90.3057 126.893 90.4811C126.474 90.9102 125.997 91.2789 125.476 91.5768C125.202 89.9592 124.443 88.4629 123.3 87.2856C123.194 87.1731 123.067 87.0827 122.926 87.0194C122.785 86.9561 122.632 86.9212 122.478 86.9167C122.323 86.9122 122.169 86.9382 122.025 86.9932C121.88 87.0482 121.748 87.1311 121.636 87.2372C121.523 87.3434 121.433 87.4706 121.369 87.6116C121.306 87.7527 121.271 87.9049 121.267 88.0594C121.262 88.214 121.288 88.3679 121.343 88.5124C121.398 88.657 121.481 88.7892 121.587 88.9017C122.384 89.7149 122.924 90.7443 123.141 91.8618C123.158 91.9505 123.157 92.042 123.136 92.1301C123.116 92.2182 123.076 92.3008 123.021 92.3724C122.966 92.4441 122.896 92.503 122.816 92.5453C122.736 92.5876 122.648 92.6122 122.557 92.6176C122.252 92.6332 121.945 92.6175 121.642 92.5705C120.073 88.9618 116.608 86.0749 114.723 84.7046C116.967 82.4871 119.038 79.7963 120.387 76.6296C121.055 76.9296 121.747 77.1728 122.455 77.3565C123.447 77.6145 124.471 77.722 125.494 77.6756C127.502 79.5583 129.743 82.2936 129.764 85.1753L129.762 85.1675ZM130.251 73.3739C129.286 74.2315 128.123 74.8362 126.866 75.1338C125.61 75.4314 124.299 75.4125 123.052 75.0789C118.251 73.8263 116.224 70.2621 116.857 64.1822C117.338 59.572 116.58 56.0758 114.608 53.806C114.05 53.1539 113.376 52.6104 112.621 52.203C112.484 52.1309 112.335 52.0863 112.181 52.0719C112.028 52.0574 111.873 52.0734 111.726 52.1188C111.578 52.1642 111.441 52.2382 111.322 52.3365C111.204 52.4349 111.105 52.5557 111.033 52.692C110.961 52.8283 110.917 52.9775 110.902 53.1311C110.888 53.2846 110.904 53.4395 110.949 53.5869C110.994 53.7343 111.068 53.8713 111.167 53.9901C111.265 54.1089 111.386 54.2072 111.522 54.2793C112.83 54.9697 115.222 57.1767 114.516 63.9364C113.884 70.0215 115.779 73.4707 118.342 75.4188C115.439 82.5603 108.159 87.2595 104.543 89.2312C104.804 86.9169 104.519 84.6576 103.853 83.1461C103.766 82.951 103.736 82.7355 103.766 82.5242C103.796 82.313 103.885 82.1144 104.022 81.951L104.166 81.7889C104.361 81.5547 104.457 81.2541 104.435 80.9503C104.413 80.6466 104.273 80.3633 104.046 80.1601C103.819 79.9569 103.523 79.8496 103.218 79.8608C102.914 79.8719 102.626 80.0007 102.414 80.2199C101.84 80.826 101.386 81.536 101.078 82.3119C101.006 82.5202 100.993 82.7446 101.042 82.9596C101.091 83.1746 101.2 83.3715 101.355 83.5279C102.14 84.3124 102.969 88.2584 101.468 91.8723C99.6084 96.3439 95.3643 97.2827 92.1295 97.2827C88.8242 97.2827 86.2615 96.3675 84.5095 94.5657C82.9405 92.9549 82.224 90.8028 82.0279 88.9801C81.9919 88.6098 82.072 88.2374 82.257 87.9146C82.4421 87.5918 82.723 87.3345 83.0608 87.1784L86.8002 85.4185C87.2219 85.2229 87.5832 84.9174 87.8461 84.5341C88.109 84.1507 88.2638 83.7036 88.2943 83.2398C88.3248 82.7759 88.2299 82.3124 88.0194 81.8979C87.8089 81.4834 87.4908 81.1332 87.0983 80.8841C84.6507 79.3596 81.7062 78.902 79.371 78.8235C78.9284 78.807 78.489 78.9042 78.0946 79.1059C77.7003 79.3075 77.3642 79.6069 77.1184 79.9753C76.8727 80.3438 76.7255 80.7691 76.6909 81.2107C76.6563 81.6523 76.7355 82.0953 76.9208 82.4976L78.6127 85.9598C78.7566 86.2542 78.8047 86.5863 78.7503 86.9094C78.6959 87.2325 78.5417 87.5305 78.3094 87.7615C76.6985 89.3645 74.4235 89.8849 72.0046 89.1449C69.0732 88.2479 65.9196 85.3322 65.9196 81.0384C65.9196 76.4857 68.8457 73.387 71.3012 71.5879C73.0944 70.2733 74.4869 68.4861 75.323 66.4259C75.7213 66.8812 76.1786 67.2814 76.6828 67.6157C78.0217 68.5022 79.6665 68.9467 81.5938 68.9467C82.4185 68.9428 83.2415 68.8711 84.0545 68.7323C84.3591 68.6781 84.6301 68.5061 84.8088 68.2535C84.9876 68.001 85.0597 67.6882 85.0095 67.3829C84.9593 67.0775 84.7908 66.8043 84.5406 66.6223C84.2904 66.4402 83.9786 66.364 83.6727 66.4102C81.2826 66.8103 79.3841 66.5645 78.0191 65.678C77.563 65.3828 77.1636 65.0081 76.8397 64.5719C76.5921 64.2321 76.4141 63.8467 76.3158 63.4379C76.2175 63.029 76.2009 62.6049 76.267 62.1896C77.6085 53.3641 81.8788 50.7203 83.6701 49.9881C83.8907 49.8959 84.073 49.7309 84.1867 49.5206C84.3004 49.3103 84.3386 49.0674 84.295 48.8323L84.2454 48.5708C84.2177 48.4182 84.1564 48.2738 84.066 48.1478C83.9756 48.0218 83.8584 47.9175 83.7227 47.8424C83.5871 47.7674 83.4364 47.7234 83.2817 47.7137C83.127 47.704 82.972 47.7288 82.828 47.7863C80.3882 48.7748 75.0301 52.1664 73.7697 63.0787C73.4964 65.4314 72.3596 67.5989 70.5795 69.1612C69.4001 66.3318 69.1674 62.8617 69.8865 58.8215C71.4555 50.0875 77.7524 46.0761 81.9572 44.3424C82.202 44.2389 82.3982 44.0462 82.506 43.8034C82.6138 43.5605 82.6252 43.2858 82.5378 43.0349L82.4463 42.7734C82.3979 42.6422 82.3237 42.522 82.2282 42.42C82.1326 42.318 82.0175 42.2362 81.8898 42.1794C81.7621 42.1226 81.6242 42.0919 81.4844 42.0893C81.3447 42.0867 81.2058 42.1121 81.076 42.1641C76.3873 44.0913 69.3243 48.5813 67.5696 58.4136C66.7171 63.1938 67.0937 67.3045 68.681 70.6831C66.9106 72.2102 65.1455 74.3048 64.2224 77.0323C62.26 76.0193 60.2014 75.2046 58.0772 74.6003C57.9077 74.5513 57.7515 74.4648 57.6201 74.3471C57.4886 74.2294 57.3854 74.0836 57.3181 73.9206C57.2508 73.7575 57.221 73.5813 57.2311 73.4052C57.2412 73.2291 57.2909 73.0575 57.3764 72.9032C60.5144 67.3464 61.4898 61.9961 60.2817 56.9518C58.5793 49.8757 53.0617 45.5453 50.6925 43.9658C50.4324 43.8059 50.1205 43.7532 49.8224 43.8185C49.5242 43.8839 49.263 44.0623 49.0936 44.3163C48.9243 44.5703 48.86 44.8801 48.9144 45.1805C48.9687 45.4809 49.1374 45.7485 49.385 45.927C51.4613 47.3182 56.4925 51.2485 57.9962 57.5009C59.2409 62.6812 57.8053 68.3322 53.7285 74.2996C53.6158 74.4614 53.5456 74.6489 53.5243 74.8448C53.5029 75.0408 53.5312 75.2391 53.6064 75.4213C53.6816 75.6035 53.8014 75.7639 53.9548 75.8878C54.1082 76.0116 54.2902 76.0949 54.4842 76.1301C54.5391 76.1301 59.6697 77.1133 63.6759 79.4119C63.6061 79.9556 63.5711 80.5033 63.5713 81.0515C63.5713 85.6016 66.5628 89.7385 70.8932 91.2499C71.2136 92.8757 71.9568 94.3883 73.048 95.6353C71.8703 96.2884 70.6073 96.7742 69.2955 97.0787C69.0659 95.3447 68.2805 93.7317 67.0571 92.4816C66.9398 92.3616 66.7981 92.2682 66.6416 92.2076C66.4852 92.147 66.3175 92.1207 66.15 92.1303C65.9825 92.14 65.819 92.1854 65.6705 92.2636C65.5221 92.3418 65.3921 92.4509 65.2894 92.5836C65.1156 92.8046 65.0271 93.0807 65.0401 93.3616C65.053 93.6424 65.1666 93.9092 65.36 94.1133C66.2346 95.0009 66.7987 96.1475 66.9681 97.3821C63.2052 97.4997 59.811 95.7346 56.856 92.1129C56.7389 91.9692 56.5895 91.8553 56.42 91.7803C56.2505 91.7053 56.0657 91.6714 55.8806 91.6814C51.5571 91.8581 47.2266 91.7594 42.9155 91.3859C37.6045 90.9126 33.1826 90.0235 29.7883 88.7709C28.1291 88.1473 26.6197 87.1814 25.3582 85.9362C24.0967 84.6909 23.1115 83.1941 22.4664 81.5431C20.6178 76.7544 19.5128 71.711 19.1898 66.588C19.1662 66.2759 19.0196 65.986 18.7823 65.782C18.5449 65.578 18.2362 65.4766 17.9242 65.5002C17.6121 65.5238 17.3221 65.6704 17.1181 65.9077C16.9141 66.1451 16.8127 66.4538 16.8363 66.7659C17.9163 81.8621 24.2341 93.7865 35.6302 102.228C45.371 109.442 56.7906 112.541 64.6565 113.872C66.0817 114.113 66.4635 115.057 66.5628 115.595C66.7381 116.542 66.317 117.85 64.9939 118.631C62.7816 119.939 58.0851 120.368 56.4324 120.425C45.3527 120.425 35.5125 117.533 27.1446 111.84C20.5653 107.358 14.9064 101.15 10.3224 93.3916C-1.03972 74.1558 1.70864 49.758 17.0063 34.0629C28.0598 22.7217 44.1237 16.9687 64.748 16.9687C76.0291 16.9687 86.3635 18.7783 95.4663 22.3477C103.145 25.3195 110.17 29.7628 116.146 35.4279C127.016 45.7885 131.948 58.2253 132.936 66.4102C133.092 67.7029 132.928 69.014 132.461 70.2291C131.993 71.4443 131.235 72.5266 130.253 73.3818L130.251 73.3739Z" fill="currentColor"/>
</svg>
