<svg width="24" height="24" viewBox="0 0 24 24" fill="none" xmlns="http://www.w3.org/2000/svg">
<path fill-rule="evenodd" clip-rule="evenodd" d="M18.6247 3.21031L20.7895 5.3751C20.8153 5.25198 20.8284 5.12622 20.8284 4.99981C20.8284 4.7597 20.7812 4.52194 20.6893 4.30011C20.5974 4.07827 20.4627 3.87671 20.2929 3.70692C20.1231 3.53714 19.9216 3.40245 19.6997 3.31057C19.4779 3.21868 19.2401 3.17139 19 3.17139C18.8736 3.17139 18.7479 3.18449 18.6247 3.21031ZM19.5858 6.99981L17 4.41403L4.91424 16.4998L7.50002 19.0856L19.5858 6.99981ZM5.57444 19.9884L4.01139 18.4254L3.42524 20.5746L5.57444 19.9884ZM17.5349 1.46281C17.9994 1.27041 18.4973 1.17139 19 1.17139C19.5028 1.17139 20.0006 1.27041 20.4651 1.46281C20.9296 1.6552 21.3516 1.9372 21.7071 2.29271C22.0626 2.64821 22.3446 3.07025 22.537 3.53474C22.7294 3.99923 22.8284 4.49706 22.8284 4.99981C22.8284 5.50257 22.7294 6.0004 22.537 6.46489C22.3446 6.92938 22.0626 7.35142 21.7071 7.70692L8.20713 21.2069C8.08407 21.33 7.93104 21.4188 7.76314 21.4646L2.26314 22.9646C1.91693 23.059 1.54667 22.9607 1.29292 22.7069C1.03917 22.4532 0.940838 22.0829 1.03526 21.7367L2.53526 16.2367C2.58105 16.0688 2.66986 15.9158 2.79292 15.7927L16.2929 2.29271C16.6484 1.9372 17.0705 1.6552 17.5349 1.46281Z" fill="currentColor"/>
<path d="M1 1L23 23" stroke="var(--new-signal-03)" stroke-width="2" stroke-linecap="round" stroke-linejoin="round"/>
</svg>
