<svg width="24" height="24" viewBox="0 0 24 24" fill="none" xmlns="http://www.w3.org/2000/svg">
<path fill-rule="evenodd" clip-rule="evenodd" d="M19.8914 2.60039C19.4913 2.60039 19.1076 2.75932 18.8247 3.04223L9.49947 12.3674L8.78835 15.2119L11.6329 14.5008L20.9581 5.17561C21.241 4.89271 21.3999 4.50901 21.3999 4.10892C21.3999 3.70883 21.241 3.32513 20.9581 3.04223C20.6752 2.75932 20.2915 2.60039 19.8914 2.60039ZM17.9762 2.1937C18.4841 1.68575 19.173 1.40039 19.8914 1.40039C20.6097 1.40039 21.2986 1.68575 21.8066 2.1937C22.3145 2.70165 22.5999 3.39057 22.5999 4.10892C22.5999 4.82727 22.3145 5.51619 21.8066 6.02414L12.3639 15.4669C12.287 15.5438 12.1906 15.5983 12.0851 15.6247L8.10925 16.6187C7.90478 16.6698 7.68849 16.6099 7.53946 16.4608C7.39043 16.3118 7.33052 16.0955 7.38164 15.891L8.37561 11.9152C8.40199 11.8097 8.45654 11.7133 8.53343 11.6364L17.9762 2.1937ZM2.15789 4.26691C2.64323 3.78158 3.30148 3.50892 3.98784 3.50892H10.9456C11.277 3.50892 11.5456 3.77755 11.5456 4.10892C11.5456 4.44029 11.277 4.70892 10.9456 4.70892H3.98784C3.61974 4.70892 3.26671 4.85515 3.00642 5.11544C2.74613 5.37573 2.5999 5.72876 2.5999 6.09686V20.0125C2.5999 20.3806 2.74613 20.7336 3.00642 20.9939C3.26671 21.2542 3.61974 21.4004 3.98784 21.4004H17.9034C18.2715 21.4004 18.6246 21.2542 18.8849 20.9939C19.1451 20.7336 19.2914 20.3806 19.2914 20.0125V13.0547C19.2914 12.7233 19.56 12.4547 19.8914 12.4547C20.2227 12.4547 20.4914 12.7233 20.4914 13.0547V20.0125C20.4914 20.6988 20.2187 21.3571 19.7334 21.8424C19.248 22.3277 18.5898 22.6004 17.9034 22.6004H3.98784C3.30148 22.6004 2.64323 22.3277 2.15789 21.8424C1.67256 21.3571 1.3999 20.6988 1.3999 20.0125V6.09686C1.3999 5.4105 1.67256 4.75225 2.15789 4.26691Z" fill="currentColor"/>
</svg>
