<svg version="1.1" xmlns="http://www.w3.org/2000/svg" xmlns:xlink="http://www.w3.org/1999/xlink" viewBox="0 0 171 171"><g fill="none" fill-rule="nonzero" stroke="none" stroke-width="1" stroke-linecap="butt" stroke-linejoin="miter" stroke-miterlimit="10" stroke-dasharray="" stroke-dashoffset="0" font-family="none" font-weight="none" font-size="none" text-anchor="none" style="mix-blend-mode: normal"><path d="M0,171.99809v-171.99809h171.99809v171.99809z" fill="none"></path><g style="fill:currentColor"><path d="M84.49805,21.375c-18.37846,0 -35.47379,6.10455 -49.41577,16.43481c-2.04637,1.51619 -3.12828,4.00903 -2.83811,6.5393c0.29017,2.53027 1.90834,4.71346 4.24482,5.72703c2.33648,1.01356 5.03623,0.70347 7.08206,-0.81344c11.63677,-8.62223 25.68971,-13.6377 40.927,-13.6377c15.2373,0 29.29781,5.00884 40.927,13.62378c2.04584,1.51668 4.74545,1.82661 7.08179,0.81304c2.33634,-1.01357 3.95441,-3.19664 4.24463,-5.72677c0.29022,-2.53013 -0.7915,-5.02288 -2.83765,-6.53915c-13.9353,-10.32331 -31.03732,-16.4209 -49.41577,-16.4209zM156.62476,68.6477c-2.60519,0.06101 -4.9693,1.53924 -6.16479,3.85473c-4.04894,7.5726 -9.16691,14.22341 -14.95972,19.99732c-0.54171,0.39852 -1.02429,0.87172 -1.43335,1.40552c-6.5868,6.24206 -14.07802,11.19013 -22.25171,14.61181c-0.72997,0.16316 -1.4297,0.44023 -2.07348,0.82104c-7.3795,2.81452 -15.19785,4.5321 -23.37891,4.63404c-0.32273,-0.04544 -0.64821,-0.06869 -0.97412,-0.06958c-0.27452,0.00272 -0.54866,0.02131 -0.82104,0.05567c-26.95959,-0.37388 -50.64521,-16.57758 -63.93018,-41.30273c-1.86376,-3.46621 -6.18455,-4.76525 -9.65075,-2.90149c-3.46621,1.86376 -4.76525,6.18455 -2.90149,9.65075c3.53189,6.57333 7.75429,12.64912 12.53833,18.14648l-14.36133,14.36133c-1.86126,1.78709 -2.611,4.44076 -1.96007,6.93761c0.65093,2.49685 2.60081,4.44673 5.09766,5.09766c2.49685,0.65093 5.15052,-0.09881 6.93761,-1.96007l14.43091,-14.43091c4.97794,4.22726 10.34689,7.93529 16.073,10.96582l-9.78296,19.19018c-1.24193,2.27647 -1.14911,5.0479 0.24236,7.23617c1.39147,2.18827 3.86188,3.44785 6.45019,3.28875c2.58832,-0.1591 4.88586,-1.71176 5.99885,-4.05397l10.22827,-20.06689c5.90129,1.93809 12.05187,3.2442 18.39697,3.79907v21.70898c-0.03634,2.56953 1.31367,4.95958 3.53309,6.25495c2.21942,1.29537 4.96439,1.29537 7.18381,0c2.21942,-1.29537 3.56943,-3.68542 3.53309,-6.25495v-21.7229c5.96779,-0.5197 11.75976,-1.70625 17.33936,-3.45117l10.04736,19.73291c1.7869,3.50848 6.07966,4.90409 9.58813,3.11719c3.50848,-1.7869 4.90409,-6.07966 3.11719,-9.58813l-9.51855,-18.68921c5.83153,-2.98503 11.25245,-6.71256 16.32348,-10.93799l13.9021,13.9021c1.78709,1.86124 4.44075,2.61095 6.93759,1.96002c2.49683,-0.65093 4.4467,-2.6008 5.09764,-5.09764c0.65093,-2.49683 -0.09879,-5.15049 -1.96002,-6.93759l-13.67944,-13.69336c5.06605,-5.72301 9.5267,-12.08749 13.22021,-18.99536c1.23837,-2.23563 1.18464,-4.96324 -0.14081,-7.14836c-1.32545,-2.18512 -3.71961,-3.49308 -6.27447,-3.42781z"></path></g></g></svg>