<svg width="20" height="20" viewBox="0 0 20 20" fill="none" xmlns="http://www.w3.org/2000/svg">
    <path d="M8.40911 4.12129C8.93058 3.99923 9.46446 3.93821 10 3.93947C15.3031 3.93947 18.3334 10.0001 18.3334 10.0001C17.8735 10.8604 17.3251 11.6703 16.697 12.4167M11.6061 11.6061C11.398 11.8294 11.1471 12.0085 10.8683 12.1327C10.5895 12.257 10.2886 12.3238 9.98342 12.3291C9.67826 12.3345 9.37514 12.2784 9.09215 12.1641C8.80916 12.0498 8.55208 11.8796 8.33627 11.6638C8.12045 11.448 7.95032 11.1909 7.83601 10.9079C7.72171 10.625 7.66557 10.3218 7.67096 10.0167C7.67634 9.71152 7.74313 9.41057 7.86735 9.13178C7.99157 8.853 8.17067 8.60208 8.39396 8.39402M14.5 14.5001C13.205 15.4872 11.6281 16.0341 10 16.0607C4.69699 16.0607 1.66669 10.0001 1.66669 10.0001C2.60903 8.24394 3.91603 6.70963 5.50002 5.50008L14.5 14.5001Z" stroke="#525B67" stroke-width="1.81818" stroke-linecap="round" stroke-linejoin="round"/>
    <path d="M1.66669 1.66699L18.3334 18.3337" stroke="#525B67" stroke-width="1.81818" stroke-linecap="round" stroke-linejoin="round"/>
    <path fill-rule="evenodd" clip-rule="evenodd" d="M1.0562 1.05675C1.35451 0.758428 1.83818 0.758428 2.1365 1.05675L5.99213 4.91237C5.99536 4.9155 5.99858 4.91866 6.00178 4.92186L8.91682 7.8369C8.9186 7.83867 8.92039 7.84045 8.92216 7.84224L12.1564 11.0765C12.1582 11.0783 12.16 11.08 12.1617 11.0818L15.0768 13.9969C15.08 14 15.0831 14.0033 15.0863 14.0065L18.9421 17.8623C19.2404 18.1606 19.2404 18.6443 18.9421 18.9426C18.6437 19.2409 18.1601 19.2409 17.8618 18.9426L14.4495 15.5304C13.1281 16.3807 11.5916 16.8486 10.0116 16.8744L9.99913 16.8745C7.02033 16.8745 4.73171 15.1738 3.23524 13.5775C2.48004 12.772 1.90348 11.9693 1.51563 11.3688C1.32123 11.0678 1.17299 10.8156 1.0723 10.6366C1.02192 10.547 0.983357 10.4756 0.956784 10.4254C0.943495 10.4003 0.933197 10.3805 0.925911 10.3663L0.917243 10.3493L0.914606 10.3441L0.913713 10.3423C0.913573 10.3421 0.913104 10.3411 1.59635 9.99951L0.913104 10.3411C0.802103 10.1191 0.805883 9.85703 0.923242 9.63832C1.78757 8.02756 2.94051 6.59237 4.32218 5.40303L1.0562 2.13705C0.757879 1.83873 0.757879 1.35506 1.0562 1.05675ZM5.40585 6.4867C4.23195 7.47978 3.23819 8.66897 2.46915 10.0019C2.55247 10.1458 2.66268 10.3288 2.79903 10.5399C3.15119 11.0852 3.67272 11.8104 4.34981 12.5326C5.71671 13.9906 7.62731 15.3443 9.99284 15.3467C11.1734 15.3264 12.3241 15.0048 13.3383 14.4191L11.5648 12.6457C11.4436 12.7216 11.3169 12.7892 11.1856 12.8477C10.8107 13.0147 10.4061 13.1045 9.99586 13.1118C9.58559 13.119 9.17807 13.0435 8.7976 12.8898C8.41713 12.7362 8.07151 12.5074 7.78136 12.2173C7.49121 11.9271 7.26247 11.5815 7.10879 11.201C6.95511 10.8206 6.87964 10.413 6.88688 10.0028C6.89412 9.5925 6.98392 9.18789 7.15092 8.81307C7.20943 8.68177 7.27699 8.55507 7.35298 8.43383L5.40585 6.4867ZM8.49261 9.57346C8.44362 9.72042 8.41716 9.87426 8.41442 10.0297C8.4108 10.2349 8.44854 10.4386 8.52538 10.6289C8.60222 10.8191 8.71658 10.9919 8.86166 11.137C9.00673 11.282 9.17954 11.3964 9.36978 11.4733C9.56002 11.5501 9.76378 11.5878 9.96891 11.5842C10.1244 11.5815 10.2782 11.555 10.4252 11.506L8.49261 9.57346ZM9.99733 4.65228C9.51652 4.65115 9.03721 4.70593 8.56906 4.81551C8.15828 4.91167 7.74733 4.65661 7.65117 4.24583C7.55502 3.83505 7.81008 3.4241 8.22086 3.32794C8.80402 3.19144 9.40106 3.12317 9.99998 3.12451C10.0003 3.12451 10.0006 3.12451 10.0009 3.12451L9.99913 3.8884V3.12451C9.99941 3.12451 9.99969 3.12451 9.99998 3.12451C12.9784 3.12483 15.2667 4.82541 16.763 6.4215C17.5182 7.22705 18.0948 8.02968 18.4826 8.63022C18.677 8.93122 18.8253 9.1834 18.926 9.36242C18.9763 9.45197 19.0149 9.52337 19.0415 9.57359C19.0548 9.59871 19.0651 9.61854 19.0723 9.63271L19.081 9.64968L19.0836 9.65489L19.0845 9.65667C19.0847 9.65695 19.0851 9.65789 18.4019 9.99951L17.7282 9.6394C17.6638 9.75992 17.5976 9.8794 17.5295 9.9978C17.4461 9.85379 17.3358 9.67054 17.1992 9.45907C16.8471 8.91378 16.3255 8.18864 15.6484 7.46641C14.2803 6.00709 12.3676 4.65229 9.99913 4.65229L9.99733 4.65228ZM17.5295 9.9978C17.1343 10.6856 16.6785 11.3371 16.1674 11.9445C15.8958 12.2673 15.9373 12.7492 16.2601 13.0208C16.5829 13.2924 17.0648 13.2509 17.3364 12.9281C18.0039 12.1348 18.5868 11.274 19.0756 10.3596C19.1924 10.1411 19.196 9.8795 19.0851 9.65789L18.4019 9.99951C17.7187 10.3411 17.7188 10.3413 17.7189 10.3415L17.7183 10.3405L17.7136 10.3312C17.709 10.3223 17.7015 10.3078 17.6911 10.2882C17.6703 10.2489 17.638 10.189 17.5944 10.1114C17.575 10.0769 17.5534 10.039 17.5295 9.9978Z" fill="currentColor"/>
</svg>
