<svg width="20" height="20" viewBox="0 0 20 20" fill="none" xmlns="http://www.w3.org/2000/svg">
    <path fill-rule="evenodd" clip-rule="evenodd" d="M2.46861 10.2081C2.5521 10.3523 2.66278 10.5362 2.79989 10.7485C3.15206 11.2938 3.6736 12.0189 4.35069 12.7412C5.71881 14.2005 7.6316 15.5553 10 15.5553C12.3685 15.5553 14.2813 14.2005 15.6494 12.7412C16.3265 12.0189 16.848 11.2938 17.2002 10.7485C17.3373 10.5362 17.448 10.3523 17.5315 10.2081C17.448 10.0638 17.3373 9.87992 17.2002 9.66762C16.848 9.12232 16.3265 8.39717 15.6494 7.67494C14.2813 6.21561 12.3685 4.8608 10 4.8608C7.6316 4.8608 5.71881 6.21561 4.35069 7.67494C3.6736 8.39717 3.15206 9.12232 2.79989 9.66762C2.66278 9.87992 2.5521 10.0638 2.46861 10.2081ZM18.4029 10.2081C19.0861 9.86643 19.086 9.86618 19.0859 9.8659L19.0846 9.86344L19.082 9.85822L19.0733 9.84125C19.066 9.82708 19.0557 9.80725 19.0425 9.78214C19.0159 9.73192 18.9773 9.66052 18.9269 9.57096C18.8262 9.39194 18.678 9.13976 18.4836 8.83876C18.0957 8.23821 17.5192 7.43558 16.764 6.63002C15.2675 5.03377 12.9789 3.33301 10 3.33301C7.02123 3.33301 4.7326 5.03377 3.23611 6.63002C2.48091 7.43558 1.90434 8.23821 1.51649 8.83876C1.32209 9.13976 1.17385 9.39194 1.07315 9.57096C1.02278 9.66052 0.984213 9.73192 0.957639 9.78214C0.94435 9.80725 0.934052 9.82708 0.926766 9.84125L0.918098 9.85822L0.915461 9.86344L0.914569 9.86522C0.914428 9.8655 0.913959 9.86643 1.59721 10.2081L0.913959 9.86643C0.806431 10.0815 0.806431 10.3346 0.913959 10.5497L1.59721 10.2081C0.913959 10.5497 0.913819 10.5494 0.913959 10.5497L0.915461 10.5527L0.918098 10.5579L0.926766 10.5749C0.934052 10.589 0.94435 10.6089 0.957639 10.634C0.984213 10.6842 1.02278 10.7556 1.07315 10.8452C1.17385 11.0242 1.32209 11.2764 1.51649 11.5774C1.90434 12.1779 2.48091 12.9805 3.23611 13.7861C4.7326 15.3823 7.02123 17.0831 10 17.0831C12.9789 17.0831 15.2675 15.3823 16.764 13.7861C17.5192 12.9805 18.0957 12.1779 18.4836 11.5774C18.678 11.2764 18.8262 11.0242 18.9269 10.8452C18.9773 10.7556 19.0159 10.6842 19.0425 10.634C19.0557 10.6089 19.066 10.589 19.0733 10.5749L19.082 10.5579L19.0846 10.5527L19.0855 10.5509C19.0857 10.5506 19.0861 10.5497 18.4029 10.2081ZM18.4029 10.2081L19.0861 10.5497C19.1937 10.3346 19.1934 10.081 19.0859 9.8659L18.4029 10.2081ZM10 8.68027C9.15627 8.68027 8.47226 9.36428 8.47226 10.2081C8.47226 11.0518 9.15627 11.7358 10 11.7358C10.8438 11.7358 11.5278 11.0518 11.5278 10.2081C11.5278 9.36428 10.8438 8.68027 10 8.68027ZM6.94447 10.2081C6.94447 8.52051 8.3125 7.15248 10 7.15248C11.6876 7.15248 13.0556 8.52051 13.0556 10.2081C13.0556 11.8956 11.6876 13.2636 10 13.2636C8.3125 13.2636 6.94447 11.8956 6.94447 10.2081Z" fill="currentColor"/>
</svg>
