<svg version="1.1" xmlns="http://www.w3.org/2000/svg" xmlns:xlink="http://www.w3.org/1999/xlink" viewBox="0 0 171 171"><g fill="none" fill-rule="nonzero" stroke="none" stroke-width="1" stroke-linecap="butt" stroke-linejoin="miter" stroke-miterlimit="10" stroke-dasharray="" stroke-dashoffset="0" font-family="none" font-weight="none" font-size="none" text-anchor="none" style="mix-blend-mode: normal"><path d="M0,171.99809v-171.99809h171.99809v171.99809z" fill="none"></path><g style="fill:currentColor"><path d="M85.5,28.5c-57,0 -78.375,57 -78.375,57c0,0 21.375,57 78.375,57c57,0 78.375,-57 78.375,-57c0,0 -21.375,-57 -78.375,-57zM85.5,42.75c37.5915,0 56.60523,30.40304 62.76123,42.72217c-6.16313,12.23363 -25.31936,42.77783 -62.76123,42.77783c-37.5915,0 -56.60523,-30.40304 -62.76123,-42.72217c6.17025,-12.23363 25.31936,-42.77783 62.76123,-42.77783zM85.5,57c-15.73913,0 -28.5,12.76087 -28.5,28.5c0,15.73913 12.76087,28.5 28.5,28.5c15.73913,0 28.5,-12.76087 28.5,-28.5c0,-15.73913 -12.76087,-28.5 -28.5,-28.5zM85.5,71.25c7.87313,0 14.25,6.37687 14.25,14.25c0,7.87313 -6.37687,14.25 -14.25,14.25c-7.87313,0 -14.25,-6.37687 -14.25,-14.25c0,-7.87313 6.37687,-14.25 14.25,-14.25z"></path></g></g></svg>