<svg width="24" height="24" viewBox="0 0 24 24" fill="none" xmlns="http://www.w3.org/2000/svg">
<path fill-rule="evenodd" clip-rule="evenodd" d="M3.16142 3.16191C3.64902 2.67432 4.31034 2.40039 4.9999 2.40039H7.9999C8.33127 2.40039 8.5999 2.66902 8.5999 3.00039C8.5999 3.33176 8.33127 3.60039 7.9999 3.60039H4.9999C4.6286 3.60039 4.2725 3.74789 4.00995 4.01044C3.7474 4.27299 3.5999 4.62909 3.5999 5.00039V8.00039C3.5999 8.33176 3.33127 8.60039 2.9999 8.60039C2.66853 8.60039 2.3999 8.33176 2.3999 8.00039V5.00039C2.3999 4.31083 2.67383 3.64951 3.16142 3.16191ZM15.3999 3.00039C15.3999 2.66902 15.6685 2.40039 15.9999 2.40039H18.9999C19.6895 2.40039 20.3508 2.67432 20.8384 3.16191C21.326 3.64951 21.5999 4.31083 21.5999 5.00039V8.00039C21.5999 8.33176 21.3313 8.60039 20.9999 8.60039C20.6685 8.60039 20.3999 8.33176 20.3999 8.00039V5.00039C20.3999 4.62909 20.2524 4.27299 19.9899 4.01044C19.7273 3.74789 19.3712 3.60039 18.9999 3.60039H15.9999C15.6685 3.60039 15.3999 3.33176 15.3999 3.00039ZM2.9999 15.4004C3.33127 15.4004 3.5999 15.669 3.5999 16.0004V19.0004C3.5999 19.3717 3.7474 19.7278 4.00995 19.9903C4.2725 20.2529 4.6286 20.4004 4.9999 20.4004H7.9999C8.33127 20.4004 8.5999 20.669 8.5999 21.0004C8.5999 21.3318 8.33127 21.6004 7.9999 21.6004H4.9999C4.31034 21.6004 3.64902 21.3265 3.16142 20.8389C2.67383 20.3513 2.3999 19.69 2.3999 19.0004V16.0004C2.3999 15.669 2.66853 15.4004 2.9999 15.4004ZM20.9999 15.4004C21.3313 15.4004 21.5999 15.669 21.5999 16.0004V19.0004C21.5999 19.69 21.326 20.3513 20.8384 20.8389C20.3508 21.3265 19.6895 21.6004 18.9999 21.6004H15.9999C15.6685 21.6004 15.3999 21.3318 15.3999 21.0004C15.3999 20.669 15.6685 20.4004 15.9999 20.4004H18.9999C19.3712 20.4004 19.7273 20.2529 19.9899 19.9903C20.2524 19.7278 20.3999 19.3717 20.3999 19.0004V16.0004C20.3999 15.669 20.6685 15.4004 20.9999 15.4004Z" fill="currentColor"/>
</svg>
