<svg width="24" height="24" viewBox="0 0 24 24" fill="none" xmlns="http://www.w3.org/2000/svg">
<path d="M12.0005 22.0002C17.5233 22.0002 22.0005 17.5231 22.0005 12.0002C22.0005 6.4774 17.5233 2.00024 12.0005 2.00024C6.47764 2.00024 2.00049 6.4774 2.00049 12.0002C2.00049 17.5231 6.47764 22.0002 12.0005 22.0002Z" stroke="currentColor" stroke-width="2" stroke-linecap="round" stroke-linejoin="round"/>
<path d="M2.00049 12L22.0005 12" stroke="currentColor" stroke-width="2" stroke-linecap="round" stroke-linejoin="round"/>
<path d="M12.0005 2.00024C14.5018 4.7386 15.9232 8.29228 16.0005 12.0002C15.9232 15.7082 14.5018 19.2619 12.0005 22.0002C9.49921 19.2619 8.07774 15.7082 8.00049 12.0002C8.07774 8.29228 9.49921 4.7386 12.0005 2.00024V2.00024Z" stroke="currentColor" stroke-width="2" stroke-linecap="round" stroke-linejoin="round"/>
<path d="M12.0005 22.0002C17.5233 22.0002 22.0005 17.5231 22.0005 12.0002C22.0005 6.4774 17.5233 2.00024 12.0005 2.00024C6.47764 2.00024 2.00049 6.4774 2.00049 12.0002C2.00049 17.5231 6.47764 22.0002 12.0005 22.0002Z" stroke="currentColor" stroke-width="2" stroke-linecap="round" stroke-linejoin="round"/>
<path d="M2.00049 12L22.0005 12" stroke="currentColor" stroke-width="2" stroke-linecap="round" stroke-linejoin="round"/>
<path d="M12.0005 2.00024C14.5018 4.7386 15.9232 8.29228 16.0005 12.0002C15.9232 15.7082 14.5018 19.2619 12.0005 22.0002C9.49921 19.2619 8.07774 15.7082 8.00049 12.0002C8.07774 8.29228 9.49921 4.7386 12.0005 2.00024V2.00024Z" stroke="currentColor" stroke-width="2" stroke-linecap="round" stroke-linejoin="round"/>
</svg>
