<svg width="24" height="24" viewBox="0 0 24 24" fill="none" xmlns="http://www.w3.org/2000/svg">
<path fill-rule="evenodd" clip-rule="evenodd" d="M2.3999 3.00039C2.3999 2.66902 2.66853 2.40039 2.9999 2.40039H9.9999C10.3313 2.40039 10.5999 2.66902 10.5999 3.00039V10.0004C10.5999 10.3318 10.3313 10.6004 9.9999 10.6004H2.9999C2.66853 10.6004 2.3999 10.3318 2.3999 10.0004V3.00039ZM3.5999 3.60039V9.40039H9.3999V3.60039H3.5999Z" fill="currentColor"/>
<path fill-rule="evenodd" clip-rule="evenodd" d="M13.3999 3.00039C13.3999 2.66902 13.6685 2.40039 13.9999 2.40039H20.9999C21.3313 2.40039 21.5999 2.66902 21.5999 3.00039V10.0004C21.5999 10.3318 21.3313 10.6004 20.9999 10.6004H13.9999C13.6685 10.6004 13.3999 10.3318 13.3999 10.0004V3.00039ZM14.5999 3.60039V9.40039H20.3999V3.60039H14.5999Z" fill="currentColor"/>
<path fill-rule="evenodd" clip-rule="evenodd" d="M13.3999 14.0004C13.3999 13.669 13.6685 13.4004 13.9999 13.4004H20.9999C21.3313 13.4004 21.5999 13.669 21.5999 14.0004V21.0004C21.5999 21.3318 21.3313 21.6004 20.9999 21.6004H13.9999C13.6685 21.6004 13.3999 21.3318 13.3999 21.0004V14.0004ZM14.5999 14.6004V20.4004H20.3999V14.6004H14.5999Z" fill="currentColor"/>
<path fill-rule="evenodd" clip-rule="evenodd" d="M2.3999 14.0004C2.3999 13.669 2.66853 13.4004 2.9999 13.4004H9.9999C10.3313 13.4004 10.5999 13.669 10.5999 14.0004V21.0004C10.5999 21.3318 10.3313 21.6004 9.9999 21.6004H2.9999C2.66853 21.6004 2.3999 21.3318 2.3999 21.0004V14.0004ZM3.5999 14.6004V20.4004H9.3999V14.6004H3.5999Z" fill="currentColor"/>
</svg>
