<svg width="60" height="53" viewBox="0 0 60 53" fill="none" xmlns="http://www.w3.org/2000/svg">
<path d="M59.9617 42.65L59.977 8.04462C60.2346 5.39406 58.299 3.03608 55.6537 2.77793C53.0437 2.52322 50.718 4.40797 50.4091 7.0043C50.4008 7.07426 50.3977 7.14086 50.3978 7.21132C50.3991 8.31188 50.4102 18.0068 50.4041 18.9357C50.3977 19.9206 49.0215 20.5973 48.053 20.8735C47.0845 21.1496 44.7851 19.9206 43.3032 18.9357C41.8277 17.955 22.2285 1.12309 22.0608 0.979117C22.0557 0.974671 22.0572 0.975901 22.052 0.971423C20.3923 -0.471934 17.876 -0.285552 16.4463 1.38853C15.0569 3.01552 15.206 5.45362 16.7834 6.89846L31.0397 19.9206C31.481 20.3249 31.4627 21.027 31.0009 21.4075C30.6842 21.6686 30.239 21.705 29.8841 21.4989L7.05782 8.04441C5.05372 6.88033 2.48958 7.5155 1.25771 9.48117C-0.0373891 11.5477 0.636404 14.2785 2.74336 15.5024L24.0592 28.012C24.4446 28.2359 24.5679 28.7354 24.331 29.1135C24.1377 29.4219 23.7587 29.5575 23.4142 29.4416L5.18971 23.6889C3.1554 23.0046 0.948985 24.0792 0.229227 26.1048C-0.517417 28.2061 0.622194 30.5092 2.74336 31.1857L22.6291 37.1183C22.6936 37.1389 22.8005 37.1924 22.9341 37.2677C23.8937 37.8082 23.7247 39.281 22.6291 39.174L9.83407 37.1183C7.99454 36.9388 6.35811 38.2875 6.17899 40.1307L6.13021 40.6327C5.92415 42.7531 7.47262 44.6395 9.58882 44.846L46.07 52.9218C53.124 53.6102 59.2748 49.7182 59.9617 42.65Z" fill="currentColor"/>
</svg>
