<svg width="24" height="24" viewBox="0 0 24 24" fill="none" xmlns="http://www.w3.org/2000/svg">
<path fill-rule="evenodd" clip-rule="evenodd" d="M11.9474 3.21053C10.1161 3.21053 8.63158 4.69506 8.63158 6.52632C8.63158 8.35758 10.1161 9.8421 11.9474 9.8421C13.7786 9.8421 15.2632 8.35758 15.2632 6.52632C15.2632 4.69506 13.7786 3.21053 11.9474 3.21053ZM6.42105 6.52632C6.42105 3.47422 8.89527 1 11.9474 1C14.9995 1 17.4737 3.47422 17.4737 6.52632C17.4737 9.57841 14.9995 12.0526 11.9474 12.0526C8.89527 12.0526 6.42105 9.57841 6.42105 6.52632ZM21.8947 5.42105C22.5052 5.42105 23 5.9159 23 6.52632V10.9474C23 12.413 22.4178 13.8187 21.3814 14.8551C20.345 15.8914 18.9394 16.4737 17.4737 16.4737H7.52632C6.64691 16.4737 5.80353 16.823 5.1817 17.4449C4.55987 18.0667 4.21053 18.9101 4.21053 19.7895V22C4.21053 22.6104 3.71568 23.1053 3.10526 23.1053C2.49484 23.1053 2 22.6104 2 22V19.7895C2 18.3238 2.58223 16.9182 3.61862 15.8818C4.655 14.8454 6.06065 14.2632 7.52632 14.2632H17.4737C18.3531 14.2632 19.1965 13.9138 19.8183 13.292C20.4401 12.6702 20.7895 11.8268 20.7895 10.9474V6.52632C20.7895 5.9159 21.2843 5.42105 21.8947 5.42105Z" fill="currentColor"/>
</svg>
