<svg width="24" height="24" viewBox="0 0 24 24" fill="none" xmlns="http://www.w3.org/2000/svg">
    <path fill-rule="evenodd" clip-rule="evenodd" d="M12 3C9.61305 3 7.32387 3.94821 5.63604 5.63604C3.94821 7.32387 3 9.61305 3 12V18.6667C3 19.219 2.55228 19.6667 2 19.6667C1.44772 19.6667 1 19.219 1 18.6667V12C1 9.08262 2.15893 6.28473 4.22183 4.22183C6.28473 2.15893 9.08262 1 12 1C14.9174 1 17.7153 2.15893 19.7782 4.22183C21.8411 6.28473 23 9.08262 23 12V18.6667C23 19.219 22.5523 19.6667 22 19.6667C21.4477 19.6667 21 19.219 21 18.6667V12C21 9.61305 20.0518 7.32387 18.364 5.63604C16.6761 3.94821 14.3869 3 12 3Z" fill="currentColor"/>
    <path fill-rule="evenodd" clip-rule="evenodd" d="M1 14.2222C1 13.6699 1.44772 13.2222 2 13.2222H5.33333C6.18792 13.2222 7.00751 13.5617 7.61179 14.1659C8.21607 14.7702 8.55556 15.5898 8.55556 16.4444V19.7777C8.55556 20.6323 8.21607 21.4519 7.61179 22.0562C7.00751 22.6605 6.18792 22.9999 5.33333 22.9999H4.22222C3.36764 22.9999 2.54805 22.6605 1.94377 22.0562C1.33948 21.4519 1 20.6323 1 19.7777V14.2222ZM16.3882 14.1659C16.9925 13.5617 17.8121 13.2222 18.6667 13.2222H22C22.5523 13.2222 23 13.6699 23 14.2222V19.7777C23 20.6323 22.6605 21.4519 22.0562 22.0562C21.452 22.6605 20.6324 22.9999 19.7778 22.9999H18.6667C17.8121 22.9999 16.9925 22.6605 16.3882 22.0562C15.7839 21.4519 15.4444 20.6323 15.4444 19.7777V16.4444C15.4444 15.5898 15.7839 14.7702 16.3882 14.1659Z" fill="currentColor"/>
    <path fill-rule="evenodd" clip-rule="evenodd" d="M0.292893 0.292893C0.683417 -0.0976311 1.31658 -0.0976311 1.70711 0.292893L23.7071 22.2929C24.0976 22.6834 24.0976 23.3166 23.7071 23.7071C23.3166 24.0976 22.6834 24.0976 22.2929 23.7071L0.292893 1.70711C-0.0976311 1.31658 -0.0976311 0.683417 0.292893 0.292893Z" fill="var(--new-signal-03)"/>
</svg>
