<svg width="24" height="24" viewBox="0 0 24 24" fill="none" xmlns="http://www.w3.org/2000/svg">
<path fill-rule="evenodd" clip-rule="evenodd" d="M12 3C9.61305 3 7.32387 3.94821 5.63604 5.63604C3.94821 7.32387 3 9.61305 3 12V13.2222H5.33333C6.18792 13.2222 7.00751 13.5617 7.61179 14.166C8.21607 14.7703 8.55556 15.5899 8.55556 16.4445V19.7778C8.55556 20.6324 8.21607 21.452 7.61179 22.0562C7.00751 22.6605 6.18792 23 5.33333 23H4.22222C3.36764 23 2.54805 22.6605 1.94377 22.0562C1.33948 21.452 1 20.6324 1 19.7778V18.6667V14.2222V12C1 9.08262 2.15893 6.28473 4.22183 4.22183C6.28473 2.15893 9.08262 1 12 1C14.9174 1 17.7153 2.15893 19.7782 4.22183C21.8411 6.28473 23 9.08262 23 12V14.2222V18.6667V19.7778C23 20.6324 22.6605 21.452 22.0562 22.0562C21.452 22.6605 20.6324 23 19.7778 23H18.6667C17.8121 23 16.9925 22.6605 16.3882 22.0562C15.7839 21.452 15.4444 20.6324 15.4444 19.7778V16.4445C15.4444 15.5899 15.7839 14.7703 16.3882 14.166C16.9925 13.5617 17.8121 13.2222 18.6667 13.2222H21V12C21 9.61305 20.0518 7.32387 18.364 5.63604C16.6761 3.94821 14.3869 3 12 3Z" fill="currentColor"/>
</svg>
