<svg width="24" height="24" viewBox="0 0 24 24" fill="none" xmlns="http://www.w3.org/2000/svg">
<path fill-rule="evenodd" clip-rule="evenodd" d="M2.70433 6.11855C1.59975 7.86444 1 9.9013 1 12V14.2222V18.6667V19.7778C1 20.6324 1.33948 21.452 1.94377 22.0562C2.54805 22.6605 3.36764 23 4.22222 23H5.33333C6.18792 23 7.00751 22.6605 7.61179 22.0562C8.21607 21.452 8.55556 20.6324 8.55556 19.7778V16.4445C8.55556 15.5899 8.21607 14.7703 7.61179 14.166C7.00751 13.5617 6.18792 13.2222 5.33333 13.2222H3V12C3 10.4363 3.40693 8.91457 4.16215 7.57637L15.4444 18.8587V19.7778C15.4444 20.6324 15.7839 21.452 16.3882 22.0562C16.9925 22.6605 17.8121 23 18.6667 23H19.5858L20.2929 23.7071C20.6834 24.0976 21.3166 24.0976 21.7071 23.7071C22.0976 23.3166 22.0976 22.6834 21.7071 22.2929L1.70711 2.29289C1.31658 1.90237 0.683417 1.90237 0.292893 2.29289C-0.0976311 2.68342 -0.0976311 3.31658 0.292893 3.70711L2.70433 6.11855ZM16.3882 14.166L16.3865 14.1677L22.8773 20.6585C22.958 20.3745 23 20.0783 23 19.7778V18.6667V14.2222V12C23 9.08262 21.8411 6.28473 19.7782 4.22183C17.7153 2.15893 14.9174 1 12 1C9.61071 1 7.30158 1.77733 5.41069 3.19194L6.84283 4.62408C8.34452 3.57412 10.1427 3 12 3C14.3869 3 16.6761 3.94821 18.364 5.63604C20.0518 7.32387 21 9.61305 21 12V13.2222H18.6667C17.8121 13.2222 16.9925 13.5617 16.3882 14.166Z" fill="currentColor"/>
</svg>
