<svg width="24" height="24" viewBox="0 0 24 24" fill="none" xmlns="http://www.w3.org/2000/svg">
<path fill-rule="evenodd" clip-rule="evenodd" d="M11.9999 2.60039C6.80843 2.60039 2.5999 6.80891 2.5999 12.0004C2.5999 17.1919 6.80843 21.4004 11.9999 21.4004C17.1914 21.4004 21.3999 17.1919 21.3999 12.0004C21.3999 6.80891 17.1914 2.60039 11.9999 2.60039ZM1.3999 12.0004C1.3999 6.14617 6.14568 1.40039 11.9999 1.40039C17.8541 1.40039 22.5999 6.14617 22.5999 12.0004C22.5999 17.8546 17.8541 22.6004 11.9999 22.6004C6.14568 22.6004 1.3999 17.8546 1.3999 12.0004Z" fill="currentColor"/>
<path fill-rule="evenodd" clip-rule="evenodd" d="M12.3257 7.63104C11.767 7.53522 11.1925 7.64019 10.7039 7.92737C10.2152 8.21455 9.84399 8.6654 9.65591 9.20007C9.54595 9.51266 9.2034 9.67693 8.8908 9.56696C8.57821 9.457 8.41395 9.11445 8.52391 8.80186C8.80603 7.99986 9.36289 7.32358 10.0959 6.89281C10.8288 6.46205 11.6906 6.30458 12.5285 6.44831C13.3665 6.59204 14.1265 7.02768 14.674 7.67809C15.2215 8.32842 15.5211 9.1515 15.5199 10.0016C15.5196 11.3198 14.5388 12.2261 13.7527 12.7502C13.3414 13.0244 12.9342 13.2276 12.6323 13.3617C12.4805 13.4292 12.3532 13.4802 12.2624 13.5148C12.217 13.5321 12.1805 13.5454 12.1546 13.5546L12.1237 13.5654L12.1145 13.5685L12.1115 13.5695L12.1105 13.5699C12.1105 13.5699 12.1096 13.5702 11.9199 13.001L12.1105 13.5699C11.7961 13.6747 11.4555 13.5051 11.3507 13.1907C11.246 12.8766 11.4156 12.5371 11.7295 12.432M11.7295 12.432L11.7333 12.4307L11.7526 12.4239C11.7706 12.4175 11.7986 12.4073 11.8352 12.3934C11.9085 12.3655 12.0155 12.3227 12.145 12.2652C12.4056 12.1494 12.7485 11.9775 13.0871 11.7517C13.8008 11.2759 14.3199 10.6824 14.3199 10.001C14.3208 9.43418 14.121 8.88449 13.756 8.45089C13.391 8.01729 12.8843 7.72686 12.3257 7.63104" fill="currentColor"/>
<path fill-rule="evenodd" clip-rule="evenodd" d="M11.3999 17.0004C11.3999 16.669 11.6685 16.4004 11.9999 16.4004H12.0099C12.3413 16.4004 12.6099 16.669 12.6099 17.0004C12.6099 17.3318 12.3413 17.6004 12.0099 17.6004H11.9999C11.6685 17.6004 11.3999 17.3318 11.3999 17.0004Z" fill="currentColor"/>
</svg>
