<svg width="24" height="24" viewBox="0 0 24 24" fill="none" xmlns="http://www.w3.org/2000/svg">
<path fill-rule="evenodd" clip-rule="evenodd" d="M7.63627 8.60039C6.85043 8.60039 6.08375 8.94327 5.50893 9.57557C4.93239 10.2098 4.5999 11.0812 4.5999 12.0004C4.5999 12.9196 4.93239 13.791 5.50893 14.4252C5.79385 14.7386 6.12896 14.9838 6.49346 15.1499C6.85777 15.3159 7.24591 15.4004 7.63627 15.4004H9.81808C10.1495 15.4004 10.4181 15.669 10.4181 16.0004C10.4181 16.3318 10.1495 16.6004 9.81808 16.6004H7.63627C7.07156 16.6004 6.51398 16.478 5.99592 16.2419C5.47805 16.0059 5.01143 15.6619 4.621 15.2324C3.83365 14.3663 3.3999 13.2029 3.3999 12.0004C3.3999 10.7979 3.83365 9.63445 4.621 8.76836C5.41009 7.90036 6.49326 7.40039 7.63627 7.40039H9.81808C10.1495 7.40039 10.4181 7.66902 10.4181 8.00039C10.4181 8.33176 10.1495 8.60039 9.81808 8.60039H7.63627ZM13.5817 8.00039C13.5817 7.66902 13.8504 7.40039 14.1817 7.40039H16.3635C16.9282 7.40039 17.4858 7.52283 18.0039 7.75888C18.5218 7.99483 18.9884 8.3389 19.3788 8.76836C19.7691 9.19771 20.0761 9.7044 20.2846 10.2582C20.4931 10.812 20.5999 11.4038 20.5999 12.0004C20.5999 12.5969 20.4931 13.1888 20.2846 13.7426C20.0761 14.2964 19.7691 14.8031 19.3788 15.2324C18.9884 15.6619 18.5218 16.0059 18.0039 16.2419C17.4858 16.478 16.9282 16.6004 16.3635 16.6004H14.1817C13.8504 16.6004 13.5817 16.3318 13.5817 16.0004C13.5817 15.669 13.8504 15.4004 14.1817 15.4004H16.3635C16.7539 15.4004 17.142 15.3159 17.5063 15.1499C17.8708 14.9838 18.206 14.7386 18.4909 14.4252C18.7759 14.1117 19.0046 13.7365 19.1616 13.3197C19.3186 12.9029 19.3999 12.4544 19.3999 12.0004C19.3999 11.5464 19.3186 11.0979 19.1616 10.6811C19.0046 10.2643 18.7759 9.88909 18.4909 9.57557C18.206 9.26216 17.8708 9.01695 17.5063 8.85087C17.142 8.68488 16.7539 8.60039 16.3635 8.60039H14.1817C13.8504 8.60039 13.5817 8.33176 13.5817 8.00039Z" fill="currentColor"/>
<path fill-rule="evenodd" clip-rule="evenodd" d="M8.49078 12.0004C8.49078 11.669 8.75941 11.4004 9.09078 11.4004H14.909C15.2403 11.4004 15.509 11.669 15.509 12.0004C15.509 12.3318 15.2403 12.6004 14.909 12.6004H9.09078C8.75941 12.6004 8.49078 12.3318 8.49078 12.0004Z" fill="currentColor"/>
</svg>
