<svg width="24" height="24" viewBox="0 0 24 24" fill="none" xmlns="http://www.w3.org/2000/svg">
<path fill-rule="evenodd" clip-rule="evenodd" d="M7.7999 8.29961C7.7999 5.98001 9.68031 4.09961 11.9999 4.09961C14.3195 4.09961 16.1999 5.98001 16.1999 8.29961V10.1596C17.5692 10.4376 18.5999 11.6482 18.5999 13.0996V17.8996C18.5999 19.5565 17.2568 20.8996 15.5999 20.8996H8.3999C6.74305 20.8996 5.3999 19.5565 5.3999 17.8996V13.0996C5.3999 11.6482 6.43056 10.4376 7.7999 10.1596V8.29961ZM8.9999 10.0996H14.9999V8.29961C14.9999 6.64276 13.6568 5.29961 11.9999 5.29961C10.343 5.29961 8.9999 6.64276 8.9999 8.29961V10.0996ZM8.3999 11.2996C7.40579 11.2996 6.5999 12.1055 6.5999 13.0996V17.8996C6.5999 18.8937 7.40579 19.6996 8.3999 19.6996H15.5999C16.594 19.6996 17.3999 18.8937 17.3999 17.8996V13.0996C17.3999 12.1055 16.594 11.2996 15.5999 11.2996H8.3999Z" fill="currentColor"/>
</svg>
