<svg width="24" height="24" viewBox="0 0 24 24" fill="none" xmlns="http://www.w3.org/2000/svg">
<path fill-rule="evenodd" clip-rule="evenodd" d="M4 13.2222C4 11.5443 5.24665 10 7 10H17C18.7534 10 20 11.5444 20 13.2222V17.7778C20 19.4557 18.7534 21 17 21H7C5.24665 21 4 19.4557 4 17.7778V13.2222ZM7 12C6.54421 12 6 12.4455 6 13.2222V17.7778C6 18.5545 6.54421 19 7 19H17C17.4558 19 18 18.5545 18 17.7778V13.2222C18 12.4455 17.4558 12 17 12H7Z" fill="currentColor"/>
<path fill-rule="evenodd" clip-rule="evenodd" d="M7 8C7 5.23858 9.23858 3 12 3C14.7614 3 17 5.23858 17 8V10H15V8C15 6.34315 13.6569 5 12 5C10.3431 5 9 6.34315 9 8V10H7V8Z" fill="currentColor"/>
</svg>
