<svg width="536" height="536" viewBox="0 0 536 536" fill="none" xmlns="http://www.w3.org/2000/svg">
<g filter="url(#filter0_dd)">
<g clip-path="url(#clip0)">
<rect x="12" y="6" width="512" height="512" rx="128" fill="white"/>
<path d="M268 468.848C383.712 468.848 474.848 377.712 474.848 262C474.848 146.288 383.712 55.152 268 55.152C152.288 55.152 61.1521 146.288 61.1521 262C61.1521 377.712 152.288 468.848 268 468.848Z" fill="#D0E3FC"/>
<path d="M268 378.736C202.72 378.736 151.264 327.28 151.264 262C151.264 196.72 202.72 145.264 268 145.264C333.28 145.264 384.736 196.72 384.736 262C384.736 327.28 333.28 378.736 268 378.736Z" fill="#85B7F8"/>
<path d="M357.344 328.048C334.642 328.048 315.483 338.022 303.226 353.648H301.28V262H234.72V518H301.28V412.528C301.28 396.144 313.056 384.368 329.44 384.368C345.824 384.368 357.6 396.144 357.6 412.528V518H424.16V396.4C424.16 357.744 394.976 328.048 357.344 328.048Z" fill="black"/>
</g>
</g>
<defs>
<filter id="filter0_dd" x="0" y="0" width="536" height="536" filterUnits="userSpaceOnUse" color-interpolation-filters="sRGB">
<feFlood flood-opacity="0" result="BackgroundImageFix"/>
<feColorMatrix in="SourceAlpha" type="matrix" values="0 0 0 0 0 0 0 0 0 0 0 0 0 0 0 0 0 0 127 0"/>
<feOffset dy="6"/>
<feGaussianBlur stdDeviation="6"/>
<feColorMatrix type="matrix" values="0 0 0 0 0 0 0 0 0 0 0 0 0 0 0 0 0 0 0.12 0"/>
<feBlend mode="normal" in2="BackgroundImageFix" result="effect1_dropShadow"/>
<feColorMatrix in="SourceAlpha" type="matrix" values="0 0 0 0 0 0 0 0 0 0 0 0 0 0 0 0 0 0 127 0"/>
<feOffset dy="1"/>
<feGaussianBlur stdDeviation="1"/>
<feColorMatrix type="matrix" values="0 0 0 0 0 0 0 0 0 0 0 0 0 0 0 0 0 0 0.24 0"/>
<feBlend mode="normal" in2="effect1_dropShadow" result="effect2_dropShadow"/>
<feBlend mode="normal" in="SourceGraphic" in2="effect2_dropShadow" result="shape"/>
</filter>
<clipPath id="clip0">
<rect x="12" y="6" width="512" height="512" rx="128" fill="white"/>
</clipPath>
</defs>
</svg>
