<svg width="105" height="32" viewBox="0 0 105 32" fill="none" xmlns="http://www.w3.org/2000/svg">
    <path d="M29.9809 23.3253L29.9885 6.02262C30.1173 4.69733 29.1495 3.51834 27.8269 3.38927C26.5219 3.26192 25.359 4.20429 25.2045 5.50246C25.2004 5.53744 25.1989 5.57074 25.1989 5.60597C25.1995 6.15624 25.2051 11.0037 25.2021 11.4682C25.1989 11.9606 24.5107 12.299 24.0265 12.437C23.5422 12.5751 22.3925 11.9606 21.6516 11.4682C20.9139 10.9778 11.1142 2.56185 11.0304 2.48986C11.0278 2.48764 11.0286 2.48826 11.026 2.48602C10.1961 1.76434 8.938 1.85753 8.22317 2.69457C7.52845 3.50806 7.60302 4.72712 8.3917 5.44954L15.5199 11.9606C15.7405 12.1627 15.7313 12.5138 15.5005 12.7041C15.3421 12.8346 15.1195 12.8528 14.9421 12.7498L3.52891 6.02251C2.52686 5.44047 1.24479 5.75805 0.628854 6.74089C-0.0186946 7.77417 0.318202 9.13957 1.37168 9.75148L12.0296 16.0063C12.2223 16.1183 12.2839 16.368 12.1655 16.557C12.0688 16.7112 11.8794 16.7791 11.7071 16.7211L2.59486 13.8448C1.5777 13.5026 0.474492 14.0399 0.114614 15.0527C-0.258709 16.1033 0.311097 17.2549 1.37168 17.5932L11.3145 20.5594C11.3468 20.5697 11.4002 20.5965 11.467 20.6342C11.9468 20.9044 11.8623 21.6408 11.3145 21.5873L4.91703 20.5594C3.99727 20.4697 3.17905 21.144 3.08949 22.0656L3.0651 22.3166C2.96207 23.3769 3.73631 24.32 4.79441 24.4233L23.035 28.4612C26.562 28.8054 29.6374 26.8594 29.9809 23.3253Z" fill="url(#paint0_linear)"/>
    <path fill-rule="evenodd" clip-rule="evenodd" d="M90.8693 15.1935C91.1761 14.9147 91.3434 14.4685 91.3434 14.0222C91.3434 13.1856 90.6741 12.3211 89.6422 12.3211C89.2239 12.3211 88.8335 12.4605 88.4988 12.7673L83.6185 17.4246V7.94271C83.6185 6.93875 82.8097 6.13 81.7779 6.13C80.746 6.13 79.9373 6.93875 79.9373 7.94271V23.8387C79.9373 24.8148 80.746 25.6236 81.7779 25.6236C82.754 25.6236 83.6185 24.8148 83.6185 23.8387V21.6356L85.1523 20.297L88.4431 24.8427C88.8056 25.3447 89.2797 25.6236 89.8932 25.6236C90.8414 25.6236 91.7338 24.8427 91.7338 23.8387C91.7338 23.3925 91.5665 23.0579 91.3434 22.7511L87.718 18.0102L90.8693 15.1935ZM73.8597 13.9944C74.1944 12.9067 74.9194 12.2932 75.8676 12.2932C76.9831 12.2932 77.8755 13.1856 77.8755 14.3011C77.8755 14.7121 77.726 15.1043 77.5953 15.4473L77.5952 15.4476C77.5662 15.5235 77.5383 15.5969 77.513 15.6676L73.6087 26.0419C72.0191 30.2529 69.1188 31.8704 66.5531 31.8704C65.5491 31.8704 64.7683 31.0896 64.7683 30.1135C64.7683 29.1374 65.5491 28.3566 66.5531 28.3566C67.9475 28.3566 68.9236 27.6873 69.6208 26.2371L64.7962 15.6955L64.75 15.5962C64.5822 15.2365 64.35 14.7386 64.35 14.3569C64.35 13.2135 65.2703 12.2932 66.3858 12.2932C67.5292 12.2932 68.1148 13.102 68.3379 13.6318L71.4335 21.4404L73.8597 13.9944ZM60.1486 22.144C60.5545 21.9741 60.8968 21.8308 61.2714 21.8308C62.0523 21.8308 62.6379 22.5001 62.6379 23.3089C62.6379 24.0619 62.1081 24.5917 61.0483 25.01C59.9049 25.4841 58.65 25.6236 57.4229 25.6236C55.2755 25.6236 53.5465 24.9543 52.3752 23.7551C51.176 22.528 50.5067 20.8269 50.5067 18.8189C50.5067 16.8947 51.2039 15.2493 52.3194 14.1059C53.435 12.9904 55.0246 12.3211 57.0325 12.3211C59.0962 12.3211 60.5742 12.9904 61.5782 13.9944C62.8053 15.2493 63.1678 16.7552 63.1678 18.0102C63.1678 19.3209 62.4985 20.0739 61.3551 20.0739H54.3831C54.7178 21.7751 55.8612 22.6953 57.6739 22.6953C58.8313 22.6953 59.5574 22.3914 60.1486 22.144ZM57.0604 15.2214C55.5265 15.2214 54.6062 16.1696 54.3553 17.6477H59.5982C59.4866 16.309 58.5663 15.2214 57.0604 15.2214ZM97.3918 25.6236C95.0492 25.6236 93.1528 24.1455 93.1528 21.6914C93.1528 18.4285 96.8061 17.7313 100.515 17.4524V17.2293C100.515 16.56 100.404 16.0859 100.125 15.7234C99.818 15.333 99.2881 15.1656 98.6188 15.1656C97.8232 15.1656 97.1812 15.4161 96.5883 15.6474C96.0796 15.8459 95.6072 16.0302 95.105 16.0302C94.352 16.0302 93.7664 15.4445 93.7664 14.6916C93.7664 13.827 94.4636 13.2972 95.3839 12.9346C96.4715 12.5163 97.7822 12.3211 99.065 12.3211C100.32 12.3211 101.993 12.5721 103.081 13.7713C103.778 14.5242 104.196 15.5561 104.196 17.1457V23.8387C104.196 24.8148 103.332 25.6236 102.356 25.6236C101.714 25.6236 101.129 25.3168 100.822 24.8427C99.7065 25.4841 98.6188 25.6236 97.3918 25.6236ZM96.6667 21.5798C96.6667 22.4722 97.5312 22.8906 98.5631 22.8906C99.2045 22.8906 99.8738 22.7511 100.515 22.3607V19.9345C98.8419 19.9902 96.6667 20.2133 96.6667 21.5798ZM42.6652 15.4724C40.4899 15.4724 39.6812 17.5082 39.6812 19.3488V23.8388C39.6812 24.8148 38.8167 25.6236 37.8406 25.6236C36.8366 25.6236 36 24.8148 36 23.8388V7.91483C36 6.91087 36.8366 6.13001 37.8406 6.13001C38.8724 6.13001 39.6812 6.91087 39.6812 7.91483V13.8549C40.7688 12.7394 42.1074 12.3211 43.4739 12.3211C44.8962 12.3211 46.2348 12.6836 47.2109 13.576C48.1033 14.3848 48.6889 15.6955 48.6889 17.5919V23.8388C48.6889 24.8148 47.8244 25.6236 46.8205 25.6236C45.8165 25.6236 44.9799 24.8148 44.9799 23.8388V18.5122C44.9799 17.6198 44.8683 16.6995 44.3384 16.1138C44.0038 15.7234 43.446 15.4724 42.6652 15.4724Z" fill="currentColor"/>
    <defs>
        <linearGradient id="paint0_linear" x1="30.3226" y1="4.55648" x2="1.6759" y2="23.3061" gradientUnits="userSpaceOnUse">
            <stop stop-color="#59BF25"/>
            <stop offset="1" stop-color="#0D8110"/>
        </linearGradient>
    </defs>
</svg>
