<svg width="108" height="48" viewBox="0 0 108 48" fill="none" xmlns="http://www.w3.org/2000/svg">
<path d="M18.6641 37.3282C29.1049 37.3282 37.3282 29.1049 37.3282 18.6641C37.3282 8.22329 29.1049 0 18.6641 0C8.22329 0 0 8.22329 0 18.6641C0 29.1049 8.22329 37.3282 18.6641 37.3282Z" fill="#D0E3FC"/>
<path d="M18.664 29.1973C12.7738 29.1973 8.13086 24.5544 8.13086 18.6641C8.13086 12.7738 12.7738 8.13089 18.664 8.13089C24.5543 8.13089 29.1972 12.7738 29.1972 18.6641C29.1972 24.5544 24.5543 29.1973 18.664 29.1973Z" fill="#85B7F8"/>
<path d="M26.7256 24.6237C24.6772 24.6237 22.9484 25.5236 21.8425 26.9336H21.6669V18.6641H15.6611V41.7632H21.6669V32.2464C21.6669 30.768 22.7295 29.7055 24.2078 29.7055C25.6862 29.7055 26.7487 30.768 26.7487 32.2464V41.7632H32.7545V30.7911C32.7545 27.3032 30.1212 24.6237 26.7256 24.6237Z" fill="black"/>
<path d="M43.519 24.6237C38.5065 24.6237 34.6489 28.2734 34.6489 33.4014C34.6489 38.5987 38.2524 42.179 43.4497 42.179C47.723 42.179 50.9338 40.1001 51.9271 36.8893H46.1985C45.6441 37.4668 44.7664 37.7671 43.6114 37.7671C41.7681 37.7671 40.603 36.8431 40.1946 35.1107H52.135C53.1283 29.1973 49.5479 24.6237 43.519 24.6237ZM43.4728 29.2204C45.3272 29.2204 46.4249 30.0649 46.6743 31.6458H40.2167C40.6335 30.0612 41.7431 29.2204 43.4728 29.2204Z" fill="black"/>
<path d="M62.471 37.0279H62.289L58.5331 25.0395H52.1577L59.4339 42.0867C59.6649 42.641 59.4108 43.0337 58.8103 43.0337H54.6524V48H58.972C62.3213 48 64.2155 46.5217 65.4628 42.9413L71.6765 25.0395H65.4628L62.471 37.0279Z" fill="black"/>
<path d="M90.5716 25.0395H84.4041L78.8196 31.8999H78.7217V18.6641H72.9238V41.7632H78.7217V34.2098H78.8002L84.1269 41.7632H90.8026L84.4032 32.6548L90.5716 25.0395Z" fill="black"/>
<path d="M99.1877 24.6237C94.5679 24.6237 91.4726 26.8412 90.8258 30.4216H96.4389C96.6699 29.5669 97.5246 29.1049 98.9105 29.1049C100.574 29.1049 101.659 29.7748 101.659 30.8374V31.4841H96.8085C92.8816 31.4841 90.2021 33.6093 90.2021 36.7276C90.2021 40.0077 92.6045 42.179 96.2079 42.179C98.3552 42.179 100.232 41.3281 101.461 39.9615H101.659V41.7632H107.319V31.6227C107.319 27.4649 104.039 24.6237 99.1877 24.6237ZM95.8614 36.3349C95.8614 35.4572 96.7161 34.8335 97.9866 34.8335H101.659V35.3186C101.659 36.7969 99.9731 38.0212 97.9404 38.0212C96.6468 38.0212 95.8614 37.3975 95.8614 36.3349Z" fill="black"/>
</svg>
