<svg width="24" height="24" viewBox="0 0 24 24" fill="none" xmlns="http://www.w3.org/2000/svg">
    <path fill-rule="evenodd" clip-rule="evenodd" d="M1 7C1 4.79086 2.79086 3 5 3H19C21.2091 3 23 4.79086 23 7V16.5556C23 18.7647 21.2091 20.5556 19 20.5556H5C2.79086 20.5556 1 18.7647 1 16.5556V7ZM5 5C3.89543 5 3 5.89543 3 7V7.02272L10.9732 11.793C11.6055 12.1713 12.3945 12.1713 13.0268 11.793L21 7.02272V7C21 5.89543 20.1046 5 19 5H5ZM21 9.35335L14.0537 13.5093C12.7891 14.2659 11.2109 14.2659 9.94633 13.5093L3 9.35335V16.5556C3 17.6601 3.89543 18.5556 5 18.5556H19C20.1046 18.5556 21 17.6601 21 16.5556V9.35335Z" fill="currentColor"/>
</svg>
