<svg width="24" height="24" viewBox="0 0 24 24" fill="none" xmlns="http://www.w3.org/2000/svg">
<path fill-rule="evenodd" clip-rule="evenodd" d="M4.16142 6.16191C4.64902 5.67432 5.31034 5.40039 5.9999 5.40039H17.9999C18.6895 5.40039 19.3508 5.67432 19.8384 6.16191C20.326 6.64951 20.5999 7.31083 20.5999 8.00039V16.0004C20.5999 16.69 20.326 17.3513 19.8384 17.8389C19.3508 18.3265 18.6895 18.6004 17.9999 18.6004H5.9999C5.31034 18.6004 4.64902 18.3265 4.16142 17.8389C3.67383 17.3513 3.3999 16.69 3.3999 16.0004V8.00039C3.3999 7.31083 3.67383 6.64951 4.16142 6.16191ZM5.9999 6.60039C5.6286 6.60039 5.2725 6.74789 5.00995 7.01044C4.81415 7.20624 4.68234 7.45407 4.62797 7.72144L11.1599 12.6204C11.6577 12.9937 12.3421 12.9937 12.8399 12.6204L19.3718 7.72144C19.3175 7.45408 19.1857 7.20624 18.9899 7.01044C18.7273 6.74789 18.3712 6.60039 17.9999 6.60039H5.9999ZM19.3999 9.20039L13.5599 13.5804C12.6355 14.2737 11.3643 14.2737 10.4399 13.5804L4.5999 9.20039V16.0004C4.5999 16.3717 4.7474 16.7278 5.00995 16.9903C5.2725 17.2529 5.6286 17.4004 5.9999 17.4004H17.9999C18.3712 17.4004 18.7273 17.2529 18.9899 16.9903C19.2524 16.7278 19.3999 16.3717 19.3999 16.0004V9.20039Z" fill="currentColor"/>
</svg>
