<svg width="24" height="24" viewBox="0 0 24 24" xmlns="http://www.w3.org/2000/svg">
    <path fill-rule="evenodd" clip-rule="evenodd" d="M9.5 6.5C8.67157 6.5 8 7.17157 8 8C8 8.82843 8.67157 9.5 9.5 9.5C10.3284 9.5 11 8.82843 11 8C11 7.17157 10.3284 6.5 9.5 6.5ZM6.14494 7C6.57521 5.55426 7.91449 4.5 9.5 4.5C11.0855 4.5 12.4248 5.55426 12.8551 7H20C20.5523 7 21 7.44772 21 8C21 8.55228 20.5523 9 20 9H12.8551C12.4248 10.4457 11.0855 11.5 9.5 11.5C7.91449 11.5 6.57521 10.4457 6.14494 9H4C3.44772 9 3 8.55228 3 8C3 7.44772 3.44772 7 4 7H6.14494ZM14.5 14.5C13.6716 14.5 13 15.1716 13 16C13 16.8284 13.6716 17.5 14.5 17.5C15.3284 17.5 16 16.8284 16 16C16 15.1716 15.3284 14.5 14.5 14.5ZM11.1449 15C11.5752 13.5543 12.9145 12.5 14.5 12.5C16.0855 12.5 17.4248 13.5543 17.8551 15H20C20.5523 15 21 15.4477 21 16C21 16.5523 20.5523 17 20 17H17.8551C17.4248 18.4457 16.0855 19.5 14.5 19.5C12.9145 19.5 11.5752 18.4457 11.1449 17H4C3.44772 17 3 16.5523 3 16C3 15.4477 3.44772 15 4 15H11.1449Z" fill="currentColor"/>
</svg>
