<svg width="24" height="24" viewBox="0 0 24 24" fill="none" xmlns="http://www.w3.org/2000/svg">
    <path fill-rule="evenodd" clip-rule="evenodd" d="M6.15127 22C6.15127 21.4202 6.62133 20.9501 7.20117 20.9501H16.8012C17.381 20.9501 17.8511 21.4202 17.8511 22C17.8511 22.5798 17.381 23.0499 16.8012 23.0499H7.20117C6.62133 23.0499 6.15127 22.5798 6.15127 22Z" fill="currentColor"/>
    <path fill-rule="evenodd" clip-rule="evenodd" d="M8 5C8 2.79086 9.79086 1 12 1C14.2091 1 16 2.79086 16 5V12C16 14.2091 14.2091 16 12 16C9.79086 16 8 14.2091 8 12V5Z" fill="currentColor"/>
    <path fill-rule="evenodd" clip-rule="evenodd" d="M4 10C4.55228 10 5 10.4477 5 11C5 14.866 8.13401 18 12 18C15.866 18 19 14.866 19 11C19 10.4477 19.4477 10 20 10C20.5523 10 21 10.4477 21 11C21 15.9706 16.9706 20 12 20C7.02944 20 3 15.9706 3 11C3 10.4477 3.44772 10 4 10Z" fill="currentColor"/>
    <path fill-rule="evenodd" clip-rule="evenodd" d="M12 18C12.5523 18 13 18.4477 13 19V22C13 22.5523 12.5523 23 12 23C11.4477 23 11 22.5523 11 22V19C11 18.4477 11.4477 18 12 18Z" fill="currentColor"/>
    <path fill-rule="evenodd" clip-rule="evenodd" d="M0.292893 0.292893C0.683417 -0.0976311 1.31658 -0.0976311 1.70711 0.292893L23.7071 22.2929C24.0976 22.6834 24.0976 23.3166 23.7071 23.7071C23.3166 24.0976 22.6834 24.0976 22.2929 23.7071L0.292893 1.70711C-0.0976311 1.31658 -0.0976311 0.683417 0.292893 0.292893Z" fill="var(--new-signal-03)"/>
</svg>
