<svg width="24" height="24" viewBox="0 0 24 24" fill="none" xmlns="http://www.w3.org/2000/svg">
<path fill-rule="evenodd" clip-rule="evenodd" d="M12 1C10.1625 1 8.61433 2.23904 8.14549 3.92722L16 11.7817V5C16 2.79086 14.2091 1 12 1ZM8 9.41421V12C8 14.2091 9.79086 16 12 16C12.7418 16 13.4365 15.7981 14.032 15.4462L15.594 17.0082C14.5434 17.638 13.314 18 12 18C8.13401 18 5 14.866 5 11C5 10.4477 4.55228 10 4 10C3.44772 10 3 10.4477 3 11C3 15.6326 6.50005 19.4476 11 19.9451V20.9502H7.20029C6.62045 20.9502 6.15039 21.4203 6.15039 22.0001C6.15039 22.5799 6.62045 23.05 7.20029 23.05H16.8003C17.3801 23.05 17.8502 22.5799 17.8502 22.0001C17.8502 21.4203 17.3801 20.9502 16.8003 20.9502H13V19.9451C14.4865 19.7807 15.8638 19.2544 17.042 18.4562L19.2929 20.7071C19.6834 21.0976 20.3166 21.0976 20.7071 20.7071C21.0976 20.3166 21.0976 19.6834 20.7071 19.2929L4.70711 3.29289C4.31658 2.90237 3.68342 2.90237 3.29289 3.29289C2.90237 3.68342 2.90237 4.31658 3.29289 4.70711L8 9.41421ZM21 11C21 12.6596 20.5508 14.2143 19.7674 15.5491L18.2912 14.0729C18.7452 13.1453 19 12.1024 19 11C19 10.4477 19.4477 10 20 10C20.5523 10 21 10.4477 21 11Z" fill="currentColor"/>
</svg>
