<svg width="24" height="24" viewBox="0 0 24 24" fill="none" xmlns="http://www.w3.org/2000/svg">
<path fill-rule="evenodd" clip-rule="evenodd" d="M12 1C9.79086 1 8 2.79086 8 5V12C8 14.2091 9.79086 16 12 16C14.2091 16 16 14.2091 16 12V5C16 2.79086 14.2091 1 12 1ZM6.15039 22C6.15039 21.4201 6.62045 20.9501 7.20029 20.9501H11V19.9451C6.50005 19.4476 3 15.6326 3 11C3 10.4477 3.44772 10 4 10C4.55228 10 5 10.4477 5 11C5 14.866 8.13401 18 12 18C15.866 18 19 14.866 19 11C19 10.4477 19.4477 10 20 10C20.5523 10 21 10.4477 21 11C21 15.6326 17.5 19.4476 13 19.9451V20.9501H16.8003C17.3801 20.9501 17.8502 21.4201 17.8502 22C17.8502 22.5798 17.3801 23.0499 16.8003 23.0499H7.20029C6.62045 23.0499 6.15039 22.5798 6.15039 22Z" fill="currentColor"/>
</svg>
