<svg width="24" height="24" viewBox="0 0 24 24" fill="none" xmlns="http://www.w3.org/2000/svg">
    <path d="M16.346 9.65381H22.0289C22.5658 9.65381 23.001 10.0879 23.001 10.6233V15.7856C23.001 17.7535 21.4014 19.3488 19.4281 19.3488H19.4113C17.438 19.3491 15.8382 17.754 15.8379 15.7861C15.8379 15.786 15.8379 15.7858 15.8379 15.7856V10.1605C15.8379 9.88066 16.0654 9.65381 16.346 9.65381Z" fill="#5059C9"/>
    <path d="M20.1872 8.63387C21.4588 8.63387 22.4896 7.60584 22.4896 6.33769C22.4896 5.06954 21.4588 4.0415 20.1872 4.0415C18.9156 4.0415 17.8848 5.06954 17.8848 6.33769C17.8848 7.60584 18.9156 8.63387 20.1872 8.63387Z" fill="#5059C9"/>
    <path d="M13.023 8.63342C14.8597 8.63342 16.3487 7.14848 16.3487 5.31671C16.3487 3.48494 14.8597 2 13.023 2C11.1862 2 9.69727 3.48494 9.69727 5.31671C9.69727 7.14848 11.1862 8.63342 13.023 8.63342Z" fill="#7B83EB"/>
    <path d="M17.4568 9.65381H8.07616C7.54566 9.6669 7.126 10.106 7.13831 10.635V16.523C7.06423 19.698 9.58295 22.3327 12.7665 22.4104C15.95 22.3327 18.4687 19.698 18.3946 16.523V10.635C18.4069 10.106 17.9873 9.6669 17.4568 9.65381Z" fill="#7B83EB"/>
    <path opacity="0.1" d="M13.2787 9.65381V17.9048C13.2762 18.2831 13.0463 18.623 12.6955 18.7671C12.5838 18.8142 12.4637 18.8385 12.3424 18.8385H7.58919C7.52268 18.6702 7.46129 18.5018 7.41011 18.3283C7.23101 17.7428 7.13963 17.1341 7.13894 16.522V10.6335C7.12664 10.1053 7.5456 9.6669 8.07526 9.65381H13.2787Z" fill="black"/>
    <path opacity="0.2" d="M12.7671 9.65381V18.415C12.7671 18.536 12.7427 18.6557 12.6955 18.7671C12.551 19.117 12.2102 19.3463 11.8308 19.3488H7.82967C7.74269 19.1804 7.66083 19.012 7.58919 18.8385C7.51756 18.6651 7.46128 18.5018 7.41011 18.3283C7.23101 17.7428 7.13963 17.1341 7.13894 16.522V10.6335C7.12664 10.1053 7.5456 9.6669 8.07525 9.65381H12.7671Z" fill="black"/>
    <path opacity="0.2" d="M12.7671 9.65381V17.3945C12.7632 17.9086 12.3463 18.3244 11.8308 18.3283H7.41011C7.23101 17.7428 7.13963 17.1341 7.13894 16.522V10.6335C7.12664 10.1053 7.5456 9.6669 8.07525 9.65381H12.7671Z" fill="black"/>
    <path opacity="0.2" d="M12.2554 9.65381V17.3945C12.2515 17.9086 11.8346 18.3244 11.3191 18.3283H7.41011C7.23101 17.7428 7.13963 17.1341 7.13894 16.522V10.6335C7.12664 10.1053 7.5456 9.6669 8.07526 9.65381H12.2554Z" fill="black"/>
    <path opacity="0.1" d="M13.2785 7.0158V8.62313C13.1915 8.62823 13.1097 8.63334 13.0227 8.63334C12.9357 8.63334 12.8538 8.62824 12.7669 8.62313C12.5942 8.6117 12.4229 8.58438 12.2552 8.54149C11.2191 8.29679 10.3631 7.57213 9.95279 6.59229C9.88219 6.42774 9.82737 6.25689 9.78906 6.08203H12.3422C12.8585 6.08398 13.2766 6.5009 13.2785 7.0158Z" fill="black"/>
    <path opacity="0.2" d="M12.7672 7.52557V8.62263C12.5945 8.6112 12.4232 8.58388 12.2556 8.541C11.2195 8.2963 10.3635 7.57164 9.95312 6.5918H11.8309C12.3472 6.59375 12.7652 7.01067 12.7672 7.52557Z" fill="black"/>
    <path opacity="0.2" d="M12.7672 7.52557V8.62263C12.5945 8.6112 12.4232 8.58388 12.2556 8.541C11.2195 8.2963 10.3635 7.57164 9.95312 6.5918H11.8309C12.3472 6.59375 12.7652 7.01067 12.7672 7.52557Z" fill="black"/>
    <path opacity="0.2" d="M12.2556 7.52656V8.54198C11.2195 8.29728 10.3635 7.57262 9.95312 6.59277H11.3192C11.8355 6.59473 12.2536 7.01166 12.2556 7.52656Z" fill="black"/>
    <path d="M1.93785 6.59277H11.3184C11.8364 6.59277 12.2563 7.01153 12.2563 7.52808V16.8832C12.2563 17.3998 11.8364 17.8185 11.3184 17.8185H1.93785C1.41989 17.8185 1 17.3998 1 16.8832V7.52808C1 7.01153 1.4199 6.59277 1.93785 6.59277Z" fill="url(#paint0_linear)"/>
    <path d="M9.09656 10.1529H7.22135V15.2453H6.02666V10.1529H4.16016V9.16504H9.09656V10.1529Z" fill="white"/>
    <defs>
        <linearGradient id="paint0_linear" x1="2.95545" y1="5.86194" x2="10.271" y2="18.5666" gradientUnits="userSpaceOnUse">
            <stop stop-color="#5A62C3"/>
            <stop offset="0.5" stop-color="#4D55BD"/>
            <stop offset="1" stop-color="#3940AB"/>
        </linearGradient>
    </defs>
</svg>
