<svg width="24" height="24" viewBox="0 0 24 24" fill="none" xmlns="http://www.w3.org/2000/svg">
<path fill-rule="evenodd" clip-rule="evenodd" d="M7.80465 3.76626C7.89865 3.54446 8.11619 3.40039 8.35709 3.40039C9.10404 3.40039 9.80276 3.73709 10.3053 4.30621C10.8056 4.8729 11.0762 5.62718 11.0762 6.40037V9.00035H13.0614V9.60035V10.2004H10.4762C10.1448 10.2004 9.87615 9.93173 9.87615 9.60035V6.40037C9.87615 5.90054 9.70016 5.43392 9.40572 5.10045C9.21064 4.87951 8.97683 4.73075 8.7308 4.65623L6.13167 10.7889V19.4003H13.0943C13.2674 19.4025 13.4483 19.3347 13.6014 19.1872C13.7565 19.038 13.8702 18.8177 13.9047 18.5607C13.906 18.5507 13.9076 18.5407 13.9094 18.5307L14.7712 13.8908C14.8188 13.6345 15.0264 13.4382 15.285 13.4052C15.285 13.4052 15.285 13.4052 15.285 13.4052L15.2889 13.4047L15.3029 13.4028L15.3604 13.3951C15.4118 13.3881 15.489 13.3774 15.5906 13.3628C15.7938 13.3334 16.0948 13.2881 16.483 13.2248C17.2593 13.0983 18.3838 12.8998 19.7713 12.6128C20.9767 12.3634 21.3976 11.6454 21.3999 11.1807C21.401 10.9454 21.3062 10.7198 21.0934 10.5424C20.8755 10.3607 20.495 10.2004 19.8929 10.2004H13.0614V9.60035V9.00035H19.8929C20.7034 9.00035 21.3785 9.21775 21.8619 9.62074C22.3505 10.0281 22.6028 10.5942 22.5999 11.1866C22.5941 12.3774 21.6024 13.4594 20.0144 13.7879C18.6086 14.0787 17.4673 14.2802 16.676 14.4092C16.3446 14.4632 16.0746 14.5045 15.8722 14.5344L15.0918 18.736C15.0214 19.236 14.794 19.7049 14.4337 20.0517C14.0686 20.4032 13.59 20.6056 13.0832 20.6003H3.41261C2.85299 20.6003 2.33393 20.3479 1.96391 19.9288C1.59601 19.5121 1.3999 18.9613 1.3999 18.4003V12.267C1.3999 11.706 1.59601 11.1552 1.96391 10.7385C2.33393 10.3194 2.85299 10.067 3.41261 10.067H5.1343L7.80465 3.76626ZM4.93167 11.267H3.41261C3.22288 11.267 3.02329 11.3517 2.86345 11.5328C2.70147 11.7162 2.5999 11.9793 2.5999 12.267V18.4003C2.5999 18.688 2.70147 18.9511 2.86345 19.1345C3.02328 19.3156 3.22288 19.4003 3.41261 19.4003H4.93167V11.267Z" fill="currentColor"/>
</svg>
