<svg width="24" height="24" viewBox="0 0 24 24" fill="none" xmlns="http://www.w3.org/2000/svg">
<path fill-rule="evenodd" clip-rule="evenodd" d="M12 1C12.5523 1 13 1.44772 13 2V12C13 12.5523 12.5523 13 12 13C11.4477 13 11 12.5523 11 12V2C11 1.44772 11.4477 1 12 1ZM6.33614 5.93291C6.72673 6.32338 6.72683 6.95654 6.33637 7.34713C5.21781 8.46605 4.45614 9.89152 4.14767 11.4433C3.8392 12.9951 3.99778 14.6035 4.60336 16.0651C5.20894 17.5268 6.23432 18.7761 7.54985 19.655C8.86539 20.5339 10.412 21.0031 11.9941 21.0031C13.5763 21.0031 15.1229 20.5339 16.4384 19.655C17.754 18.7761 18.7794 17.5268 19.3849 16.0651C19.9905 14.6035 20.1491 12.9951 19.8406 11.4433C19.5321 9.89152 18.7705 8.46605 17.6519 7.34713C17.2615 6.95654 17.2616 6.32338 17.6522 5.93291C18.0427 5.54245 18.6759 5.54256 19.0664 5.93315C20.4646 7.3318 21.4167 9.11364 21.8022 11.0534C22.1878 12.9931 21.9896 15.0036 21.2326 16.8306C20.4757 18.6577 19.1939 20.2193 17.5495 21.318C15.9051 22.4167 13.9718 23.0031 11.9941 23.0031C10.0165 23.0031 8.0832 22.4167 6.43878 21.318C4.79436 20.2193 3.51263 18.6577 2.75566 16.8306C1.99869 15.0036 1.80047 12.9931 2.18605 11.0534C2.57164 9.11364 3.52372 7.3318 4.92192 5.93315C5.31238 5.54256 5.94555 5.54245 6.33614 5.93291Z" fill="currentColor"/>
</svg>
