<svg width="24" height="24" viewBox="0 0 24 24" fill="none" xmlns="http://www.w3.org/2000/svg">
<path fill-rule="evenodd" clip-rule="evenodd" d="M6.40002 5.00039C6.40002 4.66902 6.66865 4.40039 7.00002 4.40039H19.4441C21.0417 4.40039 22.6 5.43575 22.6 7.00039V17.0004C22.6 17.3318 22.3314 17.6004 22 17.6004C21.6686 17.6004 21.4 17.3318 21.4 17.0004V7.00039C21.4 6.35589 20.6697 5.60039 19.4441 5.60039H7.00002C6.66865 5.60039 6.40002 5.33176 6.40002 5.00039ZM3.95357 4.99522C4.07639 5.30299 3.92646 5.65205 3.61869 5.77487C2.94325 6.04442 2.60002 6.53964 2.60002 7.00039V8.00039C2.60002 8.33176 2.33139 8.60039 2.00002 8.60039C1.66865 8.60039 1.40002 8.33176 1.40002 8.00039V7.00039C1.40002 5.90537 2.19187 5.05225 3.17391 4.66034C3.48168 4.53752 3.83074 4.68745 3.95357 4.99522ZM20.8258 18.7504C20.9086 19.0713 20.7156 19.3985 20.3947 19.4813C20.0935 19.5589 19.774 19.6004 19.4441 19.6004H12.8626C12.5313 19.6004 12.2626 19.3318 12.2626 19.0004C12.2626 18.669 12.5313 18.4004 12.8626 18.4004H19.4441C19.6736 18.4004 19.8924 18.3715 20.095 18.3193C20.4159 18.2365 20.7431 18.4296 20.8258 18.7504Z" fill="currentColor"/>
<path fill-rule="evenodd" clip-rule="evenodd" d="M1.40355 11.5154C1.43946 11.1859 1.73561 10.948 2.06503 10.9839C4.13149 11.2091 6.06023 12.117 7.53342 13.5607C9.00683 15.0046 9.9368 16.8989 10.1676 18.9327C10.205 19.262 9.96836 19.5592 9.63911 19.5966C9.30985 19.6339 9.01264 19.3973 8.97527 19.068C8.77588 17.3111 7.97217 15.6708 6.6935 14.4177C5.41461 13.1644 3.73671 12.3732 1.93501 12.1768C1.60559 12.1409 1.36765 11.8448 1.40355 11.5154ZM1.41165 15.2428C1.4766 14.9178 1.79267 14.7071 2.11761 14.772C3.14578 14.9775 4.0912 15.4751 4.83558 16.2046C5.58008 16.9342 6.09061 17.8637 6.30172 18.8781C6.36923 19.2026 6.16097 19.5203 5.83655 19.5878C5.51213 19.6553 5.1944 19.447 5.12689 19.1226C4.96473 18.3434 4.57199 17.6264 3.99566 17.0616C3.4192 16.4967 2.68452 16.1091 1.88242 15.9487C1.55748 15.8838 1.34671 15.5677 1.41165 15.2428Z" fill="currentColor"/>
<path fill-rule="evenodd" clip-rule="evenodd" d="M0.53552 2.6244C0.74534 2.36792 1.12335 2.3301 1.37983 2.53992L23.3798 20.5374C23.6363 20.7473 23.6741 21.1253 23.4643 21.3818C23.2545 21.6382 22.8765 21.6761 22.62 21.4662L0.620009 3.46871C0.363528 3.2589 0.325701 2.88088 0.53552 2.6244Z" fill="currentColor"/>
</svg>
