<svg width="24" height="24" viewBox="0 0 24 24" fill="none" xmlns="http://www.w3.org/2000/svg">
<path fill-rule="evenodd" clip-rule="evenodd" d="M0 5C0 3.34315 1.34315 2 3 2H21C22.6569 2 24 3.34315 24 5V15C24 16.6569 22.6569 18 21 18H16.7125L19.606 20.2046C19.9473 20.4646 20.0847 20.9133 19.9475 21.3198C19.8103 21.7263 19.429 22 19 22H5C4.57096 22 4.18974 21.7263 4.05252 21.3198C3.91531 20.9133 4.05269 20.4646 4.39396 20.2046L7.28745 18H3C1.34314 18 0 16.6569 0 15V5ZM21 16C21.5523 16 22 15.5523 22 15V5C22 4.44772 21.5523 4 21 4H3C2.44772 4 2 4.44772 2 5V15C2 15.5523 2.44772 16 3 16H21Z" fill="#525B67"/>
</svg>
