<svg width="24" height="24" viewBox="0 0 24 24" fill="none" xmlns="http://www.w3.org/2000/svg">
<path fill-rule="evenodd" clip-rule="evenodd" d="M0.292893 0.292893C0.683417 -0.0976311 1.31658 -0.0976311 1.70711 0.292893L23.7071 22.2929C24.0976 22.6834 24.0976 23.3166 23.7071 23.7071C23.3166 24.0976 22.6834 24.0976 22.2929 23.7071L19.9365 21.3507C19.7908 21.7401 19.4181 22 19 22H5C4.57096 22 4.18974 21.7263 4.05252 21.3198C3.91531 20.9133 4.05269 20.4646 4.39396 20.2046L7.28745 18H3C1.34314 18 1.49012e-08 16.6569 1.49012e-08 15V5C1.49012e-08 4.02221 0.467785 3.15368 1.19177 2.60598L0.292893 1.70711C-0.0976311 1.31658 -0.0976311 0.683417 0.292893 0.292893ZM2.64909 4.0633C2.2699 4.20542 2 4.57119 2 5V15C2 15.5523 2.44772 16 3 16H14.5858L2.64909 4.0633ZM7 3C7 2.44772 7.44772 2 8 2H21C22.6569 2 24 3.34315 24 5V15C24 15.5523 23.5523 16 23 16C22.4477 16 22 15.5523 22 15V5C22 4.44772 21.5523 4 21 4H8C7.44772 4 7 3.55228 7 3Z" fill="currentColor"/>
</svg>
