<svg width="24" height="24" viewBox="0 0 24 24" fill="none" xmlns="http://www.w3.org/2000/svg">
<path fill-rule="evenodd" clip-rule="evenodd" d="M4.55593 5.60039C3.33035 5.60039 2.60002 6.3559 2.60002 7.00039V8.00039C2.60002 8.33176 2.33139 8.60039 2.00002 8.60039C1.66865 8.60039 1.40002 8.33176 1.40002 8.00039V7.00039C1.40002 5.43575 2.95833 4.40039 4.55593 4.40039H19.4441C21.0417 4.40039 22.6 5.43575 22.6 7.00039V17.0004C22.6 18.565 21.0417 19.6004 19.4441 19.6004H12.8626C12.5313 19.6004 12.2626 19.3318 12.2626 19.0004C12.2626 18.669 12.5313 18.4004 12.8626 18.4004H19.4441C20.6697 18.4004 21.4 17.6449 21.4 17.0004V7.00039C21.4 6.3559 20.6697 5.60039 19.4441 5.60039H4.55593ZM1.40355 11.5154C1.43946 11.1859 1.73561 10.948 2.06503 10.9839C4.13149 11.2091 6.06023 12.117 7.53342 13.5607C9.00683 15.0046 9.9368 16.8989 10.1676 18.9327C10.205 19.262 9.96836 19.5592 9.63911 19.5966C9.30985 19.6339 9.01264 19.3973 8.97527 19.068C8.77588 17.3111 7.97217 15.6708 6.6935 14.4177C5.41461 13.1644 3.73671 12.3732 1.93501 12.1768C1.60559 12.1409 1.36765 11.8448 1.40355 11.5154ZM1.41165 15.2428C1.4766 14.9178 1.79267 14.7071 2.11761 14.772C3.14578 14.9775 4.0912 15.4751 4.83558 16.2046C5.58008 16.9342 6.09061 17.8637 6.30172 18.8781C6.36923 19.2026 6.16097 19.5203 5.83655 19.5878C5.51213 19.6553 5.1944 19.447 5.12689 19.1226C4.96473 18.3434 4.57199 17.6264 3.99566 17.0616C3.4192 16.4967 2.68452 16.1091 1.88242 15.9487C1.55748 15.8838 1.34671 15.5677 1.41165 15.2428Z" fill="currentColor"/>
</svg>
