<svg width="60" height="137" viewBox="0 0 60 137" fill="none" xmlns="http://www.w3.org/2000/svg">
<path fill-rule="evenodd" clip-rule="evenodd" d="M16.5983 75.3603C17.3862 74.5861 18.6525 74.5973 19.4266 75.3852L30 86.1464L40.5733 75.3852C41.3474 74.5973 42.6137 74.5861 43.4016 75.3603C44.1895 76.1344 44.2007 77.4007 43.4265 78.1886L31.4266 90.4018C31.0505 90.7845 30.5365 91.0001 30 91.0001C29.4634 91.0001 28.9494 90.7845 28.5733 90.4018L16.5734 78.1886C15.7992 77.4007 15.8104 76.1344 16.5983 75.3603Z" fill="white" fill-opacity="0.7"/>
<path fill-rule="evenodd" clip-rule="evenodd" d="M16.5983 58.3603C17.3862 57.5861 18.6525 57.5973 19.4266 58.3852L30 69.1464L40.5733 58.3852C41.3474 57.5973 42.6137 57.5861 43.4016 58.3603C44.1895 59.1344 44.2007 60.4007 43.4265 61.1886L31.4266 73.4018C31.0505 73.7845 30.5365 74.0001 30 74.0001C29.4634 74.0001 28.9494 73.7845 28.5733 73.4018L16.5734 61.1886C15.7992 60.4007 15.8104 59.1344 16.5983 58.3603Z" fill="white" fill-opacity="0.7"/>
</svg>
