<svg width="24" height="24" viewBox="0 0 24 24" fill="none" xmlns="http://www.w3.org/2000/svg">
<path fill-rule="evenodd" clip-rule="evenodd" d="M5 10.2222C5 7.33807 7.33807 5 10.2222 5C13.1064 5 15.4444 7.33807 15.4444 10.2222C15.4444 13.1064 13.1064 15.4444 10.2222 15.4444C7.33807 15.4444 5 13.1064 5 10.2222ZM10.2222 3C6.2335 3 3 6.2335 3 10.2222C3 14.2109 6.2335 17.4444 10.2222 17.4444C11.8558 17.4444 13.3627 16.9021 14.5727 15.9876L19.2922 20.7071C19.6828 21.0977 20.3159 21.0977 20.7065 20.7071C21.097 20.3166 21.097 19.6834 20.7065 19.2929L15.987 14.5735C16.9019 13.3634 17.4444 11.8562 17.4444 10.2222C17.4444 6.2335 14.2109 3 10.2222 3Z" fill="currentColor"/>
</svg>
