<svg width="24" height="24" viewBox="0 0 24 24" fill="none" xmlns="http://www.w3.org/2000/svg">
<path fill-rule="evenodd" clip-rule="evenodd" d="M3.28361 5.28922C3.5548 4.93746 4.03455 4.85184 4.45856 4.98414C5.62273 5.3474 6.82644 5.27255 7.84812 4.67136C8.84463 4.08497 9.50225 3.09538 9.78776 1.92496C9.89185 1.49824 10.2087 1.13617 10.6447 1.08262C11.0887 1.02808 11.5408 1 11.9996 1C12.4581 1 12.9102 1.02806 13.354 1.08257C13.79 1.13611 14.1069 1.49819 14.211 1.92493C14.4965 3.09536 15.1541 4.08497 16.1506 4.67136C17.1724 5.27259 18.3762 5.34741 19.5404 4.98406C19.9644 4.85173 20.4442 4.93734 20.7154 5.28911C21.2654 6.0024 21.7297 6.78509 22.093 7.62178C22.272 8.03394 22.1092 8.50048 21.7795 8.80579C20.8596 9.65764 20.3016 10.7756 20.3016 11.9998C20.3016 13.2239 20.8594 14.3416 21.779 15.1934C22.1087 15.4988 22.2714 15.9654 22.0924 16.3775C21.7288 17.2143 21.2642 17.9971 20.714 18.7104C20.4429 19.062 19.9633 19.1476 19.5394 19.0154C18.3755 18.6524 17.1721 18.7274 16.1506 19.3285C15.1546 19.9145 14.4971 20.9035 14.2114 22.0731C14.1072 22.4997 13.7904 22.8616 13.3545 22.9151C12.9105 22.9697 12.4583 22.9978 11.9996 22.9978C11.5407 22.9978 11.0883 22.9697 10.6442 22.9151C10.2084 22.8615 9.89153 22.4996 9.78733 22.0731C9.50159 20.9034 8.84413 19.9145 7.84812 19.3285C6.82674 18.7274 5.62345 18.6525 4.45959 19.0153C4.03571 19.1475 3.55616 19.0619 3.28499 18.7103C2.73468 17.9968 2.27004 17.2139 1.90647 16.3769C1.72748 15.9648 1.89017 15.4983 2.21974 15.1929C3.13903 14.3412 3.69659 13.2236 3.69659 11.9998C3.69659 10.7759 3.13882 9.65809 2.21923 8.8063C1.88963 8.501 1.72688 8.03455 1.90581 7.62244C2.26917 6.78554 2.73357 6.00267 3.28361 5.28922ZM11.9991 16.5825C14.53 16.5825 16.5817 14.5308 16.5817 11.9999C16.5817 9.46904 14.53 7.41736 11.9991 7.41736C9.46826 7.41736 7.41658 9.46904 7.41658 11.9999C7.41658 14.5308 9.46826 16.5825 11.9991 16.5825Z" fill="currentColor"/>
</svg>
