<svg width="24" height="24" viewBox="0 0 24 24" xmlns="http://www.w3.org/2000/svg">
    <path fill-rule="evenodd" clip-rule="evenodd" d="M8.46013 3.54427C9.60869 0.15191 14.3915 0.151908 15.54 3.54427C15.822 4.37702 16.6715 4.86629 17.5231 4.69663C21.0377 3.99643 23.4062 8.1607 21.0648 10.8449C20.4885 11.5057 20.4885 12.4943 21.0648 13.1551C23.4062 15.8393 21.0377 20.0036 17.5231 19.3034C16.6715 19.1337 15.822 19.623 15.54 20.4557C14.3915 23.8481 9.60869 23.8481 8.46013 20.4557C8.17818 19.623 7.32863 19.1337 6.47708 19.3034C2.96249 20.0036 0.593936 15.8393 2.93533 13.1551C3.51167 12.4943 3.51167 11.5057 2.93533 10.8449C0.593937 8.1607 2.96248 3.99643 6.47708 4.69663C7.32863 4.86629 8.17818 4.37702 8.46013 3.54427ZM13.6457 4.18565C13.1104 2.60478 10.8897 2.60478 10.3545 4.18565C9.75228 5.96436 7.92866 7.02513 6.0863 6.65808C4.47062 6.3362 3.33744 8.26337 4.44252 9.53026C5.67594 10.9443 5.67594 13.0557 4.44252 14.4697C3.33744 15.7366 4.47062 17.6638 6.0863 17.3419C7.92866 16.9749 9.75228 18.0356 10.3545 19.8143C10.8897 21.3952 13.1104 21.3952 13.6457 19.8143C14.2479 18.0356 16.0715 16.9749 17.9138 17.3419C19.5295 17.6638 20.6627 15.7366 19.5576 14.4697C18.3242 13.0557 18.3242 10.9443 19.5576 9.53027C20.6627 8.26337 19.5295 6.3362 17.9138 6.65808C16.0715 7.02513 14.2479 5.96436 13.6457 4.18565ZM12.0001 10C10.8955 10 10.0001 10.8954 10.0001 12C10.0001 13.1046 10.8955 14 12.0001 14C13.1046 14 14.0001 13.1046 14.0001 12C14.0001 10.8954 13.1046 10 12.0001 10ZM8.00007 12C8.00007 9.79086 9.79094 8 12.0001 8C14.2092 8 16.0001 9.79086 16.0001 12C16.0001 14.2091 14.2092 16 12.0001 16C9.79094 16 8.00007 14.2091 8.00007 12Z" fill="currentColor"/>
</svg>
