<svg width="24" height="24" viewBox="0 0 24 24" fill="none" xmlns="http://www.w3.org/2000/svg">
<path fill-rule="evenodd" clip-rule="evenodd" d="M11.9999 9.60039C10.6744 9.60039 9.5999 10.6749 9.5999 12.0004C9.5999 13.3259 10.6744 14.4004 11.9999 14.4004C13.3254 14.4004 14.3999 13.3259 14.3999 12.0004C14.3999 10.6749 13.3254 9.60039 11.9999 9.60039ZM8.3999 12.0004C8.3999 10.0122 10.0117 8.40039 11.9999 8.40039C13.9881 8.40039 15.5999 10.0122 15.5999 12.0004C15.5999 13.9886 13.9881 15.6004 11.9999 15.6004C10.0117 15.6004 8.3999 13.9886 8.3999 12.0004Z" fill="currentColor"/>
<path fill-rule="evenodd" clip-rule="evenodd" d="M11.9999 1.60039C11.6286 1.60039 11.2725 1.74789 11.01 2.01044C10.7474 2.27299 10.5999 2.62909 10.5999 3.00039V3.17039L10.5999 3.17278C10.5981 3.61158 10.4681 4.0403 10.2258 4.40615C9.98356 4.772 9.63958 5.05902 9.23626 5.23187C9.17384 5.25863 9.10741 5.27455 9.03984 5.27906C8.66146 5.42016 8.25122 5.45711 7.85227 5.38477C7.40991 5.30456 7.00172 5.09368 6.68034 4.77931L6.67561 4.77468L6.61564 4.71465C6.48562 4.58449 6.33098 4.48099 6.16102 4.41053C5.99106 4.34008 5.80888 4.30382 5.6249 4.30382C5.44092 4.30382 5.25874 4.34008 5.08879 4.41053C4.91883 4.48099 4.76442 4.58425 4.6344 4.71442C4.50424 4.84444 4.4005 4.99932 4.33005 5.16927C4.25959 5.33923 4.22333 5.52141 4.22333 5.70539C4.22333 5.88937 4.25959 6.07155 4.33005 6.24151C4.4005 6.41146 4.50376 6.56587 4.63393 6.69589L4.69885 6.76081C5.01321 7.08219 5.22407 7.4904 5.30428 7.93276C5.38336 8.36889 5.33184 8.81853 5.1564 9.22527C4.99933 9.64149 4.72233 10.002 4.36025 10.2609C3.99303 10.5236 3.55529 10.6697 3.10393 10.6802L3.0899 10.6806L2.9999 10.6804C2.6286 10.6804 2.2725 10.8279 2.00995 11.0904C1.7474 11.353 1.5999 11.7091 1.5999 12.0804C1.5999 12.4517 1.7474 12.8078 2.00995 13.0703C2.2725 13.3329 2.6286 13.4804 2.9999 13.4804H3.1723C3.6111 13.4821 4.03981 13.6122 4.40566 13.8545C4.77061 14.0961 5.05712 14.439 5.23012 14.8411C5.4106 15.2516 5.4643 15.7067 5.38428 16.148C5.30407 16.5904 5.09319 16.9986 4.77882 17.32L4.77419 17.3247L4.71416 17.3847C4.584 17.5147 4.4805 17.6693 4.41005 17.8393C4.33959 18.0092 4.30333 18.1914 4.30333 18.3754C4.30333 18.5594 4.33959 18.7416 4.41005 18.9115C4.4805 19.0815 4.58376 19.2359 4.71393 19.3659C4.84395 19.4961 4.99883 19.5998 5.16879 19.6702C5.33874 19.7407 5.52092 19.777 5.7049 19.777C5.88888 19.777 6.07106 19.7407 6.24102 19.6702C6.41098 19.5998 6.56538 19.4965 6.6954 19.3664L6.76032 19.3014C7.0817 18.9871 7.48991 18.7762 7.93227 18.696C8.3684 18.6169 8.81804 18.6685 9.22478 18.8439C9.641 19.001 10.0015 19.278 10.2604 19.64C10.5231 20.0073 10.6692 20.445 10.6797 20.8964L10.6801 20.9104L10.6799 21.0004C10.6799 21.3717 10.8274 21.7278 11.09 21.9903C11.3525 22.2529 11.7086 22.4004 12.0799 22.4004C12.4512 22.4004 12.8073 22.2529 13.0699 21.9903C13.3324 21.7278 13.4799 21.3717 13.4799 21.0004V20.8304L13.4799 20.828C13.4817 20.3892 13.6117 19.9605 13.854 19.5946C14.0956 19.2297 14.4385 18.9432 14.8405 18.7702C15.251 18.5897 15.7062 18.536 16.1475 18.616C16.5899 18.6962 16.9981 18.9071 17.3195 19.2215L17.3242 19.2261L17.3842 19.2861C17.5142 19.4163 17.6688 19.5198 17.8388 19.5902C18.0087 19.6607 18.1909 19.697 18.3749 19.697C18.5589 19.697 18.7411 19.6607 18.911 19.5902C19.081 19.5198 19.2354 19.4165 19.3654 19.2864C19.4956 19.1563 19.5993 19.0015 19.6698 18.8315C19.7402 18.6615 19.7765 18.4794 19.7765 18.2954C19.7765 18.1114 19.7402 17.9292 19.6698 17.7593C19.5993 17.5893 19.496 17.4349 19.3659 17.3049L19.301 17.24C18.9866 16.9186 18.7757 16.5104 18.6955 16.068C18.6155 15.6267 18.6692 15.1715 18.8497 14.761C19.0227 14.359 19.3092 14.0161 19.6741 13.7745C20.04 13.5322 20.4687 13.4021 20.9075 13.4004L20.9099 13.4004L20.9999 13.4004C21.3712 13.4004 21.7273 13.2529 21.9899 12.9903C22.2524 12.7278 22.3999 12.3717 22.3999 12.0004C22.3999 11.6291 22.2524 11.273 21.9899 11.0104C21.7273 10.7479 21.3712 10.6004 20.9999 10.6004H20.8299L20.8275 10.6004C20.3887 10.5986 19.96 10.4686 19.5941 10.2263C19.2283 9.98405 18.9413 9.64007 18.7684 9.23675C18.7417 9.17432 18.7257 9.10791 18.7212 9.04033C18.5801 8.66195 18.5432 8.25171 18.6155 7.85276C18.6957 7.4104 18.9066 7.00221 19.221 6.68083L19.2256 6.6761L19.2856 6.61613C19.4158 6.4861 19.5193 6.33146 19.5898 6.16151C19.6602 5.99155 19.6965 5.80937 19.6965 5.62539C19.6965 5.44141 19.6602 5.25923 19.5898 5.08927C19.5193 4.91932 19.416 4.76491 19.2859 4.63489C19.1558 4.50472 19.001 4.40099 18.831 4.33053C18.6611 4.26008 18.4789 4.22382 18.2949 4.22382C18.1109 4.22382 17.9287 4.26008 17.7588 4.33053C17.5888 4.40099 17.4344 4.50425 17.3044 4.63442L17.2395 4.69933C16.9181 5.0137 16.5099 5.22456 16.0675 5.30477C15.6262 5.38479 15.1711 5.33109 14.7606 5.1506C14.3585 4.97761 14.0157 4.6911 13.774 4.32615C13.5317 3.9603 13.4017 3.53158 13.3999 3.09278L13.3999 3.09039V3.00039C13.3999 2.62909 13.2524 2.27299 12.9899 2.01044C12.7273 1.74789 12.3712 1.60039 11.9999 1.60039ZM19.3999 15.0004L19.9488 15.2427C19.8641 15.4346 19.8388 15.6475 19.8763 15.8539C19.9135 16.0594 20.0112 16.249 20.1567 16.3987L20.2139 16.4559C20.4557 16.6974 20.6474 16.9841 20.7783 17.2997C20.9091 17.6154 20.9765 17.9537 20.9765 18.2954C20.9765 18.6371 20.9091 18.9754 20.7783 19.291C20.6475 19.6066 20.4558 19.8932 20.2142 20.1347C19.9727 20.3763 19.6861 20.568 19.3705 20.6988C19.0549 20.8296 18.7166 20.897 18.3749 20.897C18.0332 20.897 17.6949 20.8296 17.3793 20.6988C17.0636 20.5679 16.7769 20.3762 16.5354 20.1344L16.4782 20.0772C16.3285 19.9317 16.1389 19.834 15.9334 19.7968C15.727 19.7593 15.5141 19.7846 15.3222 19.8693L15.3163 19.8719C15.1281 19.9526 14.9675 20.0865 14.8545 20.2572C14.7416 20.4277 14.6809 20.6273 14.6799 20.8317V21.0004C14.6799 21.69 14.406 22.3513 13.9184 22.8389C13.4308 23.3265 12.7695 23.6004 12.0799 23.6004C11.3903 23.6004 10.729 23.3265 10.2414 22.8389C9.75383 22.3513 9.4799 21.69 9.4799 21.0004V20.9182C9.47379 20.7098 9.40575 20.5078 9.28439 20.3381C9.16182 20.1668 8.99053 20.0362 8.79279 19.9635C8.78093 19.9591 8.76921 19.9544 8.75764 19.9493C8.56571 19.8646 8.35279 19.8393 8.14636 19.8768C7.9409 19.914 7.75124 20.0117 7.6016 20.1572L7.5444 20.2144C7.30293 20.4562 7.01618 20.6479 6.70055 20.7788C6.38491 20.9096 6.04658 20.977 5.7049 20.977C5.36322 20.977 5.02489 20.9096 4.70926 20.7788C4.39362 20.6479 4.10687 20.4562 3.8654 20.2144C3.62388 19.973 3.43228 19.6865 3.30152 19.371C3.17068 19.0554 3.10333 18.7171 3.10333 18.3754C3.10333 18.0337 3.17068 17.6954 3.30152 17.3797C3.43236 17.0641 3.62413 16.7774 3.86587 16.5359L3.92305 16.4787L3.92098 16.4808L4.3499 16.9004L3.92564 16.4761L3.92305 16.4787C4.06861 16.3291 4.16628 16.1394 4.20353 15.9339C4.24096 15.7275 4.21569 15.5146 4.13098 15.3226L4.12839 15.3168C4.04772 15.1285 3.91381 14.968 3.74308 14.8549C3.57264 14.7421 3.37297 14.6814 3.16857 14.6804H3.1699V14.0804L3.16751 14.6804L3.16857 14.6804H2.9999C2.31034 14.6804 1.64902 14.4065 1.16142 13.9189C0.67383 13.4313 0.399902 12.77 0.399902 12.0804C0.399902 11.3908 0.67383 10.7295 1.16142 10.2419C1.64902 9.75432 2.31034 9.48039 2.9999 9.48039H3.0821C3.08002 9.48045 3.07795 9.48051 3.07587 9.48055L3.0899 10.0804V9.48039H3.0821C3.29053 9.47428 3.49247 9.40624 3.66215 9.28488C3.83352 9.16231 3.96405 8.99102 4.03678 8.79328C4.04114 8.78142 4.04588 8.7697 4.05098 8.75813C4.13569 8.56619 4.16096 8.35328 4.12353 8.14685C4.08628 7.94138 3.98861 7.7517 3.84303 7.60205L3.84564 7.60465L4.2699 7.18039L3.84098 7.59995L3.84303 7.60205L3.78587 7.54489C3.54425 7.30347 3.35232 7.01657 3.22152 6.70104C3.09068 6.3854 3.02333 6.04707 3.02333 5.70539C3.02333 5.36371 3.09068 5.02538 3.22152 4.70975C3.35232 4.39421 3.54401 4.10755 3.78564 3.86613C4.02706 3.6245 4.31373 3.43281 4.62926 3.30201C4.94489 3.17116 5.28322 3.10382 5.6249 3.10382C5.96658 3.10382 6.30491 3.17116 6.62055 3.30201C6.93608 3.43281 7.22275 3.6245 7.46417 3.86613L7.52156 3.92352L7.51946 3.92147L7.0999 4.35039L7.52417 3.92613L7.52156 3.92352C7.67121 4.06909 7.86089 4.16677 8.06636 4.20402C8.27279 4.24145 8.48571 4.21618 8.67764 4.13147C8.73439 4.10643 8.79456 4.09039 8.85598 4.08381C8.82602 4.10029 8.79517 4.11535 8.76354 4.12891L8.9999 4.68039V4.08039H8.9199C8.89851 4.08039 8.87717 4.08154 8.85598 4.08381C9.00437 4.00219 9.13128 3.88561 9.22535 3.74357C9.33822 3.57313 9.39888 3.37346 9.3999 3.16906V3.17039H9.9999L9.39991 3.168L9.3999 3.16906V3.00039C9.3999 2.31083 9.67383 1.64951 10.1614 1.16191C10.649 0.674319 11.3103 0.400391 11.9999 0.400391C12.6895 0.400391 13.3508 0.674319 13.8384 1.16191C14.326 1.64951 14.5999 2.31083 14.5999 3.00039V3.08906C14.6009 3.29346 14.6616 3.49313 14.7745 3.66357C14.8875 3.8343 15.048 3.96824 15.2363 4.04891L15.2422 4.05144C15.4341 4.13615 15.647 4.16145 15.8534 4.12402C16.0589 4.08677 16.2486 3.9891 16.3982 3.84354L16.4554 3.78636C16.6969 3.54462 16.9836 3.35285 17.2993 3.22201C17.6149 3.09116 17.9532 3.02382 18.2949 3.02382C18.6366 3.02382 18.9749 3.09116 19.2905 3.22201C19.606 3.35277 19.8926 3.54437 20.1339 3.78589C20.3757 4.02736 20.5674 4.31411 20.6983 4.62975C20.8291 4.94538 20.8965 5.28371 20.8965 5.62539C20.8965 5.96707 20.8291 6.3054 20.6983 6.62104C20.5674 6.93667 20.3757 7.22342 20.1339 7.46489L20.0768 7.52205C19.9312 7.6717 19.8335 7.86137 19.7963 8.06685C19.7588 8.27328 19.7841 8.48619 19.8688 8.67813C19.8939 8.73488 19.9099 8.79505 19.9165 8.85647C19.9981 9.00485 20.1147 9.13177 20.2567 9.22584C20.4272 9.33871 20.6268 9.39937 20.8312 9.40039H20.9999C21.6895 9.40039 22.3508 9.67432 22.8384 10.1619C23.326 10.6495 23.5999 11.3108 23.5999 12.0004C23.5999 12.69 23.326 13.3513 22.8384 13.8389C22.3508 14.3265 21.6895 14.6004 20.9999 14.6004H20.9112C20.7068 14.6014 20.5072 14.6621 20.3367 14.7749C20.166 14.888 20.0321 15.0485 19.9514 15.2367L19.3999 15.0004Z" fill="currentColor"/>
</svg>
