<svg width="24" height="24" viewBox="0 0 24 24" fill="none" xmlns="http://www.w3.org/2000/svg">
<path d="M9.63196 12.4883C8.58796 12.4883 7.74121 13.335 7.74121 14.379V19.1085C7.74121 20.1525 8.58796 20.9993 9.63196 20.9993C10.676 20.9993 11.5227 20.1525 11.5227 19.1085V14.379C11.522 13.335 10.6752 12.4883 9.63196 12.4883Z" fill="#E91E63"/>
<path d="M3.01416 14.3805C3.01416 15.4253 3.86166 16.2728 4.90641 16.2728C5.95116 16.2728 6.79866 15.4253 6.79866 14.3805V12.4883H4.90791C4.90716 12.4883 4.90716 12.4883 4.90641 12.4883C3.86166 12.4883 3.01416 13.3358 3.01416 14.3805Z" fill="#E91E63"/>
<path d="M9.63473 3C9.63398 3 9.63323 3 9.63248 3C8.58773 3 7.74023 3.8475 7.74023 4.89225C7.74023 5.937 8.58773 6.7845 9.63248 6.7845H11.5232V4.89225C11.5232 4.8915 11.5232 4.89 11.5232 4.8885C11.5225 3.84525 10.6772 3 9.63473 3Z" fill="#00BCD4"/>
<path d="M4.89372 11.5286H9.63222C10.677 11.5286 11.5245 10.6811 11.5245 9.63639C11.5245 8.59164 10.677 7.74414 9.63222 7.74414H4.89372C3.84896 7.74414 3.00146 8.59164 3.00146 9.63639C3.00146 10.6811 3.84896 11.5286 4.89372 11.5286Z" fill="#00BCD4"/>
<path d="M19.0926 7.74219C18.0494 7.74219 17.2041 8.58744 17.2041 9.63069V9.63444V11.5267H19.0949C20.1396 11.5267 20.9871 10.6792 20.9871 9.63444C20.9871 8.58969 20.1396 7.74219 19.0949 7.74219C19.0941 7.74219 19.0934 7.74219 19.0926 7.74219Z" fill="#4CAF50"/>
<path d="M12.4805 4.8927V9.63645C12.4805 10.6805 13.3272 11.5272 14.3712 11.5272C15.4152 11.5272 16.262 10.6805 16.262 9.63645V4.8927C16.262 3.8487 15.4152 3.00195 14.3712 3.00195C13.3272 3.00195 12.4805 3.8487 12.4805 4.8927Z" fill="#4CAF50"/>
<path d="M16.2615 19.1075C16.2615 18.0635 15.4147 17.2168 14.3707 17.2168H12.48V19.109C12.4807 20.1523 13.3267 20.9983 14.3707 20.9983C15.4147 20.9983 16.2615 20.1515 16.2615 19.1075Z" fill="#FF9800"/>
<path d="M19.1093 12.4883H14.3708C13.326 12.4883 12.4785 13.3358 12.4785 14.3805C12.4785 15.4253 13.326 16.2728 14.3708 16.2728H19.1093C20.154 16.2728 21.0015 15.4253 21.0015 14.3805C21.0015 13.3358 20.154 12.4883 19.1093 12.4883Z" fill="#FF9800"/>
</svg>
