<svg width="24" height="24" viewBox="0 0 24 24" fill="none" xmlns="http://www.w3.org/2000/svg">
    <path fill-rule="evenodd" clip-rule="evenodd" d="M5.63953 14.908C5.63977 15.2118 5.58016 15.5126 5.4641 15.7932C5.34804 16.0739 5.17781 16.3289 4.96316 16.5436C4.74851 16.7583 4.49366 16.9286 4.21318 17.0446C3.9327 17.1607 3.63211 17.2202 3.32861 17.2199C3.02527 17.22 2.72488 17.1603 2.44461 17.0441C2.16435 16.928 1.90971 16.7577 1.69525 16.543C1.4808 16.3282 1.31074 16.0733 1.19479 15.7928C1.07885 15.5123 1.01929 15.2116 1.01953 14.908C1.01929 14.6044 1.07888 14.3036 1.19488 14.023C1.31088 13.7424 1.48102 13.4875 1.69558 13.2728C1.91013 13.0581 2.16488 12.8878 2.44525 12.7717C2.72562 12.6556 3.02611 12.596 3.32953 12.5962H5.64045V14.908H5.63953ZM6.79453 14.908C6.79429 14.6044 6.85387 14.3036 6.96988 14.023C7.08588 13.7424 7.25602 13.4875 7.47057 13.2728C7.68512 13.0581 7.93987 12.8878 8.22024 12.7717C8.50062 12.6556 8.80111 12.596 9.10453 12.5962C9.40795 12.596 9.70844 12.6556 9.98881 12.7717C10.2692 12.8878 10.5239 13.0581 10.7385 13.2728C10.953 13.4875 11.1232 13.7424 11.2392 14.023C11.3552 14.3036 11.4148 14.6044 11.4145 14.908V20.6885C11.4148 20.9922 11.3552 21.2929 11.2392 21.5735C11.1232 21.8541 10.953 22.1091 10.7385 22.3238C10.5239 22.5385 10.2692 22.7088 9.98881 22.8249C9.70844 22.941 9.40795 23.0006 9.10453 23.0004C8.80111 23.0006 8.50062 22.941 8.22024 22.8249C7.93987 22.7088 7.68512 22.5385 7.47057 22.3238C7.25602 22.1091 7.08588 21.8541 6.96988 21.5735C6.85387 21.2929 6.79429 20.9922 6.79453 20.6885V14.908Z" fill="#E01E5A"/>
    <path fill-rule="evenodd" clip-rule="evenodd" d="M9.10337 5.62459C8.79988 5.62483 8.49931 5.56517 8.21888 5.44902C7.93845 5.33287 7.68366 5.1625 7.46909 4.94768C7.25453 4.73286 7.08441 4.47781 6.96846 4.19711C6.85251 3.9164 6.79301 3.61558 6.79338 3.31184C6.79313 3.00817 6.85272 2.70744 6.96872 2.42685C7.08472 2.14625 7.25487 1.8913 7.46942 1.67658C7.68397 1.46186 7.93872 1.29158 8.21909 1.17549C8.49946 1.05939 8.79995 0.999759 9.10337 1C9.4068 0.999759 9.70729 1.05939 9.98766 1.17549C10.268 1.29158 10.5228 1.46186 10.7373 1.67658C10.9519 1.8913 11.122 2.14625 11.238 2.42685C11.354 2.70744 11.4136 3.00817 11.4134 3.31184V5.62551H9.10429L9.10337 5.62459ZM9.10337 6.79798C9.4068 6.79774 9.70729 6.85737 9.98766 6.97347C10.268 7.08956 10.5228 7.25984 10.7373 7.47456C10.9519 7.68928 11.122 7.94423 11.238 8.22483C11.354 8.50542 11.4136 8.80615 11.4134 9.10982C11.4136 9.41348 11.354 9.71421 11.238 9.9948C11.122 10.2754 10.9519 10.5303 10.7373 10.7451C10.5228 10.9598 10.268 11.1301 9.98766 11.2462C9.70729 11.3623 9.4068 11.4219 9.10337 11.4216H3.31C3.00666 11.4219 2.70624 11.3623 2.42593 11.2463C2.14562 11.1302 1.89091 10.96 1.67637 10.7454C1.46183 10.5308 1.29167 10.2759 1.17561 9.99544C1.05955 9.71495 0.99988 9.41432 1 9.11073C0.999759 8.80707 1.05934 8.50634 1.17535 8.22575C1.29135 7.94515 1.46149 7.6902 1.67604 7.47548C1.8906 7.26076 2.14534 7.09048 2.42572 6.97438C2.70609 6.85829 3.00658 6.79866 3.31 6.7989H9.10429L9.10337 6.79798Z" fill="#36C5F0"/>
    <path fill-rule="evenodd" clip-rule="evenodd" d="M18.3619 9.10982C18.3616 8.80608 18.4212 8.50527 18.5373 8.22462C18.6533 7.94396 18.8236 7.68897 19.0382 7.47424C19.2529 7.2595 19.5077 7.08924 19.7882 6.9732C20.0687 6.85716 20.3693 6.79762 20.6728 6.79798C20.9762 6.79774 21.2767 6.85737 21.5571 6.97347C21.8374 7.08956 22.0922 7.25984 22.3067 7.47456C22.5213 7.68928 22.6914 7.94423 22.8074 8.22483C22.9234 8.50542 22.983 8.80615 22.9828 9.10982C22.983 9.41348 22.9234 9.71421 22.8074 9.9948C22.6914 10.2754 22.5213 10.5303 22.3067 10.7451C22.0922 10.9598 21.8374 11.1301 21.5571 11.2462C21.2767 11.3623 20.9762 11.4219 20.6728 11.4217H18.3619V9.11073V9.10982ZM17.2069 9.10982C17.2071 9.41348 17.1475 9.71421 17.0315 9.9948C16.9155 10.2754 16.7454 10.5303 16.5308 10.7451C16.3163 10.9598 16.0615 11.1301 15.7811 11.2462C15.5008 11.3623 15.2003 11.4219 14.8969 11.4217C14.5934 11.422 14.2928 11.3625 14.0123 11.2464C13.7318 11.1304 13.477 10.9601 13.2623 10.7454C13.0477 10.5307 12.8774 10.2757 12.7614 9.99502C12.6453 9.71436 12.5857 9.41356 12.5859 9.10982V3.31184C12.5857 3.0081 12.6453 2.70729 12.7614 2.42664C12.8774 2.14598 13.0477 1.89099 13.2623 1.67626C13.477 1.46152 13.7318 1.29126 14.0123 1.17522C14.2928 1.05918 14.5934 0.999639 14.8969 1C15.2003 0.99976 15.5008 1.05939 15.7811 1.17549C16.0615 1.29158 16.3163 1.46186 16.5308 1.67658C16.7454 1.8913 16.9155 2.14626 17.0315 2.42685C17.1475 2.70744 17.2071 3.00817 17.2069 3.31184V9.11073V9.10982Z" fill="#2EB67D"/>
    <path fill-rule="evenodd" clip-rule="evenodd" d="M14.8959 18.3758C15.1994 18.3755 15.4999 18.4352 15.7802 18.5513C16.0606 18.6674 16.3153 18.8376 16.5299 19.0524C16.7444 19.2671 16.9146 19.522 17.0306 19.8026C17.1466 20.0832 17.2062 20.384 17.2059 20.6876C17.2063 20.9914 17.1468 21.2922 17.0309 21.5729C16.9149 21.8536 16.7448 22.1086 16.5302 22.3235C16.3157 22.5383 16.0609 22.7086 15.7804 22.8248C15.5 22.9409 15.1994 23.0006 14.8959 23.0004C14.5924 23.0006 14.2919 22.9409 14.0114 22.8248C13.731 22.7086 13.4762 22.5383 13.2617 22.3235C13.0471 22.1086 12.877 21.8536 12.761 21.5729C12.6451 21.2922 12.5856 20.9914 12.5859 20.6876V18.3758H14.8959ZM14.8959 17.2199C14.5925 17.2201 14.292 17.1605 14.0117 17.0444C13.7313 16.9283 13.4765 16.758 13.262 16.5433C13.0474 16.3286 12.8773 16.0736 12.7613 15.793C12.6453 15.5124 12.5857 15.2117 12.5859 14.908C12.5857 14.6044 12.6453 14.3036 12.7613 14.023C12.8773 13.7424 13.0474 13.4875 13.262 13.2728C13.4765 13.0581 13.7313 12.8878 14.0117 12.7717C14.292 12.6556 14.5925 12.596 14.8959 12.5962H20.6893C20.9927 12.596 21.2932 12.6556 21.5736 12.7717C21.854 12.8878 22.1087 13.0581 22.3233 13.2728C22.5378 13.4875 22.708 13.7424 22.824 14.023C22.94 14.3036 22.9996 14.6044 22.9993 14.908C22.9996 15.2117 22.94 15.5124 22.824 15.793C22.708 16.0736 22.5378 16.3286 22.3233 16.5433C22.1087 16.758 21.854 16.9283 21.5736 17.0444C21.2932 17.1605 20.9927 17.2201 20.6893 17.2199H14.8959Z" fill="#ECB22E"/>
</svg>
