<svg width="24" height="24" viewBox="0 0 24 24" fill="none" xmlns="http://www.w3.org/2000/svg">
<path fill-rule="evenodd" clip-rule="evenodd" d="M11.2598 4.4593C11.4677 4.55922 11.5999 4.76944 11.5999 5.00009V19.0001C11.5999 19.2307 11.4677 19.441 11.2598 19.5409C11.0519 19.6408 10.8052 19.6127 10.6251 19.4686L5.78943 15.6001H1.9999C1.66853 15.6001 1.3999 15.3315 1.3999 15.0001V9.00009C1.3999 8.66871 1.66853 8.40009 1.9999 8.40009H5.78943L10.6251 4.53156C10.8052 4.38748 11.0519 4.35939 11.2598 4.4593ZM10.3999 6.24846L6.37472 9.46861C6.26833 9.55372 6.13615 9.60009 5.9999 9.60009H2.5999V14.4001H5.9999C6.13615 14.4001 6.26833 14.4465 6.37472 14.5316L10.3999 17.7517V6.24846Z" fill="currentColor"/>
<path fill-rule="evenodd" clip-rule="evenodd" d="M18.6457 4.50575C18.8801 4.27147 19.26 4.27153 19.4943 4.50588C21.4815 6.49367 22.5978 9.18934 22.5978 12.0001C22.5978 14.8108 21.4815 17.5065 19.4943 19.4943C19.26 19.7286 18.8801 19.7287 18.6457 19.4944C18.4114 19.2601 18.4113 18.8802 18.6456 18.6459C20.4078 16.8831 21.3978 14.4926 21.3978 12.0001C21.3978 9.50753 20.4078 7.11704 18.6456 5.35428C18.4113 5.11993 18.4114 4.74003 18.6457 4.50575ZM15.1157 8.03575C15.3501 7.80147 15.73 7.80153 15.9643 8.03588C17.0141 9.08603 17.6039 10.5102 17.6039 11.9951C17.6039 13.48 17.0141 14.9041 15.9643 15.9543C15.73 16.1886 15.3501 16.1887 15.1157 15.9544C14.8814 15.7201 14.8813 15.3402 15.1156 15.1059C15.9405 14.2808 16.4039 13.1618 16.4039 11.9951C16.4039 10.8284 15.9405 9.7094 15.1156 8.88428C14.8813 8.64993 14.8814 8.27003 15.1157 8.03575Z" fill="currentColor"/>
</svg>
