<svg width="24" height="24" viewBox="0 0 24 24" fill="none" xmlns="http://www.w3.org/2000/svg">
<path fill-rule="evenodd" clip-rule="evenodd" d="M9.9999 2.60039C9.6286 2.60039 9.2725 2.74789 9.00995 3.01044C8.7474 3.27299 8.5999 3.62909 8.5999 4.00039V5.40039H15.3999V4.00039C15.3999 3.62909 15.2524 3.27299 14.9899 3.01044C14.7273 2.74789 14.3712 2.60039 13.9999 2.60039H9.9999ZM16.5999 5.40039V4.00039C16.5999 3.31083 16.326 2.64951 15.8384 2.16191C15.3508 1.67432 14.6895 1.40039 13.9999 1.40039H9.9999C9.31034 1.40039 8.64902 1.67432 8.16143 2.16191C7.67383 2.64951 7.3999 3.31083 7.3999 4.00039V5.40039H2.9999C2.66853 5.40039 2.3999 5.66902 2.3999 6.00039C2.3999 6.33176 2.66853 6.60039 2.9999 6.60039H4.3999V20.0004C4.3999 20.69 4.67383 21.3513 5.16142 21.8389C5.64902 22.3265 6.31034 22.6004 6.9999 22.6004H16.9999C17.6895 22.6004 18.3508 22.3265 18.8384 21.8389C19.326 21.3513 19.5999 20.69 19.5999 20.0004V6.60039H20.9999C21.3313 6.60039 21.5999 6.33176 21.5999 6.00039C21.5999 5.66902 21.3313 5.40039 20.9999 5.40039H16.5999ZM5.5999 6.60039V20.0004C5.5999 20.3717 5.7474 20.7278 6.00995 20.9903C6.2725 21.2529 6.6286 21.4004 6.9999 21.4004H16.9999C17.3712 21.4004 17.7273 21.2529 17.9899 20.9903C18.2524 20.7278 18.3999 20.3717 18.3999 20.0004V6.60039H5.5999ZM9.9999 10.4004C10.3313 10.4004 10.5999 10.669 10.5999 11.0004V17.0004C10.5999 17.3318 10.3313 17.6004 9.9999 17.6004C9.66853 17.6004 9.3999 17.3318 9.3999 17.0004V11.0004C9.3999 10.669 9.66853 10.4004 9.9999 10.4004ZM13.9999 10.4004C14.3313 10.4004 14.5999 10.669 14.5999 11.0004V17.0004C14.5999 17.3318 14.3313 17.6004 13.9999 17.6004C13.6685 17.6004 13.3999 17.3318 13.3999 17.0004V11.0004C13.3999 10.669 13.6685 10.4004 13.9999 10.4004Z" fill="currentColor"/>
</svg>
