<svg width="60" height="60" viewBox="0 0 60 60" fill="none" xmlns="http://www.w3.org/2000/svg">
<rect width="60" height="60" fill="#171717"/>
<path d="M20.5308 29.3295C20.5308 24.6945 22.7067 20.5683 26.0861 17.9118L20.9137 9.63306C16.5789 12.7464 13.3172 17.2525 11.7783 22.4978C14.1873 24.0483 15.7849 26.7576 15.7849 29.8367C15.7849 32.8066 14.3083 35.425 12.0417 37.0011C13.6962 41.9697 16.9203 46.223 21.1259 49.1748L25.9363 40.6193C22.6403 37.9638 20.5308 33.8927 20.5308 29.3295Z" fill="#DD4814"/>
<path d="M13.34 29.8367C13.34 33.3003 10.5271 36.1103 7.06433 36.1103C3.59984 36.1103 0.789062 33.3005 0.789062 29.8367C0.789062 26.3747 3.59984 23.5649 7.06433 23.5649C10.5271 23.5649 13.34 26.3747 13.34 29.8367Z" fill="#DD4814"/>
<path d="M48.5788 45.0071C50.0382 45.0071 51.4122 45.3641 52.6195 45.998C56.3799 42.035 58.8097 36.8057 59.2116 31.0136L49.4656 30.825C48.7152 38.1344 42.54 43.8289 35.0345 43.8289C32.9571 43.8289 30.9746 43.3919 29.1855 42.6016L24.3408 51.0776C27.5705 52.6668 31.1961 53.5596 35.0344 53.5596C36.6908 53.5596 38.3153 53.3919 39.8806 53.0724C40.2145 48.5645 43.9806 45.0071 48.5788 45.0071Z" fill="#DD4814"/>
<path d="M54.8502 53.7284C54.8502 57.1913 52.0432 60 48.5785 60C45.1138 60 42.3047 57.1913 42.3047 53.7284C42.3047 50.2628 45.1138 47.4548 48.5785 47.4548C52.0432 47.4548 54.8502 50.2628 54.8502 53.7284Z" fill="#DD4814"/>
<path d="M53.2867 13.3944C51.8668 14.3999 50.1291 14.995 48.2527 14.995C43.4328 14.995 39.5303 11.0914 39.5303 6.2745C39.5303 6.01865 39.5417 5.7712 39.5607 5.52289C38.0954 5.24236 36.5812 5.09839 35.0345 5.09839C31.1605 5.09839 27.4968 6.01014 24.25 7.62486L29.0662 16.1064C30.8876 15.2859 32.9079 14.8243 35.0345 14.8243C42.4736 14.8243 48.6052 20.4269 49.443 27.6426L59.1888 27.345C58.7585 22.0241 56.6035 17.1907 53.2867 13.3944Z" fill="#DD4814"/>
<path d="M54.5219 6.27466C54.5219 9.73927 51.7205 12.5482 48.2521 12.5482C44.7876 12.5482 41.9785 9.73927 41.9785 6.27466C41.9784 2.8098 44.7875 0 48.252 0C51.7203 0 54.5219 2.8098 54.5219 6.27466Z" fill="#DD4814"/>
</svg>
