<svg width="24" height="24" viewBox="0 0 24 24" fill="none" xmlns="http://www.w3.org/2000/svg">
<path fill-rule="evenodd" clip-rule="evenodd" d="M4.74721 15.7477C5.60988 14.885 6.77991 14.4004 7.9999 14.4004H15.9999C17.2199 14.4004 18.3899 14.885 19.2526 15.7477C20.1153 16.6104 20.5999 17.7804 20.5999 19.0004V21.0004C20.5999 21.3318 20.3313 21.6004 19.9999 21.6004C19.6685 21.6004 19.3999 21.3318 19.3999 21.0004V19.0004C19.3999 18.0987 19.0417 17.2339 18.4041 16.5962C17.7664 15.9586 16.9016 15.6004 15.9999 15.6004H7.9999C7.09817 15.6004 6.23336 15.9586 5.59574 16.5962C4.95812 17.2339 4.5999 18.0987 4.5999 19.0004V21.0004C4.5999 21.3318 4.33127 21.6004 3.9999 21.6004C3.66853 21.6004 3.3999 21.3318 3.3999 21.0004V19.0004C3.3999 17.7804 3.88454 16.6104 4.74721 15.7477Z" fill="currentColor"/>
<path fill-rule="evenodd" clip-rule="evenodd" d="M11.9999 3.60039C10.1221 3.60039 8.5999 5.12262 8.5999 7.00039C8.5999 8.87816 10.1221 10.4004 11.9999 10.4004C13.8777 10.4004 15.3999 8.87816 15.3999 7.00039C15.3999 5.12262 13.8777 3.60039 11.9999 3.60039ZM7.3999 7.00039C7.3999 4.45988 9.45939 2.40039 11.9999 2.40039C14.5404 2.40039 16.5999 4.45988 16.5999 7.00039C16.5999 9.5409 14.5404 11.6004 11.9999 11.6004C9.45939 11.6004 7.3999 9.5409 7.3999 7.00039Z" fill="currentColor"/>
</svg>
