<svg width="24" height="24" viewBox="0 0 24 24" fill="none" xmlns="http://www.w3.org/2000/svg">
<path fill-rule="evenodd" clip-rule="evenodd" d="M22.2544 6.45704C22.4652 6.55578 22.5999 6.76758 22.5999 7.00039V17.0004C22.5999 17.2332 22.4652 17.445 22.2544 17.5437C22.0436 17.6425 21.7946 17.6104 21.6158 17.4613L15.6158 12.4613C15.479 12.3473 15.3999 12.1785 15.3999 12.0004C15.3999 11.8223 15.479 11.6535 15.6158 11.5395L21.6158 6.53946C21.7946 6.39042 22.0436 6.35829 22.2544 6.45704ZM16.9371 12.0004L21.3999 15.7194V8.28142L16.9371 12.0004Z" fill="currentColor"/>
<path fill-rule="evenodd" clip-rule="evenodd" d="M3.9999 5.60039C3.2267 5.60039 2.5999 6.22719 2.5999 7.00039V17.0004C2.5999 17.7736 3.2267 18.4004 3.9999 18.4004H13.9999C14.7731 18.4004 15.3999 17.7736 15.3999 17.0004V7.00039C15.3999 6.22719 14.7731 5.60039 13.9999 5.60039H3.9999ZM1.3999 7.00039C1.3999 5.56445 2.56396 4.40039 3.9999 4.40039H13.9999C15.4358 4.40039 16.5999 5.56445 16.5999 7.00039V17.0004C16.5999 18.4363 15.4358 19.6004 13.9999 19.6004H3.9999C2.56396 19.6004 1.3999 18.4363 1.3999 17.0004V7.00039Z" fill="currentColor"/>
</svg>
