<svg width="24" height="24" viewBox="0 0 24 24" fill="none" xmlns="http://www.w3.org/2000/svg">
    <path fill-rule="evenodd" clip-rule="evenodd" d="M23.4576 6.11083C23.7907 6.28224 24 6.62541 24 7V17C24 17.3746 23.7907 17.7178 23.4576 17.8892C23.1245 18.0606 22.7236 18.0315 22.4188 17.8137L15.4188 12.8137C15.156 12.626 15 12.323 15 12C15 11.677 15.156 11.374 15.4188 11.1863L22.4188 6.18627C22.7236 5.96854 23.1245 5.93943 23.4576 6.11083Z" fill="currentColor"/>
    <path fill-rule="evenodd" clip-rule="evenodd" d="M3 5C2.56897 5 2 5.44603 2 6.28571V17.7143C2 18.554 2.56897 19 3 19H14C14.431 19 15 18.554 15 17.7143V6.28571C15 5.44603 14.431 5 14 5H3ZM0 6.28571C0 4.60067 1.22189 3 3 3H14C15.7781 3 17 4.60067 17 6.28571V17.7143C17 19.3993 15.7781 21 14 21H3C1.22189 21 0 19.3993 0 17.7143V6.28571Z" fill="currentColor"/>
    <path fill-rule="evenodd" clip-rule="evenodd" d="M0.292893 0.292893C0.683417 -0.0976311 1.31658 -0.0976311 1.70711 0.292893L23.7071 22.2929C24.0976 22.6834 24.0976 23.3166 23.7071 23.7071C23.3166 24.0976 22.6834 24.0976 22.2929 23.7071L0.292893 1.70711C-0.0976311 1.31658 -0.0976311 0.683417 0.292893 0.292893Z" fill="var(--new-signal-03)"/>
</svg>
