<svg width="24" height="24" viewBox="0 0 24 24" fill="none" xmlns="http://www.w3.org/2000/svg">
<path fill-rule="evenodd" clip-rule="evenodd" d="M8.0599 5.00039C8.0599 4.66902 8.32853 4.40039 8.6599 4.40039H13.9999C14.6895 4.40039 15.3508 4.67432 15.8384 5.16191C16.326 5.64951 16.5999 6.31083 16.5999 7.00039V10.0919L17.0288 10.5208L21.6066 6.54728C21.7841 6.39324 22.0351 6.35698 22.2489 6.4545C22.4627 6.55203 22.5999 6.7654 22.5999 7.00039V17.0004C22.5999 17.3318 22.3313 17.6004 21.9999 17.6004C21.6685 17.6004 21.3999 17.3318 21.3999 17.0004V8.31569L17.3932 11.7935C17.1554 12 16.7983 11.9874 16.5756 11.7647L15.5756 10.7647C15.4631 10.6521 15.3999 10.4995 15.3999 10.3404V7.00039C15.3999 6.62909 15.2524 6.27299 14.9899 6.01044C14.7273 5.74789 14.3712 5.60039 13.9999 5.60039H8.6599C8.32853 5.60039 8.0599 5.33176 8.0599 5.00039ZM3.9999 6.10039C3.6286 6.10039 3.2725 6.24789 3.00995 6.51044C2.7474 6.77299 2.5999 7.12909 2.5999 7.50039L2.5999 17.0004C2.5999 17.3717 2.7474 17.7278 3.00995 17.9903C3.2725 18.2529 3.6286 18.4004 3.9999 18.4004H13.9999C14.3712 18.4004 14.7273 18.2529 14.9899 17.9903C15.2524 17.7278 15.3999 17.3717 15.3999 17.0004V15.5004C15.3999 15.169 15.6685 14.9004 15.9999 14.9004C16.3313 14.9004 16.5999 15.169 16.5999 15.5004V17.0004C16.5999 17.69 16.326 18.3513 15.8384 18.8389C15.3508 19.3265 14.6895 19.6004 13.9999 19.6004H3.9999C3.31034 19.6004 2.64902 19.3265 2.16143 18.8389C1.67383 18.3513 1.3999 17.69 1.3999 17.0004L1.3999 7.50039C1.3999 6.81083 1.67383 6.14951 2.16143 5.66191C2.64902 5.17432 3.31034 4.90039 3.9999 4.90039C4.33127 4.90039 4.5999 5.16902 4.5999 5.50039C4.5999 5.83176 4.33127 6.10039 3.9999 6.10039Z" fill="currentColor"/>
<path fill-rule="evenodd" clip-rule="evenodd" d="M0.53552 2.6244C0.74534 2.36792 1.12335 2.3301 1.37983 2.53992L23.3798 20.5374C23.6363 20.7473 23.6741 21.1253 23.4643 21.3818C23.2545 21.6382 22.8765 21.6761 22.62 21.4662L0.620009 3.46871C0.363528 3.2589 0.325701 2.88088 0.53552 2.6244Z" fill="currentColor"/>
</svg>
