<svg width="170" height="32" viewBox="0 0 170 32" fill="none" xmlns="http://www.w3.org/2000/svg">
<path d="M0 6C0 2.68629 2.68629 0 6 0H164C167.314 0 170 2.68629 170 6V26C170 29.3137 167.314 32 164 32H6C2.68629 32 0 29.3137 0 26V6Z" fill="url(#paint0_linear)"/>
<rect x="6" y="6" width="20" height="20" rx="6" fill="url(#paint1_linear)"/>
<g style="mix-blend-mode:luminosity" opacity="0.5">
<path fill-rule="evenodd" clip-rule="evenodd" d="M146.97 13.9697C147.263 13.6768 147.737 13.6768 148.03 13.9697L152 17.9393L155.97 13.9697C156.263 13.6768 156.737 13.6768 157.03 13.9697C157.323 14.2626 157.323 14.7374 157.03 15.0303L152.53 19.5303C152.237 19.8232 151.763 19.8232 151.47 19.5303L146.97 15.0303C146.677 14.7374 146.677 14.2626 146.97 13.9697Z" fill="white" fill-opacity="0.05"/>
</g>
<defs>
<linearGradient id="paint0_linear" x1="-9.4995e-07" y1="16" x2="170" y2="16" gradientUnits="userSpaceOnUse">
<stop stop-color="white" stop-opacity="0.17"/>
<stop offset="1" stop-color="white" stop-opacity="0.06"/>
</linearGradient>
<linearGradient id="paint1_linear" x1="6" y1="16" x2="26" y2="16" gradientUnits="userSpaceOnUse">
<stop stop-color="white" stop-opacity="0.16"/>
<stop offset="1" stop-color="white" stop-opacity="0.12"/>
</linearGradient>
</defs>
</svg>
