<svg width="180" height="114" viewBox="0 0 180 114" fill="none" xmlns="http://www.w3.org/2000/svg">
<path d="M0 109C0 106.239 2.23858 104 5 104H175C177.761 104 180 106.239 180 109C180 111.761 177.761 114 175 114H5C2.23858 114 0 111.761 0 109Z" fill="url(#paint0_linear)"/>
<path d="M40 12C40 5.37258 45.3726 0 52 0H128C134.627 0 140 5.37258 140 12V68C140 74.6274 134.627 80 128 80H52C45.3726 80 40 74.6274 40 68V12Z" fill="url(#paint1_linear)"/>
<defs>
<linearGradient id="paint0_linear" x1="-1.00583e-06" y1="57" x2="180" y2="57" gradientUnits="userSpaceOnUse">
<stop stop-color="white" stop-opacity="0.16"/>
<stop offset="1" stop-color="white" stop-opacity="0.12"/>
</linearGradient>
<linearGradient id="paint1_linear" x1="-1.00583e-06" y1="57" x2="180" y2="57" gradientUnits="userSpaceOnUse">
<stop stop-color="white" stop-opacity="0.16"/>
<stop offset="1" stop-color="white" stop-opacity="0.12"/>
</linearGradient>
</defs>
</svg>
