<svg width="220" height="332" viewBox="0 0 220 332" fill="none" xmlns="http://www.w3.org/2000/svg">
<rect x="20" y="63" width="58" height="10" rx="5" fill="url(#paint0_linear)"/>
<rect x="186" y="60" width="16" height="16" rx="8" fill="url(#paint1_linear)"/>
<rect x="20" y="207" width="58" height="10" rx="5" fill="url(#paint2_linear)"/>
<rect x="186" y="204" width="16" height="16" rx="8" fill="url(#paint3_linear)"/>
<g style="mix-blend-mode:luminosity">
<rect x="12" y="12" width="196" height="28" rx="6" fill="url(#paint4_linear)"/>
</g>
<rect x="12" y="84" width="196" height="28" rx="6" fill="url(#paint5_linear)"/>
<g style="mix-blend-mode:luminosity">
<rect x="12" y="116" width="196" height="28" rx="6" fill="url(#paint6_linear)"/>
</g>
<g style="mix-blend-mode:luminosity">
<rect x="12" y="148" width="196" height="28" rx="6" fill="url(#paint7_linear)"/>
</g>
<g style="mix-blend-mode:luminosity">
<rect x="12" y="228" width="196" height="28" rx="6" fill="url(#paint8_linear)"/>
</g>
<g style="mix-blend-mode:luminosity">
<rect x="12" y="260" width="196" height="28" rx="6" fill="url(#paint9_linear)"/>
</g>
<g style="mix-blend-mode:luminosity">
<rect x="12" y="292" width="196" height="28" rx="6" fill="url(#paint10_linear)"/>
</g>
<defs>
<linearGradient id="paint0_linear" x1="20" y1="67.9999" x2="78" y2="68" gradientUnits="userSpaceOnUse">
<stop stop-color="#C4C4C4"/>
<stop offset="1" stop-color="#C4C4C4" stop-opacity="0.54"/>
</linearGradient>
<linearGradient id="paint1_linear" x1="186" y1="67.9999" x2="202" y2="67.9999" gradientUnits="userSpaceOnUse">
<stop stop-color="#C4C4C4"/>
<stop offset="1" stop-color="#C4C4C4" stop-opacity="0.54"/>
</linearGradient>
<linearGradient id="paint2_linear" x1="20" y1="212" x2="78" y2="212" gradientUnits="userSpaceOnUse">
<stop stop-color="#C4C4C4"/>
<stop offset="1" stop-color="#C4C4C4" stop-opacity="0.54"/>
</linearGradient>
<linearGradient id="paint3_linear" x1="186" y1="212" x2="202" y2="212" gradientUnits="userSpaceOnUse">
<stop stop-color="#C4C4C4"/>
<stop offset="1" stop-color="#C4C4C4" stop-opacity="0.54"/>
</linearGradient>
<linearGradient id="paint4_linear" x1="12" y1="26" x2="208" y2="26" gradientUnits="userSpaceOnUse">
<stop stop-color="#D7D7D7" stop-opacity="0.44"/>
<stop offset="1" stop-color="#EAEAEA"/>
</linearGradient>
<linearGradient id="paint5_linear" x1="12" y1="98" x2="208" y2="98" gradientUnits="userSpaceOnUse">
<stop stop-color="#D7D7D7" stop-opacity="0.44"/>
<stop offset="1" stop-color="#EAEAEA"/>
</linearGradient>
<linearGradient id="paint6_linear" x1="12" y1="130" x2="208" y2="130" gradientUnits="userSpaceOnUse">
<stop stop-color="#D7D7D7" stop-opacity="0.44"/>
<stop offset="1" stop-color="#EAEAEA"/>
</linearGradient>
<linearGradient id="paint7_linear" x1="12" y1="162" x2="208" y2="162" gradientUnits="userSpaceOnUse">
<stop stop-color="#D7D7D7" stop-opacity="0.44"/>
<stop offset="1" stop-color="#EAEAEA"/>
</linearGradient>
<linearGradient id="paint8_linear" x1="12" y1="242" x2="208" y2="242" gradientUnits="userSpaceOnUse">
<stop stop-color="#D7D7D7" stop-opacity="0.44"/>
<stop offset="1" stop-color="#EAEAEA"/>
</linearGradient>
<linearGradient id="paint9_linear" x1="12" y1="274" x2="208" y2="274" gradientUnits="userSpaceOnUse">
<stop stop-color="#D7D7D7" stop-opacity="0.44"/>
<stop offset="1" stop-color="#EAEAEA"/>
</linearGradient>
<linearGradient id="paint10_linear" x1="12" y1="306" x2="208" y2="306" gradientUnits="userSpaceOnUse">
<stop stop-color="#D7D7D7" stop-opacity="0.44"/>
<stop offset="1" stop-color="#EAEAEA"/>
</linearGradient>
</defs>
</svg>
