<svg width="196" height="360" viewBox="0 0 196 360" fill="none" xmlns="http://www.w3.org/2000/svg">
<path d="M0 6C0 2.68629 2.68629 0 6 0H190C193.314 0 196 2.68629 196 6V26C196 29.3137 193.314 32 190 32H6C2.68629 32 0 29.3137 0 26V6Z" fill="url(#paint0_linear)"/>
<path d="M8 56C8 53.2386 10.2386 51 13 51H61C63.7614 51 66 53.2386 66 56C66 58.7614 63.7614 61 61 61H13C10.2386 61 8 58.7614 8 56Z" fill="url(#paint1_linear)"/>
<path d="M6 80C2.68629 80 0 82.6863 0 86V106C0 109.314 2.68629 112 6 112H190C193.314 112 196 109.314 196 106V86C196 82.6863 193.314 80 190 80H6Z" fill="url(#paint2_linear)"/>
<path d="M0 126C0 122.686 2.68629 120 6 120H190C193.314 120 196 122.686 196 126V146C196 149.314 193.314 152 190 152H6C2.68629 152 0 149.314 0 146V126Z" fill="url(#paint3_linear)"/>
<path d="M6 160C2.68629 160 0 162.686 0 166V186C0 189.314 2.68629 192 6 192H190C193.314 192 196 189.314 196 186V166C196 162.686 193.314 160 190 160H6Z" fill="url(#paint4_linear)"/>
<path d="M0 254C0 250.686 2.68629 248 6 248H190C193.314 248 196 250.686 196 254V274C196 277.314 193.314 280 190 280H6C2.68629 280 0 277.314 0 274V254Z" fill="url(#paint5_linear)"/>
<path d="M6 288C2.68629 288 0 290.686 0 294V314C0 317.314 2.68629 320 6 320H190C193.314 320 196 317.314 196 314V294C196 290.686 193.314 288 190 288H6Z" fill="url(#paint6_linear)"/>
<path d="M0 334C0 330.686 2.68629 328 6 328H190C193.314 328 196 330.686 196 334V354C196 357.314 193.314 360 190 360H6C2.68629 360 0 357.314 0 354V334Z" fill="url(#paint7_linear)"/>
<path d="M182 48C177.582 48 174 51.5817 174 56C174 60.4183 177.582 64 182 64C186.418 64 190 60.4183 190 56C190 51.5817 186.418 48 182 48Z" fill="url(#paint8_linear)"/>
<path d="M8 224C8 221.239 10.2386 219 13 219H61C63.7614 219 66 221.239 66 224C66 226.761 63.7614 229 61 229H13C10.2386 229 8 226.761 8 224Z" fill="url(#paint9_linear)"/>
<path d="M182 216C177.582 216 174 219.582 174 224C174 228.418 177.582 232 182 232C186.418 232 190 228.418 190 224C190 219.582 186.418 216 182 216Z" fill="url(#paint10_linear)"/>
<defs>
<linearGradient id="paint0_linear" x1="-1.09524e-06" y1="180" x2="196" y2="180" gradientUnits="userSpaceOnUse">
<stop stop-color="white" stop-opacity="0.16"/>
<stop offset="1" stop-color="white" stop-opacity="0.12"/>
</linearGradient>
<linearGradient id="paint1_linear" x1="-1.09524e-06" y1="180" x2="196" y2="180" gradientUnits="userSpaceOnUse">
<stop stop-color="white" stop-opacity="0.16"/>
<stop offset="1" stop-color="white" stop-opacity="0.12"/>
</linearGradient>
<linearGradient id="paint2_linear" x1="-1.09524e-06" y1="180" x2="196" y2="180" gradientUnits="userSpaceOnUse">
<stop stop-color="white" stop-opacity="0.16"/>
<stop offset="1" stop-color="white" stop-opacity="0.12"/>
</linearGradient>
<linearGradient id="paint3_linear" x1="-1.09524e-06" y1="180" x2="196" y2="180" gradientUnits="userSpaceOnUse">
<stop stop-color="white" stop-opacity="0.16"/>
<stop offset="1" stop-color="white" stop-opacity="0.12"/>
</linearGradient>
<linearGradient id="paint4_linear" x1="-1.09524e-06" y1="180" x2="196" y2="180" gradientUnits="userSpaceOnUse">
<stop stop-color="white" stop-opacity="0.16"/>
<stop offset="1" stop-color="white" stop-opacity="0.12"/>
</linearGradient>
<linearGradient id="paint5_linear" x1="-1.09524e-06" y1="180" x2="196" y2="180" gradientUnits="userSpaceOnUse">
<stop stop-color="white" stop-opacity="0.16"/>
<stop offset="1" stop-color="white" stop-opacity="0.12"/>
</linearGradient>
<linearGradient id="paint6_linear" x1="-1.09524e-06" y1="180" x2="196" y2="180" gradientUnits="userSpaceOnUse">
<stop stop-color="white" stop-opacity="0.16"/>
<stop offset="1" stop-color="white" stop-opacity="0.12"/>
</linearGradient>
<linearGradient id="paint7_linear" x1="-1.09524e-06" y1="180" x2="196" y2="180" gradientUnits="userSpaceOnUse">
<stop stop-color="white" stop-opacity="0.16"/>
<stop offset="1" stop-color="white" stop-opacity="0.12"/>
</linearGradient>
<linearGradient id="paint8_linear" x1="-1.09524e-06" y1="180" x2="196" y2="180" gradientUnits="userSpaceOnUse">
<stop stop-color="white" stop-opacity="0.16"/>
<stop offset="1" stop-color="white" stop-opacity="0.12"/>
</linearGradient>
<linearGradient id="paint9_linear" x1="-1.09524e-06" y1="180" x2="196" y2="180" gradientUnits="userSpaceOnUse">
<stop stop-color="white" stop-opacity="0.16"/>
<stop offset="1" stop-color="white" stop-opacity="0.12"/>
</linearGradient>
<linearGradient id="paint10_linear" x1="-1.09524e-06" y1="180" x2="196" y2="180" gradientUnits="userSpaceOnUse">
<stop stop-color="white" stop-opacity="0.16"/>
<stop offset="1" stop-color="white" stop-opacity="0.12"/>
</linearGradient>
</defs>
</svg>
