<svg width="24" height="24" viewBox="0 0 24 24" fill="none" xmlns="http://www.w3.org/2000/svg">
<path fill-rule="evenodd" clip-rule="evenodd" d="M6.98013 3.9105C7.14567 3.62344 7.51258 3.52492 7.79964 3.69046L16.7996 8.88046C17.0867 9.046 17.1852 9.4129 17.0197 9.69996C16.8541 9.98702 16.4872 10.0855 16.2002 9.92L7.20017 4.73C6.91311 4.56446 6.81459 4.19756 6.98013 3.9105Z" fill="currentColor"/>
<path fill-rule="evenodd" clip-rule="evenodd" d="M10.7011 1.74999C11.0961 1.52224 11.544 1.40234 11.9999 1.40234C12.4558 1.40234 12.9037 1.52223 13.2987 1.74996L13.2999 1.75068L20.2999 5.75067C20.6948 5.97865 21.0227 6.30645 21.2509 6.70119C21.4791 7.09593 21.5994 7.54373 21.5999 7.99968V16.0003C21.5994 16.4562 21.4791 16.9047 21.2509 17.2994C21.0227 17.6941 20.6948 18.0219 20.2999 18.2499L20.2976 18.2512L13.2999 22.2499L13.2985 22.2507C12.9036 22.4784 12.4558 22.5982 11.9999 22.5982C11.544 22.5982 11.0962 22.4784 10.7012 22.2507L10.6999 22.2499L3.70222 18.2512L3.6999 18.2499C3.30504 18.0219 2.97708 17.6941 2.7489 17.2994C2.52073 16.9047 2.40037 16.4569 2.3999 16.0009L2.3999 8.00029C2.40037 7.54435 2.52073 7.09593 2.7489 6.70119C2.97708 6.30645 3.30504 5.97865 3.6999 5.75068L3.70222 5.74934L10.6999 1.75068L10.7011 1.74999ZM11.9999 2.60234C11.7542 2.60234 11.5127 2.66703 11.2999 2.78991L11.2976 2.79124L4.2999 6.78991L4.29886 6.79051C4.08671 6.91324 3.91049 7.08952 3.78783 7.30172C3.66501 7.5142 3.6002 7.75523 3.5999 8.00064V15.9999C3.6002 16.2454 3.66501 16.4864 3.78783 16.6989C3.91049 16.9111 4.08671 17.0873 4.29886 17.2101L4.2999 17.2107L11.2999 21.2107C11.5127 21.3336 11.7542 21.3982 11.9999 21.3982C12.2457 21.3982 12.4871 21.3336 12.6999 21.2107L12.7022 21.2093L19.6999 17.2107L19.701 17.21C19.9131 17.0873 20.0893 16.911 20.212 16.6989C20.3348 16.4863 20.3997 16.2452 20.3999 15.9997V8.00091C20.3997 7.7554 20.3348 7.51427 20.212 7.30172C20.0893 7.08954 19.9131 6.91327 19.701 6.79055L19.6999 6.78991L12.7022 2.79124L12.6999 2.78991C12.4871 2.66703 12.2457 2.60234 11.9999 2.60234Z" fill="currentColor"/>
<path fill-rule="evenodd" clip-rule="evenodd" d="M2.75056 6.6598C2.91648 6.37296 3.28352 6.27494 3.57036 6.44087L11.9999 11.3171L20.4295 6.44087C20.7163 6.27494 21.0834 6.37296 21.2493 6.6598C21.4152 6.94663 21.3172 7.31367 21.0304 7.47959L12.3004 12.5296C12.1145 12.6371 11.8853 12.6371 11.6995 12.5296L2.96949 7.47959C2.68265 7.31367 2.58463 6.94663 2.75056 6.6598Z" fill="currentColor"/>
<path fill-rule="evenodd" clip-rule="evenodd" d="M11.9999 11.4003C12.3313 11.4003 12.5999 11.6689 12.5999 12.0003V22.0803C12.5999 22.4116 12.3313 22.6803 11.9999 22.6803C11.6685 22.6803 11.3999 22.4116 11.3999 22.0803V12.0003C11.3999 11.6689 11.6685 11.4003 11.9999 11.4003Z" fill="currentColor"/>
</svg>
